<svg width="54" height="54" viewBox="0 0 54 54" fill="none" xmlns="http://www.w3.org/2000/svg">
<g id="emojione-monotone:fork-and-knife-with-plate">
<path id="Vector" d="M27.632 39.5888C34.9287 39.5888 40.8569 33.9922 41.1092 27C40.8569 20.0078 34.9287 14.4113 27.632 14.4113C20.3361 14.4113 14.4062 20.0078 14.1573 27C14.4053 33.9922 20.3352 39.5888 27.632 39.5888Z" fill="#E89135"/>
<path id="Vector_2" d="M27.6328 8.4375C17.3813 8.4375 9.06947 16.7484 9.06947 27C9.06947 37.2507 17.3821 45.5625 27.6328 45.5625C37.8835 45.5625 46.1953 37.2507 46.1953 27C46.1953 16.7484 37.8835 8.4375 27.6328 8.4375ZM27.632 40.5C20.1758 40.5 14.1311 34.6604 14.1311 27.4548C14.1311 27.3012 14.1522 27.1519 14.1573 27C14.1522 26.8481 14.1311 26.6979 14.1311 26.5452C14.1311 19.3396 20.1766 13.5 27.632 13.5C35.0882 13.5 41.132 19.3396 41.132 26.5452C41.132 26.6979 41.1143 26.8481 41.11 27C41.1151 27.1519 41.132 27.3012 41.132 27.4548C41.1311 34.6604 35.0882 40.5 27.632 40.5Z" fill="#E89135"/>
<path id="Vector_3" d="M2.93709 6.26143C3.13959 5.46746 3.54038 6.25214 3.54038 6.25214C3.54038 6.25214 3.68044 14.4703 4.59169 14.5597C5.50294 14.6491 4.80094 6.10364 5.87925 5.93996C6.88162 5.78049 6.30956 14.6955 7.2225 14.6053C8.13206 14.5091 8.28562 6.29433 8.28562 6.29433C8.28562 6.29433 8.69062 5.51049 8.89059 6.29855C11.3611 16.0101 9.36225 19.98 9.36225 19.98C9.36225 19.98 9.02475 20.8144 8.22319 20.8186C8.14809 20.8144 8.20463 43.8834 8.19956 46.985C8.20125 48.4928 3.55894 48.4464 3.56147 46.9454C3.56484 43.8437 3.65513 20.7773 3.58256 20.779C2.77847 20.779 2.44181 19.9454 2.44181 19.9454C2.44181 19.9454 0.450562 15.9781 2.93709 6.26143ZM46.9294 5.90621C47.9739 5.90368 52.3074 9.02808 52.3125 20.6398C52.3176 24.3531 50.2917 24.3523 50.2951 26.6751C50.2985 28.9937 50.3111 47.4364 50.3111 47.4364C50.3111 47.4364 48.0887 48.9611 46.4366 47.3656L46.4062 6.23611C46.4079 6.23696 46.402 5.90536 46.9294 5.90621Z" fill="#E89135"/>
</g>
</svg>
