<svg width="307" height="307" viewBox="0 0 307 307" fill="none" xmlns="http://www.w3.org/2000/svg">
<path d="M201.281 28.4773C201.281 28.4773 156.183 15.2026 111.637 42.059C67.0918 68.9153 44.4106 119.012 24.9284 159.198C5.44618 199.384 16.2464 238.76 49.9919 255.295C83.7373 271.83 106.953 243.868 154.476 240.227C202 236.586 214.734 242.505 254.331 214.685C293.928 186.865 301.474 125.373 270.657 81.662C239.841 37.9513 201.281 28.4773 201.281 28.4773Z" fill="#E29A4F"/>
<path opacity="0.7" d="M201.281 28.4773C201.281 28.4773 156.183 15.2026 111.637 42.059C67.0918 68.9153 44.4106 119.012 24.9284 159.198C5.44618 199.384 16.2464 238.76 49.9919 255.295C83.7373 271.83 106.953 243.868 154.476 240.227C202 236.586 214.734 242.505 254.331 214.685C293.928 186.865 301.474 125.373 270.657 81.662C239.841 37.9513 201.281 28.4773 201.281 28.4773Z" fill="white"/>
<path d="M28.2133 247.258H282.391" stroke="#263238" stroke-linecap="round" stroke-linejoin="round"/>
<path d="M28.2133 253.085H282.391" stroke="#263238" stroke-linecap="round" stroke-linejoin="round"/>
<path d="M46.3386 149.577H31.7622C30.3617 149.577 29.2264 150.712 29.2264 152.112V166.689C29.2264 168.089 30.3617 169.225 31.7622 169.225H46.3386C47.7391 169.225 48.8744 168.089 48.8744 166.689V152.112C48.8744 150.712 47.7391 149.577 46.3386 149.577Z" stroke="#263238" stroke-linecap="round" stroke-linejoin="round"/>
<path d="M67.6505 149.577H53.0742C51.6737 149.577 50.5383 150.712 50.5383 152.112V166.689C50.5383 168.089 51.6737 169.225 53.0742 169.225H67.6505C69.051 169.225 70.1863 168.089 70.1863 166.689V152.112C70.1863 150.712 69.051 149.577 67.6505 149.577Z" stroke="#263238" stroke-linecap="round" stroke-linejoin="round"/>
<path d="M88.9625 149.577H74.3861C72.9856 149.577 71.8503 150.712 71.8503 152.112V166.689C71.8503 168.089 72.9856 169.225 74.3861 169.225H88.9625C90.363 169.225 91.4983 168.089 91.4983 166.689V152.112C91.4983 150.712 90.363 149.577 88.9625 149.577Z" stroke="#263238" stroke-linecap="round" stroke-linejoin="round"/>
<path d="M110.268 149.577H95.6919C94.2914 149.577 93.1561 150.712 93.1561 152.112V166.689C93.1561 168.089 94.2914 169.225 95.6919 169.225H110.268C111.669 169.225 112.804 168.089 112.804 166.689V152.112C112.804 150.712 111.669 149.577 110.268 149.577Z" stroke="#263238" stroke-linecap="round" stroke-linejoin="round"/>
<path d="M131.58 149.577H117.004C115.603 149.577 114.468 150.712 114.468 152.112V166.689C114.468 168.089 115.603 169.225 117.004 169.225H131.58C132.981 169.225 134.116 168.089 134.116 166.689V152.112C134.116 150.712 132.981 149.577 131.58 149.577Z" stroke="#263238" stroke-linecap="round" stroke-linejoin="round"/>
<path d="M152.892 149.577H138.316C136.915 149.577 135.78 150.712 135.78 152.112V166.689C135.78 168.089 136.915 169.225 138.316 169.225H152.892C154.293 169.225 155.428 168.089 155.428 166.689V152.112C155.428 150.712 154.293 149.577 152.892 149.577Z" stroke="#263238" stroke-linecap="round" stroke-linejoin="round"/>
<path d="M174.198 149.577H159.622C158.221 149.577 157.086 150.712 157.086 152.112V166.689C157.086 168.089 158.221 169.225 159.622 169.225H174.198C175.598 169.225 176.734 168.089 176.734 166.689V152.112C176.734 150.712 175.598 149.577 174.198 149.577Z" stroke="#263238" stroke-linecap="round" stroke-linejoin="round"/>
<path d="M195.51 149.577H180.934C179.533 149.577 178.398 150.712 178.398 152.112V166.689C178.398 168.089 179.533 169.225 180.934 169.225H195.51C196.91 169.225 198.046 168.089 198.046 166.689V152.112C198.046 150.712 196.91 149.577 195.51 149.577Z" stroke="#263238" stroke-linecap="round" stroke-linejoin="round"/>
<path d="M216.822 149.577H202.245C200.845 149.577 199.71 150.712 199.71 152.112V166.689C199.71 168.089 200.845 169.225 202.245 169.225H216.822C218.222 169.225 219.358 168.089 219.358 166.689V152.112C219.358 150.712 218.222 149.577 216.822 149.577Z" stroke="#263238" stroke-linecap="round" stroke-linejoin="round"/>
<path d="M238.128 149.577H223.551C222.151 149.577 221.015 150.712 221.015 152.112V166.689C221.015 168.089 222.151 169.225 223.551 169.225H238.128C239.528 169.225 240.663 168.089 240.663 166.689V152.112C240.663 150.712 239.528 149.577 238.128 149.577Z" stroke="#263238" stroke-linecap="round" stroke-linejoin="round"/>
<path d="M259.44 149.577H244.863C243.463 149.577 242.327 150.712 242.327 152.112V166.689C242.327 168.089 243.463 169.225 244.863 169.225H259.44C260.84 169.225 261.975 168.089 261.975 166.689V152.112C261.975 150.712 260.84 149.577 259.44 149.577Z" stroke="#263238" stroke-linecap="round" stroke-linejoin="round"/>
<path d="M280.751 149.577H266.175C264.775 149.577 263.639 150.712 263.639 152.112V166.689C263.639 168.089 264.775 169.225 266.175 169.225H280.751C282.152 169.225 283.287 168.089 283.287 166.689V152.112C283.287 150.712 282.152 149.577 280.751 149.577Z" stroke="#263238" stroke-linecap="round" stroke-linejoin="round"/>
<path d="M46.3386 170.575H31.7622C30.3617 170.575 29.2264 171.711 29.2264 173.111V187.687C29.2264 189.088 30.3617 190.223 31.7622 190.223H46.3386C47.7391 190.223 48.8744 189.088 48.8744 187.687V173.111C48.8744 171.711 47.7391 170.575 46.3386 170.575Z" stroke="#263238" stroke-linecap="round" stroke-linejoin="round"/>
<path d="M67.6505 170.575H53.0742C51.6737 170.575 50.5383 171.711 50.5383 173.111V187.687C50.5383 189.088 51.6737 190.223 53.0742 190.223H67.6505C69.051 190.223 70.1863 189.088 70.1863 187.687V173.111C70.1863 171.711 69.051 170.575 67.6505 170.575Z" stroke="#263238" stroke-linecap="round" stroke-linejoin="round"/>
<path d="M88.9625 170.575H74.3861C72.9856 170.575 71.8503 171.711 71.8503 173.111V187.687C71.8503 189.088 72.9856 190.223 74.3861 190.223H88.9625C90.363 190.223 91.4983 189.088 91.4983 187.687V173.111C91.4983 171.711 90.363 170.575 88.9625 170.575Z" stroke="#263238" stroke-linecap="round" stroke-linejoin="round"/>
<path d="M110.268 170.575H95.6919C94.2914 170.575 93.1561 171.711 93.1561 173.111V187.687C93.1561 189.088 94.2914 190.223 95.6919 190.223H110.268C111.669 190.223 112.804 189.088 112.804 187.687V173.111C112.804 171.711 111.669 170.575 110.268 170.575Z" stroke="#263238" stroke-linecap="round" stroke-linejoin="round"/>
<path d="M131.58 170.575H117.004C115.603 170.575 114.468 171.711 114.468 173.111V187.687C114.468 189.088 115.603 190.223 117.004 190.223H131.58C132.981 190.223 134.116 189.088 134.116 187.687V173.111C134.116 171.711 132.981 170.575 131.58 170.575Z" stroke="#263238" stroke-linecap="round" stroke-linejoin="round"/>
<path d="M152.892 170.575H138.316C136.915 170.575 135.78 171.711 135.78 173.111V187.687C135.78 189.088 136.915 190.223 138.316 190.223H152.892C154.293 190.223 155.428 189.088 155.428 187.687V173.111C155.428 171.711 154.293 170.575 152.892 170.575Z" stroke="#263238" stroke-linecap="round" stroke-linejoin="round"/>
<path d="M174.198 170.575H159.622C158.221 170.575 157.086 171.711 157.086 173.111V187.687C157.086 189.088 158.221 190.223 159.622 190.223H174.198C175.598 190.223 176.734 189.088 176.734 187.687V173.111C176.734 171.711 175.598 170.575 174.198 170.575Z" stroke="#263238" stroke-linecap="round" stroke-linejoin="round"/>
<path d="M195.51 170.575H180.934C179.533 170.575 178.398 171.711 178.398 173.111V187.687C178.398 189.088 179.533 190.223 180.934 190.223H195.51C196.91 190.223 198.046 189.088 198.046 187.687V173.111C198.046 171.711 196.91 170.575 195.51 170.575Z" stroke="#263238" stroke-linecap="round" stroke-linejoin="round"/>
<path d="M216.822 170.575H202.245C200.845 170.575 199.71 171.711 199.71 173.111V187.687C199.71 189.088 200.845 190.223 202.245 190.223H216.822C218.222 190.223 219.358 189.088 219.358 187.687V173.111C219.358 171.711 218.222 170.575 216.822 170.575Z" stroke="#263238" stroke-linecap="round" stroke-linejoin="round"/>
<path d="M238.128 170.575H223.551C222.151 170.575 221.015 171.711 221.015 173.111V187.687C221.015 189.088 222.151 190.223 223.551 190.223H238.128C239.528 190.223 240.663 189.088 240.663 187.687V173.111C240.663 171.711 239.528 170.575 238.128 170.575Z" stroke="#263238" stroke-linecap="round" stroke-linejoin="round"/>
<path d="M259.44 170.575H244.863C243.463 170.575 242.327 171.711 242.327 173.111V187.687C242.327 189.088 243.463 190.223 244.863 190.223H259.44C260.84 190.223 261.975 189.088 261.975 187.687V173.111C261.975 171.711 260.84 170.575 259.44 170.575Z" stroke="#263238" stroke-linecap="round" stroke-linejoin="round"/>
<path d="M280.751 170.575H266.175C264.775 170.575 263.639 171.711 263.639 173.111V187.687C263.639 189.088 264.775 190.223 266.175 190.223H280.751C282.152 190.223 283.287 189.088 283.287 187.687V173.111C283.287 171.711 282.152 170.575 280.751 170.575Z" stroke="#263238" stroke-linecap="round" stroke-linejoin="round"/>
<path d="M46.3386 191.574H31.7622C30.3617 191.574 29.2264 192.71 29.2264 194.11V208.686C29.2264 210.087 30.3617 211.222 31.7622 211.222H46.3386C47.7391 211.222 48.8744 210.087 48.8744 208.686V194.11C48.8744 192.71 47.7391 191.574 46.3386 191.574Z" stroke="#263238" stroke-linecap="round" stroke-linejoin="round"/>
<path d="M67.6505 191.574H53.0742C51.6737 191.574 50.5383 192.71 50.5383 194.11V208.686C50.5383 210.087 51.6737 211.222 53.0742 211.222H67.6505C69.051 211.222 70.1863 210.087 70.1863 208.686V194.11C70.1863 192.71 69.051 191.574 67.6505 191.574Z" stroke="#263238" stroke-linecap="round" stroke-linejoin="round"/>
<path d="M88.9625 191.574H74.3861C72.9856 191.574 71.8503 192.71 71.8503 194.11V208.686C71.8503 210.087 72.9856 211.222 74.3861 211.222H88.9625C90.363 211.222 91.4983 210.087 91.4983 208.686V194.11C91.4983 192.71 90.363 191.574 88.9625 191.574Z" stroke="#263238" stroke-linecap="round" stroke-linejoin="round"/>
<path d="M110.268 191.574H95.6919C94.2914 191.574 93.1561 192.71 93.1561 194.11V208.686C93.1561 210.087 94.2914 211.222 95.6919 211.222H110.268C111.669 211.222 112.804 210.087 112.804 208.686V194.11C112.804 192.71 111.669 191.574 110.268 191.574Z" stroke="#263238" stroke-linecap="round" stroke-linejoin="round"/>
<path d="M131.58 191.574H117.004C115.603 191.574 114.468 192.71 114.468 194.11V208.686C114.468 210.087 115.603 211.222 117.004 211.222H131.58C132.981 211.222 134.116 210.087 134.116 208.686V194.11C134.116 192.71 132.981 191.574 131.58 191.574Z" stroke="#263238" stroke-linecap="round" stroke-linejoin="round"/>
<path d="M152.892 191.574H138.316C136.915 191.574 135.78 192.71 135.78 194.11V208.686C135.78 210.087 136.915 211.222 138.316 211.222H152.892C154.293 211.222 155.428 210.087 155.428 208.686V194.11C155.428 192.71 154.293 191.574 152.892 191.574Z" stroke="#263238" stroke-linecap="round" stroke-linejoin="round"/>
<path d="M174.198 191.574H159.622C158.221 191.574 157.086 192.71 157.086 194.11V208.686C157.086 210.087 158.221 211.222 159.622 211.222H174.198C175.598 211.222 176.734 210.087 176.734 208.686V194.11C176.734 192.71 175.598 191.574 174.198 191.574Z" stroke="#263238" stroke-linecap="round" stroke-linejoin="round"/>
<path d="M195.51 191.574H180.934C179.533 191.574 178.398 192.71 178.398 194.11V208.686C178.398 210.087 179.533 211.222 180.934 211.222H195.51C196.91 211.222 198.046 210.087 198.046 208.686V194.11C198.046 192.71 196.91 191.574 195.51 191.574Z" stroke="#263238" stroke-linecap="round" stroke-linejoin="round"/>
<path d="M216.822 191.574H202.245C200.845 191.574 199.71 192.71 199.71 194.11V208.686C199.71 210.087 200.845 211.222 202.245 211.222H216.822C218.222 211.222 219.358 210.087 219.358 208.686V194.11C219.358 192.71 218.222 191.574 216.822 191.574Z" stroke="#263238" stroke-linecap="round" stroke-linejoin="round"/>
<path d="M238.128 191.574H223.551C222.151 191.574 221.015 192.71 221.015 194.11V208.686C221.015 210.087 222.151 211.222 223.551 211.222H238.128C239.528 211.222 240.663 210.087 240.663 208.686V194.11C240.663 192.71 239.528 191.574 238.128 191.574Z" stroke="#263238" stroke-linecap="round" stroke-linejoin="round"/>
<path d="M259.44 191.574H244.863C243.463 191.574 242.327 192.71 242.327 194.11V208.686C242.327 210.087 243.463 211.222 244.863 211.222H259.44C260.84 211.222 261.975 210.087 261.975 208.686V194.11C261.975 192.71 260.84 191.574 259.44 191.574Z" stroke="#263238" stroke-linecap="round" stroke-linejoin="round"/>
<path d="M280.751 191.574H266.175C264.775 191.574 263.639 192.71 263.639 194.11V208.686C263.639 210.087 264.775 211.222 266.175 211.222H280.751C282.152 211.222 283.287 210.087 283.287 208.686V194.11C283.287 192.71 282.152 191.574 280.751 191.574Z" stroke="#263238" stroke-linecap="round" stroke-linejoin="round"/>
<path d="M46.3386 212.573H31.7622C30.3617 212.573 29.2264 213.708 29.2264 215.109V229.685C29.2264 231.086 30.3617 232.221 31.7622 232.221H46.3386C47.7391 232.221 48.8744 231.086 48.8744 229.685V215.109C48.8744 213.708 47.7391 212.573 46.3386 212.573Z" stroke="#263238" stroke-linecap="round" stroke-linejoin="round"/>
<path d="M67.6505 212.573H53.0742C51.6737 212.573 50.5383 213.708 50.5383 215.109V229.685C50.5383 231.086 51.6737 232.221 53.0742 232.221H67.6505C69.051 232.221 70.1863 231.086 70.1863 229.685V215.109C70.1863 213.708 69.051 212.573 67.6505 212.573Z" stroke="#263238" stroke-linecap="round" stroke-linejoin="round"/>
<path d="M88.9625 212.573H74.3861C72.9856 212.573 71.8503 213.708 71.8503 215.109V229.685C71.8503 231.086 72.9856 232.221 74.3861 232.221H88.9625C90.363 232.221 91.4983 231.086 91.4983 229.685V215.109C91.4983 213.708 90.363 212.573 88.9625 212.573Z" stroke="#263238" stroke-linecap="round" stroke-linejoin="round"/>
<path d="M110.268 212.573H95.6919C94.2914 212.573 93.1561 213.708 93.1561 215.109V229.685C93.1561 231.086 94.2914 232.221 95.6919 232.221H110.268C111.669 232.221 112.804 231.086 112.804 229.685V215.109C112.804 213.708 111.669 212.573 110.268 212.573Z" stroke="#263238" stroke-linecap="round" stroke-linejoin="round"/>
<path d="M131.58 212.573H117.004C115.603 212.573 114.468 213.708 114.468 215.109V229.685C114.468 231.086 115.603 232.221 117.004 232.221H131.58C132.981 232.221 134.116 231.086 134.116 229.685V215.109C134.116 213.708 132.981 212.573 131.58 212.573Z" stroke="#263238" stroke-linecap="round" stroke-linejoin="round"/>
<path d="M152.892 212.573H138.316C136.915 212.573 135.78 213.708 135.78 215.109V229.685C135.78 231.086 136.915 232.221 138.316 232.221H152.892C154.293 232.221 155.428 231.086 155.428 229.685V215.109C155.428 213.708 154.293 212.573 152.892 212.573Z" stroke="#263238" stroke-linecap="round" stroke-linejoin="round"/>
<path d="M174.198 212.573H159.622C158.221 212.573 157.086 213.708 157.086 215.109V229.685C157.086 231.086 158.221 232.221 159.622 232.221H174.198C175.598 232.221 176.734 231.086 176.734 229.685V215.109C176.734 213.708 175.598 212.573 174.198 212.573Z" stroke="#263238" stroke-linecap="round" stroke-linejoin="round"/>
<path d="M195.51 212.573H180.934C179.533 212.573 178.398 213.708 178.398 215.109V229.685C178.398 231.086 179.533 232.221 180.934 232.221H195.51C196.91 232.221 198.046 231.086 198.046 229.685V215.109C198.046 213.708 196.91 212.573 195.51 212.573Z" stroke="#263238" stroke-linecap="round" stroke-linejoin="round"/>
<path d="M216.822 212.573H202.245C200.845 212.573 199.71 213.708 199.71 215.109V229.685C199.71 231.086 200.845 232.221 202.245 232.221H216.822C218.222 232.221 219.358 231.086 219.358 229.685V215.109C219.358 213.708 218.222 212.573 216.822 212.573Z" stroke="#263238" stroke-linecap="round" stroke-linejoin="round"/>
<path d="M238.128 212.573H223.551C222.151 212.573 221.015 213.708 221.015 215.109V229.685C221.015 231.086 222.151 232.221 223.551 232.221H238.128C239.528 232.221 240.663 231.086 240.663 229.685V215.109C240.663 213.708 239.528 212.573 238.128 212.573Z" stroke="#263238" stroke-linecap="round" stroke-linejoin="round"/>
<path d="M259.44 212.573H244.863C243.463 212.573 242.327 213.708 242.327 215.109V229.685C242.327 231.086 243.463 232.221 244.863 232.221H259.44C260.84 232.221 261.975 231.086 261.975 229.685V215.109C261.975 213.708 260.84 212.573 259.44 212.573Z" stroke="#263238" stroke-linecap="round" stroke-linejoin="round"/>
<path d="M280.751 212.573H266.175C264.775 212.573 263.639 213.708 263.639 215.109V229.685C263.639 231.086 264.775 232.221 266.175 232.221H280.751C282.152 232.221 283.287 231.086 283.287 229.685V215.109C283.287 213.708 282.152 212.573 280.751 212.573Z" stroke="#263238" stroke-linecap="round" stroke-linejoin="round"/>
<path d="M73.2809 140.557V45.8105" stroke="#263238" stroke-linecap="round" stroke-linejoin="round"/>
<path d="M79.5683 114.493H76.1974V134.116H79.5683V114.493Z" fill="#263238" stroke="#263238" stroke-linecap="round" stroke-linejoin="round"/>
<path d="M70.3705 114.493H66.9997V134.116H70.3705V114.493Z" fill="#263238" stroke="#263238" stroke-linecap="round" stroke-linejoin="round"/>
<path d="M28.2133 140.557H282.391" stroke="#263238" stroke-width="2" stroke-linecap="round" stroke-linejoin="round"/>
<path d="M224.749 140.557V45.8105" stroke="#263238" stroke-linecap="round" stroke-linejoin="round"/>
<path d="M222.6 114.493H219.229V134.116H222.6V114.493Z" fill="#263238" stroke="#263238" stroke-linecap="round" stroke-linejoin="round"/>
<path d="M230.729 114.493H227.358V134.116H230.729V114.493Z" fill="#263238" stroke="#263238" stroke-linecap="round" stroke-linejoin="round"/>
<path d="M76.7132 220.751H84.2592C84.9253 220.751 85.564 221.016 86.035 221.487C86.5059 221.958 86.7705 222.597 86.7705 223.263V246.951H74.2019V223.263C74.2019 222.597 74.4665 221.958 74.9374 221.487C75.4084 221.016 76.0471 220.751 76.7132 220.751Z" fill="white" stroke="#263238" stroke-linecap="round" stroke-linejoin="round"/>
<path d="M76.7132 220.751H84.2592C84.9253 220.751 85.564 221.016 86.035 221.487C86.5059 221.958 86.7705 222.597 86.7705 223.263V227.598H74.2019V223.263C74.2019 222.597 74.4665 221.958 74.9374 221.487C75.4084 221.016 76.0471 220.751 76.7132 220.751Z" fill="white" stroke="#263238" stroke-linecap="round" stroke-linejoin="round"/>
<path d="M76.8421 228.58V244.39" stroke="#263238" stroke-linecap="round" stroke-linejoin="round"/>
<path d="M80.827 228.58V244.39" stroke="#263238" stroke-linecap="round" stroke-linejoin="round"/>
<path d="M278.633 213.224H218.701C217.639 213.224 216.779 214.084 216.779 215.146V245.336C216.779 246.397 217.639 247.258 218.701 247.258H278.633C279.695 247.258 280.555 246.397 280.555 245.336V215.146C280.555 214.084 279.695 213.224 278.633 213.224Z" fill="white" stroke="#263238" stroke-linecap="round" stroke-linejoin="round"/>
<path d="M278.099 215.367H264.916V222.421H278.099V215.367Z" fill="#696969" stroke="#263238" stroke-linecap="round" stroke-linejoin="round"/>
<path d="M267.925 229.022C267.925 229.356 267.826 229.682 267.64 229.96C267.455 230.238 267.191 230.454 266.883 230.582C266.574 230.71 266.235 230.743 265.907 230.678C265.58 230.613 265.279 230.452 265.043 230.216C264.806 229.98 264.646 229.679 264.58 229.351C264.515 229.024 264.549 228.684 264.677 228.376C264.804 228.067 265.021 227.804 265.298 227.618C265.576 227.433 265.903 227.333 266.237 227.333C266.684 227.333 267.114 227.511 267.43 227.828C267.747 228.145 267.925 228.574 267.925 229.022Z" fill="white" stroke="#263238" stroke-linecap="round" stroke-linejoin="round"/>
<path d="M271.603 230.704C272.535 230.704 273.291 229.948 273.291 229.016C273.291 228.083 272.535 227.327 271.603 227.327C270.67 227.327 269.914 228.083 269.914 229.016C269.914 229.948 270.67 230.704 271.603 230.704Z" fill="white" stroke="#263238" stroke-linecap="round" stroke-linejoin="round"/>
<path d="M276.969 230.704C277.902 230.704 278.658 229.948 278.658 229.016C278.658 228.083 277.902 227.327 276.969 227.327C276.037 227.327 275.281 228.083 275.281 229.016C275.281 229.948 276.037 230.704 276.969 230.704Z" fill="white" stroke="#263238" stroke-linecap="round" stroke-linejoin="round"/>
<path d="M267.925 235.451C267.926 235.785 267.828 236.112 267.643 236.39C267.459 236.669 267.195 236.886 266.887 237.015C266.579 237.144 266.239 237.178 265.911 237.113C265.583 237.049 265.282 236.889 265.045 236.653C264.808 236.417 264.647 236.116 264.581 235.788C264.515 235.461 264.548 235.121 264.676 234.812C264.804 234.503 265.02 234.239 265.298 234.053C265.576 233.867 265.902 233.768 266.237 233.768C266.683 233.768 267.112 233.945 267.428 234.261C267.745 234.576 267.923 235.004 267.925 235.451Z" fill="white" stroke="#263238" stroke-linecap="round" stroke-linejoin="round"/>
<path d="M273.285 235.451C273.286 235.785 273.188 236.112 273.003 236.391C272.818 236.67 272.555 236.887 272.246 237.015C271.937 237.144 271.597 237.178 271.269 237.113C270.941 237.048 270.639 236.887 270.403 236.651C270.166 236.414 270.005 236.113 269.94 235.785C269.875 235.456 269.909 235.116 270.038 234.808C270.167 234.499 270.384 234.235 270.663 234.05C270.941 233.865 271.268 233.767 271.603 233.768C272.049 233.77 272.476 233.948 272.791 234.263C273.106 234.578 273.284 235.005 273.285 235.451Z" fill="white" stroke="#263238" stroke-linecap="round" stroke-linejoin="round"/>
<path d="M278.652 235.451C278.653 235.785 278.555 236.112 278.37 236.391C278.185 236.67 277.921 236.887 277.612 237.015C277.303 237.144 276.963 237.178 276.635 237.113C276.307 237.048 276.006 236.887 275.769 236.651C275.533 236.414 275.372 236.113 275.307 235.785C275.242 235.456 275.276 235.116 275.404 234.808C275.533 234.499 275.75 234.235 276.029 234.05C276.307 233.865 276.635 233.767 276.969 233.768C277.415 233.77 277.842 233.948 278.157 234.263C278.472 234.578 278.65 235.005 278.652 235.451Z" fill="white" stroke="#263238" stroke-linecap="round" stroke-linejoin="round"/>
<path d="M267.925 241.916C267.925 242.25 267.826 242.576 267.64 242.854C267.455 243.132 267.191 243.348 266.883 243.476C266.574 243.604 266.235 243.637 265.907 243.572C265.58 243.507 265.279 243.346 265.043 243.11C264.806 242.874 264.646 242.573 264.58 242.245C264.515 241.918 264.549 241.578 264.677 241.27C264.804 240.961 265.021 240.698 265.298 240.512C265.576 240.327 265.903 240.228 266.237 240.228C266.684 240.228 267.114 240.405 267.43 240.722C267.747 241.039 267.925 241.468 267.925 241.916Z" fill="white" stroke="#263238" stroke-linecap="round" stroke-linejoin="round"/>
<path d="M273.285 241.916C273.285 242.25 273.186 242.577 273 242.855C272.814 243.132 272.55 243.349 272.241 243.476C271.933 243.604 271.593 243.637 271.265 243.572C270.937 243.506 270.637 243.344 270.401 243.108C270.165 242.871 270.004 242.569 269.94 242.242C269.876 241.914 269.91 241.574 270.039 241.266C270.167 240.957 270.385 240.694 270.663 240.509C270.942 240.324 271.269 240.226 271.603 240.227C272.05 240.229 272.478 240.408 272.793 240.724C273.108 241.041 273.285 241.469 273.285 241.916Z" fill="white" stroke="#263238" stroke-linecap="round" stroke-linejoin="round"/>
<path d="M278.652 241.916C278.652 242.25 278.552 242.577 278.367 242.855C278.181 243.132 277.917 243.349 277.608 243.476C277.299 243.604 276.959 243.637 276.631 243.572C276.304 243.506 276.003 243.344 275.767 243.108C275.531 242.871 275.371 242.569 275.306 242.242C275.242 241.914 275.276 241.574 275.405 241.266C275.534 240.957 275.751 240.694 276.03 240.509C276.308 240.324 276.635 240.226 276.969 240.227C277.416 240.229 277.844 240.408 278.159 240.724C278.475 241.041 278.652 241.469 278.652 241.916Z" fill="white" stroke="#263238" stroke-linecap="round" stroke-linejoin="round"/>
<path d="M259.722 229.931C259.722 238.146 259.108 244.802 258.341 244.802C257.573 244.802 256.965 238.146 256.965 229.931C256.965 221.715 257.579 215.06 258.341 215.06C259.102 215.06 259.722 221.721 259.722 229.931Z" fill="#696969" stroke="#263238" stroke-linecap="round" stroke-linejoin="round"/>
<path d="M251.537 216.355C250.647 216.312 249.745 216.288 248.836 216.288C232.995 216.288 220.156 222.606 220.156 230.41C220.156 238.214 232.995 244.532 248.836 244.532C249.745 244.532 250.678 244.532 251.537 244.47V216.355Z" fill="#696969" stroke="#263238" stroke-linecap="round" stroke-linejoin="round"/>
<path d="M58.2625 216.595H43.5449V221.193H58.2625V216.595Z" fill="#263238" stroke="#263238" stroke-linecap="round" stroke-linejoin="round"/>
<path d="M38.2829 219.965H63.8253L69.296 240.952H32.8122L38.2829 219.965Z" fill="white" stroke="#263238" stroke-linecap="round" stroke-linejoin="round"/>
<path d="M69.296 240.792H32.8122V247.252H69.296V240.792Z" fill="#263238" stroke="#263238" stroke-linecap="round" stroke-linejoin="round"/>
<path d="M63.9481 220.426L63.8253 219.947H38.2829L38.1601 220.426C40.0021 228.715 45.0799 234.665 51.0541 234.665C57.0283 234.665 62.1 228.733 63.9481 220.426Z" fill="#696969" stroke="#263238" stroke-linecap="round" stroke-linejoin="round"/>
<path d="M44.7729 235.297H42.6239V239.282H44.7729V235.297Z" fill="white" stroke="#263238" stroke-linecap="round" stroke-linejoin="round"/>
<path d="M49.6787 235.297H47.5297V239.282H49.6787V235.297Z" fill="white" stroke="#263238" stroke-linecap="round" stroke-linejoin="round"/>
<path d="M54.5846 235.297H52.4356V239.282H54.5846V235.297Z" fill="white" stroke="#263238" stroke-linecap="round" stroke-linejoin="round"/>
<path d="M59.4905 235.297H57.3415V239.282H59.4905V235.297Z" fill="white" stroke="#263238" stroke-linecap="round" stroke-linejoin="round"/>
<path d="M133.852 59.0054C133.852 59.0054 120.694 63.4569 117.544 71.4266C114.394 79.3963 122.364 84.5846 124.587 85.8802C126.809 87.1757 128.48 93.8622 126.625 102.372C124.771 110.882 119.214 114.038 115.321 113.682C111.429 113.326 110.686 112.939 110.686 112.939C110.686 112.939 111.245 122.947 121.069 127.393C130.893 131.838 135.172 130.168 135.172 130.168C135.172 130.168 152.033 135.356 160.561 133.852C169.089 132.348 173.148 129.806 173.148 129.806C173.148 129.806 177.784 131.844 184.458 128.32C191.132 124.795 193.539 119.423 193.539 119.423C193.539 119.423 183.899 119.239 186.122 109.231C188.345 99.2224 188.903 79.9489 178.14 68.2707C167.376 56.5924 146.844 50.4831 133.852 59.0054Z" fill="#263238"/>
<mask id="mask0_63_11469" style="mask-type:luminance" maskUnits="userSpaceOnUse" x="110" y="55" width="84" height="80">
<path d="M133.852 59.0054C133.852 59.0054 120.694 63.4569 117.544 71.4266C114.394 79.3963 122.364 84.5846 124.587 85.8802C126.809 87.1757 128.48 93.8622 126.625 102.372C124.771 110.882 119.214 114.038 115.321 113.682C111.429 113.326 110.686 112.939 110.686 112.939C110.686 112.939 111.245 122.947 121.069 127.393C130.893 131.838 135.172 130.168 135.172 130.168C135.172 130.168 152.033 135.356 160.561 133.852C169.089 132.348 173.148 129.806 173.148 129.806C173.148 129.806 177.784 131.844 184.458 128.32C191.132 124.795 193.539 119.423 193.539 119.423C193.539 119.423 183.899 119.239 186.122 109.231C188.345 99.2224 188.903 79.9489 178.14 68.2707C167.376 56.5924 146.844 50.4831 133.852 59.0054Z" fill="white"/>
</mask>
<g mask="url(#mask0_63_11469)">
<path d="M147.182 63.6595C147.182 63.6595 152.708 82.7672 164.374 89.1344C176.04 95.5016 184.022 103.256 184.022 110.176C184.022 117.096 184.298 127.626 197.033 123.193" stroke="#6E6E6E" stroke-linecap="round" stroke-linejoin="round"/>
<path d="M150.78 59.5027C150.78 59.5027 166.29 64.2121 174.038 75.5649C181.787 86.9178 179.288 92.4561 182.358 98.8539C185.428 105.252 189.837 105.227 189.837 105.227" stroke="#6E6E6E" stroke-linecap="round" stroke-linejoin="round"/>
<path d="M149.122 61.443C149.122 61.443 162.409 68.0865 167.395 78.0578" stroke="#6E6E6E" stroke-linecap="round" stroke-linejoin="round"/>
<path d="M142.448 68.0864C142.448 68.0864 141.343 59.2264 150.479 58.1212" stroke="#6E6E6E" stroke-linecap="round" stroke-linejoin="round"/>
<path d="M124.2 83.3197C124.2 83.3197 115.34 79.163 120.319 72.5195C125.299 65.876 140.532 66.4286 140.532 66.4286" stroke="#6E6E6E" stroke-linecap="round" stroke-linejoin="round"/>
<path d="M138.875 72.2432C138.875 72.2432 123.924 76.9525 123.647 78.0577C123.371 79.1629 125.305 79.1629 125.305 79.1629" stroke="#6E6E6E" stroke-linecap="round" stroke-linejoin="round"/>
<path d="M144.413 60.8904C144.413 60.8904 142.473 58.3975 134.165 60.0615" stroke="#6E6E6E" stroke-linecap="round" stroke-linejoin="round"/>
<path d="M111.748 122.364C111.748 122.364 126.146 125.434 131.961 107.966" stroke="#6E6E6E" stroke-linecap="round" stroke-linejoin="round"/>
<path d="M122.26 129.554C122.26 129.554 133.06 129.554 135.829 117.925" stroke="#6E6E6E" stroke-linecap="round" stroke-linejoin="round"/>
<path d="M170.44 110.735C170.44 110.735 168.5 131.224 181.492 133.453" stroke="#6E6E6E" stroke-linecap="round" stroke-linejoin="round"/>
</g>
<path d="M133.852 59.0054C133.852 59.0054 120.694 63.4569 117.544 71.4266C114.394 79.3963 122.364 84.5846 124.587 85.8802C126.809 87.1757 128.48 93.8622 126.625 102.372C124.771 110.882 119.214 114.038 115.321 113.682C111.429 113.326 110.686 112.939 110.686 112.939C110.686 112.939 111.245 122.947 121.069 127.393C130.893 131.838 135.172 130.168 135.172 130.168C135.172 130.168 152.033 135.356 160.561 133.852C169.089 132.348 173.148 129.806 173.148 129.806C173.148 129.806 177.784 131.844 184.458 128.32C191.132 124.795 193.539 119.423 193.539 119.423C193.539 119.423 183.899 119.239 186.122 109.231C188.345 99.2224 188.903 79.9489 178.14 68.2707C167.376 56.5924 146.844 50.4831 133.852 59.0054Z" stroke="#263238" stroke-linecap="round" stroke-linejoin="round"/>
<path d="M124.059 142.031C124.059 142.031 114.64 141.245 109.937 146.543C105.233 151.842 82.6567 187.755 77.5543 195.049C72.452 202.344 72.452 215.262 81.8523 217.031C91.2527 218.799 100.272 208.201 104.227 203.289C106.218 200.725 108.382 198.301 110.704 196.032C110.704 196.032 108.936 188.572 114.235 176.599C119.534 164.626 123.267 155.207 125.029 150.105C126.791 145.002 124.059 142.031 124.059 142.031Z" fill="white"/>
<mask id="mask1_63_11469" style="mask-type:luminance" maskUnits="userSpaceOnUse" x="74" y="141" width="52" height="77">
<path d="M124.059 142.031C124.059 142.031 114.64 141.245 109.937 146.543C105.233 151.842 82.6567 187.755 77.5543 195.049C72.452 202.344 72.452 215.262 81.8523 217.031C91.2527 218.799 100.272 208.201 104.227 203.289C106.218 200.725 108.382 198.301 110.704 196.032C110.704 196.032 108.936 188.572 114.235 176.599C119.534 164.626 123.267 155.207 125.029 150.105C126.791 145.002 124.059 142.031 124.059 142.031Z" fill="white"/>
</mask>
<g mask="url(#mask1_63_11469)">
<path opacity="0.1" d="M116.66 171.03L119.466 151.996C119.466 151.996 98.4365 192.078 92.4868 200.41C88.9011 205.426 83.0251 212.02 81.1585 216.822C81.3857 216.883 81.619 216.945 81.8585 216.988C91.2834 218.756 100.278 208.158 104.233 203.246C106.224 200.682 108.388 198.258 110.71 195.989C110.71 195.989 108.942 188.529 114.241 176.556C115.092 174.648 115.899 172.806 116.66 171.03Z" fill="black"/>
</g>
<path d="M124.059 142.031C124.059 142.031 114.64 141.245 109.937 146.543C105.233 151.842 82.6567 187.755 77.5543 195.049C72.452 202.344 72.452 215.262 81.8523 217.031C91.2527 218.799 100.272 208.201 104.227 203.289C106.218 200.725 108.382 198.301 110.704 196.032C110.704 196.032 108.936 188.572 114.235 176.599C119.534 164.626 123.267 155.207 125.029 150.105C126.791 145.002 124.059 142.031 124.059 142.031Z" stroke="#263238" stroke-linecap="round" stroke-linejoin="round"/>
<path d="M137.407 120.835C137.407 120.835 138.586 126.92 137.014 132.808C135.442 138.696 136.032 138.696 132.102 140.262C129.52 141.244 126.808 141.839 124.053 142.031C124.053 142.031 116.795 161.065 111.3 170.096C105.804 179.128 104.233 189.13 106.388 194.233C107.784 197.433 109.646 200.408 111.914 203.062C111.914 203.062 115.051 214.249 113.283 221.482C111.515 228.715 107.204 239.147 105.436 254.847C103.668 270.547 104.65 288.402 104.65 288.402H207.667C207.667 288.402 207.471 268.582 205.309 252.293C203.148 236.003 200.6 234.665 197.094 224.847C193.588 215.029 193.164 214.642 193.164 207.778C193.164 200.913 195.129 182.456 194.54 170.096C193.95 157.737 191.009 148.115 185.907 144.579C180.805 141.042 168.635 139.667 164.122 136.535C159.609 133.404 162.354 113.375 162.354 113.375C162.354 113.375 154.703 118.287 148.422 120.049C144.853 121.119 141.092 121.388 137.407 120.835Z" fill="white"/>
<mask id="mask2_63_11469" style="mask-type:luminance" maskUnits="userSpaceOnUse" x="104" y="113" width="104" height="176">
<path d="M137.407 120.835C137.407 120.835 138.586 126.92 137.014 132.808C135.442 138.696 136.032 138.696 132.102 140.262C129.52 141.244 126.808 141.839 124.053 142.031C124.053 142.031 116.795 161.065 111.3 170.096C105.804 179.128 104.233 189.13 106.388 194.233C107.784 197.433 109.646 200.408 111.914 203.062C111.914 203.062 115.051 214.249 113.283 221.482C111.515 228.715 107.204 239.147 105.436 254.847C103.668 270.547 104.65 288.402 104.65 288.402H207.667C207.667 288.402 207.471 268.582 205.309 252.293C203.148 236.003 200.6 234.665 197.094 224.847C193.588 215.029 193.164 214.642 193.164 207.778C193.164 200.913 195.129 182.456 194.54 170.096C193.95 157.737 191.009 148.115 185.907 144.579C180.805 141.042 168.635 139.667 164.122 136.535C159.609 133.404 162.354 113.375 162.354 113.375C162.354 113.375 154.703 118.287 148.422 120.049C144.853 121.119 141.092 121.388 137.407 120.835Z" fill="white"/>
</mask>
<g mask="url(#mask2_63_11469)">
<path opacity="0.1" d="M155.956 138.15C162.599 141.945 172.018 143.713 181.4 142.448C175.567 140.33 167.548 138.96 164.073 136.541C159.56 133.404 162.305 113.381 162.305 113.381C158.892 115.526 155.309 117.387 151.59 118.944L151.983 124.636C151.983 124.636 147.649 133.361 155.956 138.15Z" fill="black"/>
<path opacity="0.1" d="M183.359 176.611C183.359 176.611 181.376 191.292 184.943 194.073C188.51 196.855 190.5 195.657 190.5 186.533C190.5 177.409 184.151 174.628 183.359 176.611Z" fill="black"/>
</g>
<path d="M137.407 120.835C137.407 120.835 138.586 126.92 137.014 132.808C135.442 138.696 136.032 138.696 132.102 140.262C129.52 141.244 126.808 141.839 124.053 142.031C124.053 142.031 116.795 161.065 111.3 170.096C105.804 179.128 104.233 189.13 106.388 194.233C107.784 197.433 109.646 200.408 111.914 203.062C111.914 203.062 115.051 214.249 113.283 221.482C111.515 228.715 107.204 239.147 105.436 254.847C103.668 270.547 104.65 288.402 104.65 288.402H207.667C207.667 288.402 207.471 268.582 205.309 252.293C203.148 236.003 200.6 234.665 197.094 224.847C193.588 215.029 193.164 214.642 193.164 207.778C193.164 200.913 195.129 182.456 194.54 170.096C193.95 157.737 191.009 148.115 185.907 144.579C180.805 141.042 168.635 139.667 164.122 136.535C159.609 133.404 162.354 113.375 162.354 113.375C162.354 113.375 154.703 118.287 148.422 120.049C144.853 121.119 141.092 121.388 137.407 120.835Z" stroke="#263238" stroke-linecap="round" stroke-linejoin="round"/>
<path d="M137.708 128.793C141.377 130.418 145.531 130.565 149.306 129.204C151.904 128.289 158.173 123.807 161.617 121.259C161.844 116.924 162.329 113.375 162.329 113.375C162.329 113.375 154.679 118.287 148.398 120.049C144.836 121.116 141.084 121.384 137.407 120.835C137.841 123.465 137.942 126.138 137.708 128.793Z" fill="#263238" stroke="#263238" stroke-linecap="round" stroke-linejoin="round"/>
<path d="M205.309 252.354C204.437 245.784 203.504 241.646 202.466 238.398C161.329 253.054 123.531 246.38 107.542 242.247C106.604 246.426 105.895 250.652 105.418 254.908C103.649 270.608 104.632 288.463 104.632 288.463H207.667C207.667 288.463 207.471 268.613 205.309 252.354Z" fill="#263238" stroke="#263238" stroke-linecap="round" stroke-linejoin="round"/>
<path d="M156.883 286.394C156.883 286.394 165.743 266.378 181.443 258.371" stroke="#6E6E6E" stroke-linecap="round" stroke-linejoin="round"/>
<path d="M153.739 283.533C155.34 277.323 158.488 271.62 162.888 266.955" stroke="#6E6E6E" stroke-linecap="round" stroke-linejoin="round"/>
<path d="M116.568 257.518C116.568 257.518 121.713 268.091 131.433 274.096" stroke="#6E6E6E" stroke-linecap="round" stroke-linejoin="round"/>
<path d="M193.14 207.778C193.14 204.468 193.594 198.482 193.999 191.814C190.242 191.955 184.826 191.494 180.78 188.369C173.909 183.07 170.379 172.866 171.355 161.875C172.031 154.353 174.726 145.635 176.359 140.882C174.843 140.453 173.013 139.992 171.545 139.568C170.692 142.712 169.513 147.814 167.432 153.832C163.901 164.036 157.608 177.378 144.861 177.575C132.114 177.771 122.1 173.823 124.642 162.636C126.484 154.525 128.86 145.389 130.021 140.974C128.074 141.534 126.073 141.888 124.053 142.031C124.053 142.031 116.795 161.065 111.3 170.096C105.804 179.128 104.233 189.13 106.388 194.233C107.784 197.433 109.646 200.408 111.914 203.062C111.914 203.062 115.051 214.249 113.283 221.482C111.779 227.684 108.414 236.218 106.363 248.308C111.687 251.23 123.936 256.29 146.273 257.395C171.631 258.623 196.007 251.537 204.812 248.609C202.767 235.715 200.348 233.83 197.106 224.816C193.533 215.035 193.14 214.642 193.14 207.778Z" fill="#E29A4F"/>
<mask id="mask3_63_11469" style="mask-type:luminance" maskUnits="userSpaceOnUse" x="105" y="139" width="100" height="119">
<path d="M193.14 207.778C193.14 204.468 193.594 198.482 193.999 191.814C190.242 191.955 184.826 191.494 180.78 188.369C173.909 183.07 170.379 172.866 171.355 161.875C172.031 154.353 174.726 145.635 176.359 140.882C174.843 140.453 173.013 139.992 171.545 139.568C170.692 142.712 169.513 147.814 167.432 153.832C163.901 164.036 157.608 177.378 144.861 177.575C132.114 177.771 122.1 173.823 124.642 162.636C126.484 154.525 128.86 145.389 130.021 140.974C128.074 141.534 126.073 141.888 124.053 142.031C124.053 142.031 116.795 161.065 111.3 170.096C105.804 179.128 104.233 189.13 106.388 194.233C107.784 197.433 109.646 200.408 111.914 203.062C111.914 203.062 115.051 214.249 113.283 221.482C111.779 227.684 108.414 236.218 106.363 248.308C111.687 251.23 123.936 256.29 146.273 257.395C171.631 258.623 196.007 251.537 204.812 248.609C202.767 235.715 200.348 233.83 197.106 224.816C193.533 215.035 193.14 214.642 193.14 207.778Z" fill="white"/>
</mask>
<g mask="url(#mask3_63_11469)">
<path opacity="0.1" d="M169.163 256.548C181.265 255.087 193.193 252.438 204.775 248.639C202.731 235.745 200.311 233.86 197.069 224.847C193.533 215.023 193.14 214.642 193.14 207.778C193.14 204.468 193.594 198.482 193.999 191.814C190.242 191.955 184.826 191.494 180.78 188.369C175.352 184.188 172.024 176.936 171.337 168.666C167.143 176.9 158.78 191.304 149.613 195.891C136.511 202.442 128.326 198.758 117.274 194.251C109.292 190.997 106.836 191.593 106.437 194.343C107.819 197.509 109.658 200.455 111.895 203.087C111.895 203.087 112.509 205.389 113.074 208.57C115.856 210.817 119.718 213.113 125.053 215.539C138.561 221.679 161.071 225.363 172.945 232.319C184.82 239.276 175.401 246.239 169.667 254.835C169.344 255.348 169.17 255.941 169.163 256.548Z" fill="black"/>
</g>
<path d="M193.14 207.778C193.14 204.468 193.594 198.482 193.999 191.814C190.242 191.955 184.826 191.494 180.78 188.369C173.909 183.07 170.379 172.866 171.355 161.875C172.031 154.353 174.726 145.635 176.359 140.882C174.843 140.453 173.013 139.992 171.545 139.568C170.692 142.712 169.513 147.814 167.432 153.832C163.901 164.036 157.608 177.378 144.861 177.575C132.114 177.771 122.1 173.823 124.642 162.636C126.484 154.525 128.86 145.389 130.021 140.974C128.074 141.534 126.073 141.888 124.053 142.031C124.053 142.031 116.795 161.065 111.3 170.096C105.804 179.128 104.233 189.13 106.388 194.233C107.784 197.433 109.646 200.408 111.914 203.062C111.914 203.062 115.051 214.249 113.283 221.482C111.779 227.684 108.414 236.218 106.363 248.308C111.687 251.23 123.936 256.29 146.273 257.395C171.631 258.623 196.007 251.537 204.812 248.609C202.767 235.715 200.348 233.83 197.106 224.816C193.533 215.035 193.14 214.642 193.14 207.778Z" stroke="#263238" stroke-linecap="round" stroke-linejoin="round"/>
<path d="M115.85 204.701C115.85 204.701 120.019 206.691 126.902 206.691" stroke="#263238" stroke-linecap="round" stroke-linejoin="round"/>
<path d="M86.4389 135.16C86.4389 135.16 86.0889 132.323 85.8249 127.829C85.5609 123.334 85.2109 119.791 87.3661 119.319C89.5212 118.846 90.3194 120.97 90.3194 123.457C90.3194 125.944 91.5044 131.378 92.7754 135.043C94.0464 138.709 95.3788 140.723 93.3894 141.668C91.4001 142.614 87.0345 138.709 86.4389 135.16Z" fill="white" stroke="#263238" stroke-linecap="round" stroke-linejoin="round"/>
<path d="M128.326 129.13C128.326 129.13 124.519 131.396 124.028 134.57C123.537 137.745 125.33 140.01 130.297 139.421C135.264 138.832 135.025 135.737 135.025 135.737L128.326 129.13Z" fill="#E29A4F" stroke="#263238" stroke-linecap="round" stroke-linejoin="round"/>
<path d="M130.733 132.624C130.733 132.624 127.62 134.104 126.73 135.737C125.839 137.37 124.507 138.703 127.62 137.665C130.733 136.627 131.924 132.495 130.733 132.624Z" fill="white" stroke="#263238" stroke-linecap="round" stroke-linejoin="round"/>
<path d="M124.961 135.08C121.314 135.964 119.331 134.859 117.342 135.301C116.908 135.401 116.47 135.475 116.028 135.522C113.203 134.546 110.882 132.9 108.389 131.114C107.432 130.426 106.437 129.714 105.381 129.02C99.0873 124.863 88.8028 122.18 88.3853 122.069C88.2126 122.027 88.0302 122.054 87.8775 122.145C87.7248 122.236 87.6143 122.384 87.5698 122.556C87.5253 122.728 87.5506 122.911 87.64 123.065C87.7295 123.219 87.8759 123.331 88.0476 123.377C88.152 123.377 98.5347 126.109 104.626 130.131C105.657 130.813 106.646 131.519 107.591 132.2C112.405 135.645 119.227 139.409 125.317 137.45C125.455 137.428 125.582 137.363 125.681 137.265C125.78 137.167 125.846 137.041 125.87 136.904C126.809 135.694 124.961 135.08 124.961 135.08Z" fill="white" stroke="#263238" stroke-linecap="round" stroke-linejoin="round"/>
<path d="M125.624 135.878C123.783 136.53 121.803 136.683 119.884 136.32" stroke="#263238" stroke-linecap="round" stroke-linejoin="round"/>
<path d="M84.2224 135.356C84.2224 135.356 81.6682 137.911 82.2576 139.083" stroke="#263238" stroke-linecap="round" stroke-linejoin="round"/>
<path d="M101.31 146.936L98.9523 144.192C98.9523 144.192 100.647 136.897 101.506 134.767C101.915 133.852 102.226 132.898 102.434 131.918C103.048 130.69 103.367 128.541 102.538 127.712C101.807 126.981 100.899 127.872 100.696 128.099H100.665C100.734 127.876 100.75 127.64 100.71 127.41C100.67 127.18 100.576 126.963 100.435 126.777C100.295 126.59 100.112 126.44 99.9027 126.338C99.6929 126.236 99.4618 126.185 99.2286 126.189C97.3374 126.067 95.6673 127.583 95.6673 127.583C95.6673 127.583 95.3296 126.189 94.2674 126.189C93.2052 126.189 91.0746 128.08 90.2457 129.143C90.1843 129.222 90.1291 129.302 90.0677 129.394C88.0783 131.279 84.2408 135.369 84.2408 135.369C84.2408 135.369 85.2232 131.249 86.9854 129.48C88.7476 127.712 93.4631 124.378 92.6772 122.812C91.8913 121.247 89.5396 122.812 89.5396 122.812C89.5396 122.812 78.942 128.498 78.7455 130.856C78.549 133.213 75.7983 143.222 76.7807 144.204C77.7631 145.186 90.9027 153.23 90.9027 153.23C90.9027 153.23 81.2813 172.46 77.7508 180.903C74.2203 189.345 70.6837 197.972 70.2907 205.629C69.8978 213.285 74.5887 218.977 82.6567 218.977C90.7246 218.977 94.2367 213.482 95.4156 202.884C96.5945 192.286 102.28 160.487 102.673 154.992C103.066 149.497 103.649 149.687 101.31 146.936Z" fill="white"/>
<mask id="mask4_63_11469" style="mask-type:luminance" maskUnits="userSpaceOnUse" x="70" y="122" width="34" height="97">
<path d="M101.31 146.936L98.9523 144.192C98.9523 144.192 100.647 136.897 101.506 134.767C101.915 133.852 102.226 132.898 102.434 131.918C103.048 130.69 103.367 128.541 102.538 127.712C101.807 126.981 100.899 127.872 100.696 128.099H100.665C100.734 127.876 100.75 127.64 100.71 127.41C100.67 127.18 100.576 126.963 100.435 126.777C100.295 126.59 100.112 126.44 99.9027 126.338C99.6929 126.236 99.4618 126.185 99.2286 126.189C97.3374 126.067 95.6673 127.583 95.6673 127.583C95.6673 127.583 95.3296 126.189 94.2674 126.189C93.2052 126.189 91.0746 128.08 90.2457 129.143C90.1843 129.222 90.1291 129.302 90.0677 129.394C88.0783 131.279 84.2408 135.369 84.2408 135.369C84.2408 135.369 85.2232 131.249 86.9854 129.48C88.7476 127.712 93.4631 124.378 92.6772 122.812C91.8913 121.247 89.5396 122.812 89.5396 122.812C89.5396 122.812 78.942 128.498 78.7455 130.856C78.549 133.213 75.7983 143.222 76.7807 144.204C77.7631 145.186 90.9027 153.23 90.9027 153.23C90.9027 153.23 81.2813 172.46 77.7508 180.903C74.2203 189.345 70.6837 197.972 70.2907 205.629C69.8978 213.285 74.5887 218.977 82.6567 218.977C90.7246 218.977 94.2367 213.482 95.4156 202.884C96.5945 192.286 102.28 160.487 102.673 154.992C103.066 149.497 103.649 149.687 101.31 146.936Z" fill="white"/>
</mask>
<g mask="url(#mask4_63_11469)">
<path opacity="0.1" d="M95.4095 202.872C96.5883 192.274 102.274 160.475 102.667 154.98C103.06 149.484 103.649 149.681 101.298 146.93L98.94 144.186C98.94 144.186 100.635 136.891 101.494 134.761C101.902 133.846 102.213 132.891 102.421 131.912C102.89 130.932 103.081 129.843 102.974 128.762L102.808 128.989C102.808 128.989 96.0542 143.67 96.4594 146.451C96.7726 148.656 82.2822 145.094 76.7377 144.143V144.186C77.7201 145.162 90.8597 153.211 90.8597 153.211C90.8597 153.211 97.6137 154.783 96.4226 161.132C95.2314 167.481 87.4705 207.385 81.8278 217.006C81.4482 217.647 81.0126 218.253 80.5261 218.817C81.218 218.913 81.9153 218.965 82.6137 218.971C90.7001 218.965 94.2306 213.469 95.4095 202.872Z" fill="black"/>
</g>
<path d="M101.31 146.936L98.9523 144.192C98.9523 144.192 100.647 136.897 101.506 134.767C101.915 133.852 102.226 132.898 102.434 131.918C103.048 130.69 103.367 128.541 102.538 127.712C101.807 126.981 100.899 127.872 100.696 128.099H100.665C100.734 127.876 100.75 127.64 100.71 127.41C100.67 127.18 100.576 126.963 100.435 126.777C100.295 126.59 100.112 126.44 99.9027 126.338C99.6929 126.236 99.4618 126.185 99.2286 126.189C97.3374 126.067 95.6673 127.583 95.6673 127.583C95.6673 127.583 95.3296 126.189 94.2674 126.189C93.2052 126.189 91.0746 128.08 90.2457 129.143C90.1843 129.222 90.1291 129.302 90.0677 129.394C88.0783 131.279 84.2408 135.369 84.2408 135.369C84.2408 135.369 85.2232 131.249 86.9854 129.48C88.7476 127.712 93.4631 124.378 92.6772 122.812C91.8913 121.247 89.5396 122.812 89.5396 122.812C89.5396 122.812 78.942 128.498 78.7455 130.856C78.549 133.213 75.7983 143.222 76.7807 144.204C77.7631 145.186 90.9027 153.23 90.9027 153.23C90.9027 153.23 81.2813 172.46 77.7508 180.903C74.2203 189.345 70.6837 197.972 70.2907 205.629C69.8978 213.285 74.5887 218.977 82.6567 218.977C90.7246 218.977 94.2367 213.482 95.4156 202.884C96.5945 192.286 102.28 160.487 102.673 154.992C103.066 149.497 103.649 149.687 101.31 146.936Z" stroke="#263238" stroke-linecap="round" stroke-linejoin="round"/>
<path d="M95.6489 127.571C95.6489 127.571 91.1729 133.981 90.2273 135.755C89.6049 137.134 89.2427 138.617 89.159 140.127" stroke="#263238" stroke-linecap="round" stroke-linejoin="round"/>
<path d="M94.599 141.902C94.7696 140.099 95.2494 138.34 96.0173 136.701C97.2024 134.098 100.678 128.105 100.678 128.105" stroke="#263238" stroke-linecap="round" stroke-linejoin="round"/>
<path d="M182.708 172.43C182.708 172.43 191.132 207.477 192.814 214.212C194.497 220.948 200.342 231.73 208.938 229.875C217.534 228.021 218.338 217.344 218.148 207.237C217.958 197.131 212.039 174.579 207.827 164.134C203.615 153.69 198.003 145.978 190.266 143.787C182.53 141.595 178.134 142.27 178.134 142.27" fill="white"/>
<mask id="mask5_63_11469" style="mask-type:luminance" maskUnits="userSpaceOnUse" x="178" y="142" width="41" height="89">
<path d="M182.708 172.43C182.708 172.43 191.132 207.477 192.814 214.212C194.497 220.948 200.342 231.73 208.938 229.875C217.534 228.021 218.338 217.344 218.148 207.237C217.958 197.131 212.039 174.579 207.827 164.134C203.615 153.69 198.003 145.978 190.266 143.787C182.53 141.595 178.134 142.27 178.134 142.27" fill="white"/>
</mask>
<g mask="url(#mask5_63_11469)">
<path opacity="0.1" d="M218.173 207.237C218.007 197.131 212.063 174.579 207.851 164.134C203.639 153.69 198.027 145.978 190.291 143.787C188.201 143.189 186.071 142.742 183.918 142.448C187.184 143.836 198.04 149.816 204.388 169.869C211.928 193.674 216.668 211.529 208.754 219.861C204.603 224.221 200.772 224.448 196.781 223.226C199.654 227.579 203.805 230.981 208.938 229.875C217.528 228.021 218.338 217.356 218.173 207.237Z" fill="black"/>
</g>
<path d="M182.708 172.43C182.708 172.43 191.132 207.477 192.814 214.212C194.497 220.948 200.342 231.73 208.938 229.875C217.534 228.021 218.338 217.344 218.148 207.237C217.958 197.131 212.039 174.579 207.827 164.134C203.615 153.69 198.003 145.978 190.266 143.787C182.53 141.595 178.134 142.27 178.134 142.27" stroke="#263238" stroke-linecap="round" stroke-linejoin="round"/>
<path d="M178.956 167.954L122.37 168.85L129.8 188.406H129.879C131.531 193.318 140.182 197.094 150.614 197.094C160.659 197.094 169.034 193.607 171.134 188.946H171.269L178.956 167.954Z" fill="white" stroke="#263238" stroke-linecap="round" stroke-linejoin="round"/>
<path d="M150.614 176.636C166.271 176.636 178.963 172.748 178.963 167.954C178.963 163.159 166.271 159.272 150.614 159.272C134.958 159.272 122.266 163.159 122.266 167.954C122.266 172.748 134.958 176.636 150.614 176.636Z" fill="white" stroke="#263238" stroke-linecap="round" stroke-linejoin="round"/>
<path d="M150.614 175.125C165.27 175.125 177.151 171.692 177.151 167.456C177.151 163.221 165.27 159.787 150.614 159.787C135.958 159.787 124.077 163.221 124.077 167.456C124.077 171.692 135.958 175.125 150.614 175.125Z" fill="white" stroke="#263238" stroke-linecap="round" stroke-linejoin="round"/>
<mask id="mask6_63_11469" style="mask-type:luminance" maskUnits="userSpaceOnUse" x="122" y="152" width="59" height="23">
<path d="M180.209 152.573H122.714V168.451H124.759C126.533 172.135 137.432 174.947 150.626 174.947C163.097 174.947 173.516 172.423 176.12 169.046L176.734 168.34L179.349 167.033L180.209 152.573Z" fill="white"/>
</mask>
<g mask="url(#mask6_63_11469)">
<path d="M124.507 167.401C124.507 167.401 123.279 162.943 124.169 162.796C125.06 162.649 126.502 164.767 127.933 163.336C129.364 161.906 130.444 159.929 132.415 160.107C134.386 160.285 134.208 162.44 135.485 162.44C136.762 162.44 138.353 160.107 139.071 162.618C139.789 165.129 137.843 168.893 136.56 170.324C135.276 171.754 132.44 171.398 128.498 171.398C124.556 171.398 124.507 167.401 124.507 167.401Z" fill="#E29A4F" stroke="#263238" stroke-linecap="round" stroke-linejoin="round"/>
<path d="M128.473 171.398L127.233 166.228" stroke="#263238" stroke-linecap="round" stroke-linejoin="round"/>
<path d="M130.346 171.275L130.647 162.814" stroke="#263238" stroke-linecap="round" stroke-linejoin="round"/>
<path d="M145.782 162.962C145.782 162.962 144.149 160.586 145.487 158.952C146.826 157.319 147.415 158.658 149.939 158.952C152.462 159.247 152.168 156.877 155.133 157.767C158.099 158.658 159.026 160.868 159.886 160.868C160.745 160.868 162.704 159.677 164.484 161.482C166.265 163.287 165.817 164.306 166.707 164.306C167.597 164.306 168.936 163.115 169.231 165.197C169.525 167.278 168.617 168.61 167.155 168.61C165.694 168.61 162.999 166.087 160.18 166.382C157.362 166.676 156.318 167.868 154.243 167.419C152.168 166.971 152.014 165.94 151.124 165.639C150.234 165.338 147.44 165.786 146.212 165.025C144.984 164.263 146.359 162.943 146.359 162.943L145.782 162.962Z" fill="#E29A4F" stroke="#263238" stroke-linecap="round" stroke-linejoin="round"/>
<path d="M153.377 163.275C153.377 163.275 151.744 160.899 153.083 159.265C154.421 157.632 155.01 158.971 157.534 159.265C160.058 159.56 159.763 157.19 162.728 158.08C165.694 158.971 166.59 161.199 167.481 161.199C168.371 161.199 170.299 160.008 172.08 161.813C173.86 163.619 173.418 164.638 174.308 164.638C175.199 164.638 176.531 163.447 176.832 165.528C177.133 167.61 176.218 168.942 174.751 168.942C173.283 168.942 170.594 166.418 167.776 166.713C164.957 167.008 163.92 168.199 161.838 167.751C159.757 167.303 159.615 166.271 158.725 165.97C157.835 165.669 155.041 166.118 153.813 165.356C152.585 164.595 153.961 163.275 153.961 163.275H153.377Z" fill="#E29A4F" stroke="#263238" stroke-linecap="round" stroke-linejoin="round"/>
<path d="M168.494 162.219L167.155 168.604L169.697 169.028L172.055 163.557" fill="#E29A4F"/>
<path d="M168.494 162.219L167.155 168.604L169.697 169.028L172.055 163.557" stroke="#263238" stroke-linecap="round" stroke-linejoin="round"/>
<path d="M161.071 160.143L161.365 163.557" stroke="#263238" stroke-linecap="round" stroke-linejoin="round"/>
<path d="M152.462 167.561C152.462 167.561 150.829 165.191 152.168 163.557C153.506 161.924 154.096 163.256 156.619 163.557C159.143 163.858 158.842 161.476 161.814 162.366C164.785 163.256 165.669 165.485 166.56 165.485C167.45 165.485 169.384 164.3 171.165 166.099C172.945 167.898 172.497 168.918 173.387 168.918C174.278 168.918 175.616 167.733 175.911 169.808C176.206 171.883 175.297 173.222 173.836 173.222C172.374 173.222 169.679 170.698 166.861 170.993C164.042 171.288 162.999 172.479 160.923 172.037C158.848 171.595 158.694 170.551 157.804 170.256C156.914 169.961 154.12 170.403 152.892 169.642C151.664 168.881 153.046 167.561 153.046 167.561H152.462Z" fill="#E29A4F" stroke="#263238" stroke-linecap="round" stroke-linejoin="round"/>
<path d="M153.494 169.329C156.414 169.329 158.78 167.825 158.78 165.97C158.78 164.115 156.414 162.612 153.494 162.612C150.574 162.612 148.207 164.115 148.207 165.97C148.207 167.825 150.574 169.329 153.494 169.329Z" fill="#808080" stroke="#263238" stroke-linecap="round" stroke-linejoin="round"/>
<path d="M153.377 165.375C153.377 165.375 151.916 163.619 152.346 163.207C152.775 162.796 154.802 162.679 155.047 163.281C155.293 163.883 153.377 165.375 153.377 165.375Z" fill="white"/>
<path d="M152.745 165.614C152.745 165.614 149.675 165.313 149.392 164.853C149.11 164.392 150.184 163.287 151.087 163.514C151.99 163.741 152.745 165.614 152.745 165.614Z" fill="white"/>
<path d="M152.622 166.062C152.622 166.062 150.283 167.376 149.552 167.204C148.821 167.033 148.17 165.817 149.03 165.522C149.89 165.227 152.622 166.062 152.622 166.062Z" fill="white"/>
<path d="M153.082 166.394C153.082 166.394 153.162 168.377 152.468 168.623C151.775 168.868 149.902 168.402 150.098 167.794C150.295 167.186 153.082 166.394 153.082 166.394Z" fill="white"/>
<path d="M153.807 166.394C153.807 166.394 156.263 167.622 156.11 168.119C155.956 168.617 154.194 169.224 153.586 168.733C152.978 168.242 153.807 166.394 153.807 166.394Z" fill="white"/>
<path d="M154.267 166.056C154.267 166.056 157.337 165.663 157.823 166.056C158.308 166.449 157.921 167.696 156.951 167.683C155.981 167.671 154.267 166.056 154.267 166.056Z" fill="white"/>
<path d="M154.114 165.608C154.114 165.608 155.606 163.864 156.38 163.864C157.153 163.864 158.424 164.871 157.78 165.338C157.135 165.804 154.114 165.608 154.114 165.608Z" fill="white"/>
<path d="M168.93 172.301C171.85 172.301 174.216 170.797 174.216 168.942C174.216 167.087 171.85 165.583 168.93 165.583C166.01 165.583 163.643 167.087 163.643 168.942C163.643 170.797 166.01 172.301 168.93 172.301Z" fill="#808080" stroke="#263238" stroke-linecap="round" stroke-linejoin="round"/>
<path d="M168.813 168.34C168.813 168.34 167.352 166.59 167.782 166.179C168.211 165.768 170.238 165.651 170.483 166.247C170.729 166.842 168.813 168.34 168.813 168.34Z" fill="white"/>
<path d="M168.181 168.58C168.181 168.58 165.111 168.285 164.828 167.818C164.546 167.352 165.62 166.253 166.523 166.48C167.426 166.707 168.181 168.58 168.181 168.58Z" fill="white"/>
<path d="M168.058 169.028C168.058 169.028 165.712 170.342 164.988 170.176C164.263 170.01 163.606 168.782 164.466 168.488C165.326 168.193 168.058 169.028 168.058 169.028Z" fill="white"/>
<path d="M168.518 169.378C168.518 169.378 168.598 171.361 167.904 171.607C167.211 171.852 165.338 171.386 165.534 170.778C165.731 170.17 168.518 169.378 168.518 169.378Z" fill="white"/>
<path d="M169.243 169.378C169.243 169.378 171.699 170.606 171.545 171.097C171.392 171.588 169.63 172.202 169.022 171.711C168.414 171.22 169.243 169.378 169.243 169.378Z" fill="white"/>
<path d="M169.703 169.028C169.703 169.028 172.773 168.635 173.259 169.028C173.744 169.421 173.357 170.674 172.387 170.655C171.417 170.637 169.703 169.028 169.703 169.028Z" fill="white"/>
<path d="M169.575 168.58C169.575 168.58 171.067 166.836 171.84 166.836C172.614 166.836 173.885 167.843 173.24 168.304C172.595 168.764 169.575 168.58 169.575 168.58Z" fill="white"/>
<path d="M149.202 166.511C149.202 166.511 150.491 162.053 149.552 161.906C148.613 161.758 147.096 163.877 145.635 162.446C144.173 161.015 143.062 159.026 140.974 159.216C138.887 159.407 139.132 161.55 137.806 161.55C136.48 161.55 134.816 159.216 134.067 161.728C133.318 164.239 135.375 168.003 136.683 169.433C137.99 170.864 140.981 170.508 145.082 170.508C149.184 170.508 149.202 166.511 149.202 166.511Z" fill="#E29A4F" stroke="#263238" stroke-linecap="round" stroke-linejoin="round"/>
<path d="M145.082 170.508L146.378 165.338" stroke="#263238" stroke-linecap="round" stroke-linejoin="round"/>
<path d="M143.13 170.385L142.823 161.924" stroke="#263238" stroke-linecap="round" stroke-linejoin="round"/>
<path d="M136.431 172.743C139.35 172.743 141.717 171.239 141.717 169.384C141.717 167.529 139.35 166.026 136.431 166.026C133.511 166.026 131.144 167.529 131.144 169.384C131.144 171.239 133.511 172.743 136.431 172.743Z" fill="#808080" stroke="#263238" stroke-linecap="round" stroke-linejoin="round"/>
<path d="M136.308 168.789C136.308 168.789 134.841 167.033 135.27 166.621C135.7 166.21 137.726 166.093 137.972 166.695C138.218 167.297 136.308 168.789 136.308 168.789Z" fill="white"/>
<path d="M135.694 169.022C135.694 169.022 132.624 168.727 132.342 168.267C132.059 167.806 133.134 166.701 134.036 166.928C134.939 167.155 135.694 169.022 135.694 169.022Z" fill="white"/>
<path d="M135.553 169.464C135.553 169.464 133.213 170.778 132.483 170.606C131.752 170.434 131.101 169.218 131.961 168.924C132.82 168.629 135.553 169.464 135.553 169.464Z" fill="white"/>
<path d="M136.019 169.826C136.019 169.826 136.099 171.809 135.405 172.055C134.712 172.301 132.839 171.834 133.035 171.226C133.232 170.618 136.019 169.826 136.019 169.826Z" fill="white"/>
<path d="M136.738 169.82C136.738 169.82 139.194 171.048 139.04 171.545C138.887 172.043 137.125 172.651 136.523 172.159C135.921 171.668 136.738 169.82 136.738 169.82Z" fill="white"/>
<path d="M137.198 169.464C137.198 169.464 140.268 169.071 140.753 169.464C141.238 169.857 140.858 171.103 139.881 171.091C138.905 171.079 137.198 169.464 137.198 169.464Z" fill="white"/>
<path d="M137.069 169.022C137.069 169.022 138.561 167.278 139.341 167.278C140.121 167.278 141.386 168.285 140.735 168.752C140.084 169.218 137.069 169.022 137.069 169.022Z" fill="white"/>
<path d="M138.297 169.317C138.297 169.317 140.753 165.633 146.82 165.019C146.82 165.019 149.791 165.909 148.6 166.056C147.409 166.204 142.964 165.755 139.39 169.47C135.817 173.185 138.297 169.317 138.297 169.317Z" fill="white" stroke="#263238" stroke-linecap="round" stroke-linejoin="round"/>
<path d="M152.554 170.624C152.554 172.344 150.191 173.744 147.268 173.744C144.345 173.744 141.981 172.344 141.981 170.624C141.981 168.905 144.345 167.511 147.268 167.511C150.191 167.511 152.554 168.905 152.554 170.624Z" fill="#808080" stroke="#263238" stroke-linecap="round" stroke-linejoin="round"/>
<path d="M147.151 170.078C147.151 170.078 145.684 168.451 146.114 168.07C146.543 167.689 148.57 167.585 148.815 168.138C149.061 168.69 147.151 170.078 147.151 170.078Z" fill="white"/>
<path d="M146.513 170.293C146.513 170.293 143.443 170.017 143.166 169.587C142.89 169.157 143.952 168.138 144.861 168.359C145.77 168.58 146.513 170.293 146.513 170.293Z" fill="white"/>
<path d="M146.39 170.692C146.39 170.692 144.051 171.92 143.32 171.754C142.589 171.588 141.938 170.465 142.792 170.189C143.645 169.912 146.39 170.692 146.39 170.692Z" fill="white"/>
<path d="M146.856 171.036C146.856 171.036 146.936 172.878 146.242 173.099C145.549 173.32 143.682 172.896 143.879 172.331C144.075 171.766 146.856 171.036 146.856 171.036Z" fill="white"/>
<path d="M147.575 171.03C147.575 171.03 150.031 172.178 149.884 172.626C149.736 173.074 147.968 173.651 147.36 173.203C146.752 172.755 147.575 171.03 147.575 171.03Z" fill="white"/>
<path d="M148.035 170.692C148.035 170.692 151.105 170.33 151.597 170.692C152.088 171.054 151.695 172.215 150.719 172.202C149.742 172.19 148.035 170.692 148.035 170.692Z" fill="white"/>
<path d="M147.906 170.287C147.906 170.287 149.405 168.672 150.178 168.678C150.952 168.684 152.223 169.611 151.578 170.041C150.933 170.471 147.906 170.287 147.906 170.287Z" fill="white"/>
<path d="M163.981 170.772C163.981 172.497 161.617 173.891 158.694 173.891C155.772 173.891 153.408 172.497 153.408 170.772C153.408 169.046 155.778 167.659 158.694 167.659C161.611 167.659 163.981 169.053 163.981 170.772Z" fill="#808080" stroke="#263238" stroke-linecap="round" stroke-linejoin="round"/>
<path d="M158.578 170.219C158.578 170.219 157.11 168.592 157.546 168.218C157.982 167.843 160.002 167.726 160.248 168.279C160.493 168.832 158.578 170.219 158.578 170.219Z" fill="white"/>
<path d="M157.945 170.44C157.945 170.44 154.875 170.17 154.593 169.734C154.31 169.298 155.379 168.285 156.288 168.506C157.196 168.727 157.945 170.44 157.945 170.44Z" fill="white"/>
<path d="M157.798 170.858C157.798 170.858 155.453 172.086 154.728 171.92C154.003 171.754 153.346 170.631 154.206 170.354C155.066 170.078 157.798 170.858 157.798 170.858Z" fill="white"/>
<path d="M158.283 171.183C158.283 171.183 158.363 173.025 157.669 173.246C156.975 173.467 155.109 173.044 155.305 172.479C155.502 171.914 158.283 171.183 158.283 171.183Z" fill="white"/>
<path d="M159.026 171.183C159.026 171.183 161.482 172.325 161.335 172.78C161.187 173.234 159.419 173.799 158.811 173.351C158.203 172.902 159.026 171.183 159.026 171.183Z" fill="white"/>
<path d="M159.462 170.858C159.462 170.858 162.532 170.489 163.023 170.858C163.514 171.226 163.121 172.38 162.151 172.368C161.181 172.356 159.462 170.858 159.462 170.858Z" fill="white"/>
<path d="M159.339 170.44C159.339 170.44 160.831 168.819 161.605 168.825C162.378 168.831 163.649 169.759 163.005 170.188C162.36 170.618 159.339 170.44 159.339 170.44Z" fill="white"/>
<path d="M152.401 166.056C152.401 166.056 150.854 170.195 145.033 172.135C145.033 172.135 141.963 171.932 143.068 171.521C144.173 171.109 148.631 170.545 151.271 166.13C153.911 161.715 152.401 166.056 152.401 166.056Z" fill="white" stroke="#263238" stroke-linecap="round" stroke-linejoin="round"/>
<path d="M166.486 167.622C166.486 167.622 164.939 171.76 159.118 173.701C159.118 173.701 156.048 173.498 157.153 173.087C158.258 172.675 162.716 172.11 165.356 167.702C167.997 163.293 166.486 167.622 166.486 167.622Z" fill="white" stroke="#263238" stroke-linecap="round" stroke-linejoin="round"/>
<path d="M129.339 172.46C129.339 172.46 125.925 170.68 128.602 170.084C131.279 169.489 132.606 172.755 133.201 171.128C133.797 169.501 134.626 168.549 136.511 169.022C138.396 169.495 136.511 171.073 138.482 171.545C140.452 172.018 138.666 168.402 142.239 170.207C145.813 172.012 144.775 174.241 146.709 174.388C148.643 174.536 148.336 170.827 150.86 171.275C153.383 171.723 152.198 172.313 153.832 172.608C155.465 172.902 155.76 171.275 157.393 172.313C159.026 173.351 160.064 174.388 160.954 173.799C161.844 173.209 161.568 172.46 163.183 172.166C164.798 171.871 164.963 171.275 166.148 169.789C167.333 168.303 169.12 170.403 170.901 170.403C172.681 170.403 172.829 170.403 173.719 168.623C173.965 168.115 174.342 167.681 174.812 167.368C175.281 167.055 175.826 166.874 176.39 166.842C176.39 166.842 177.876 168.322 175.948 170.103C174.02 171.883 166.443 176.04 160.512 176.635C154.581 177.231 146.261 177.968 138.991 176.93C131.721 175.893 129.339 172.46 129.339 172.46Z" fill="#E29A4F" stroke="#263238" stroke-linecap="round" stroke-linejoin="round"/>
<path d="M156.109 168.132C156.109 168.132 158.565 164.448 164.632 163.834C164.632 163.834 167.604 164.724 166.412 164.871C165.221 165.019 160.776 164.577 157.202 168.285C153.629 171.994 156.109 168.132 156.109 168.132Z" fill="white" stroke="#263238" stroke-linecap="round" stroke-linejoin="round"/>
</g>
<path d="M142.626 69.9224C142.626 69.9224 128.596 76.1852 126.662 81.1463C124.728 86.1074 125.802 91.0808 124.071 96.6928C122.34 102.305 118.674 105.111 121.48 113.099C124.286 121.087 134.006 124.538 137.892 126.269C141.579 127.915 145.76 128.069 149.558 126.699C153.242 125.403 164.239 116.985 164.239 116.985C164.239 116.985 165.32 118.496 170.066 116.771C174.812 115.045 177.434 106.406 176.114 102.52C174.794 98.633 168.985 101.439 168.985 101.439C168.985 101.439 140.901 84.818 142.626 69.9224Z" fill="white"/>
<mask id="mask7_63_11469" style="mask-type:luminance" maskUnits="userSpaceOnUse" x="120" y="69" width="57" height="59">
<path d="M142.626 69.9224C142.626 69.9224 128.596 76.1852 126.662 81.1463C124.728 86.1074 125.802 91.0808 124.071 96.6928C122.34 102.305 118.674 105.111 121.48 113.099C124.286 121.087 134.006 124.538 137.892 126.269C141.579 127.915 145.76 128.069 149.558 126.699C153.242 125.403 164.239 116.985 164.239 116.985C164.239 116.985 165.32 118.496 170.066 116.771C174.812 115.045 177.434 106.406 176.114 102.52C174.794 98.633 168.985 101.439 168.985 101.439C168.985 101.439 140.901 84.818 142.626 69.9224Z" fill="white"/>
</mask>
<g mask="url(#mask7_63_11469)">
<path opacity="0.1" d="M168.961 101.439C164.176 98.4998 159.641 95.1708 155.403 91.4861C156.576 95.8271 158.965 105.768 158.357 112.724C157.565 121.848 149.233 125.422 142.092 126.232C141.134 126.337 140.667 126.681 140.569 127.19C143.54 127.909 146.656 127.743 149.534 126.711C153.218 125.416 164.214 116.998 164.214 116.998C164.214 116.998 165.295 118.508 170.041 116.783C174.787 115.058 177.409 106.419 176.089 102.532C174.769 98.6453 168.961 101.439 168.961 101.439Z" fill="black"/>
</g>
<path d="M142.626 69.9224C142.626 69.9224 128.596 76.1852 126.662 81.1463C124.728 86.1074 125.802 91.0808 124.071 96.6928C122.34 102.305 118.674 105.111 121.48 113.099C124.286 121.087 134.006 124.538 137.892 126.269C141.579 127.915 145.76 128.069 149.558 126.699C153.242 125.403 164.239 116.985 164.239 116.985C164.239 116.985 165.32 118.496 170.066 116.771C174.812 115.045 177.434 106.406 176.114 102.52C174.794 98.633 168.985 101.439 168.985 101.439C168.985 101.439 140.901 84.818 142.626 69.9224Z" stroke="#263238" stroke-linecap="round" stroke-linejoin="round"/>
<path d="M137.014 93.4508C136.704 95.0456 135.867 96.49 134.638 97.5523C132.698 99.0628 131.187 100.143 133.127 101.85C135.068 103.557 136.584 102.925 136.584 102.925" stroke="#263238" stroke-linecap="round" stroke-linejoin="round"/>
<path d="M134.423 108.782C134.423 108.782 137.88 111.152 142.841 107.702" stroke="#263238" stroke-linecap="round" stroke-linejoin="round"/>
<path d="M142.411 105.976C142.411 105.976 141.981 107.051 143.922 108.997" stroke="#263238" stroke-linecap="round" stroke-linejoin="round"/>
<path d="M127.945 93.6657C128.848 93.0597 129.919 92.7548 131.005 92.7945C132.091 92.8342 133.137 93.2165 133.993 93.8867" stroke="#263238" stroke-linecap="round" stroke-linejoin="round"/>
<path d="M143.062 94.3166C143.062 94.3166 145.653 91.9404 149.54 94.7464" stroke="#263238" stroke-linecap="round" stroke-linejoin="round"/>
<path d="M128.16 87.6239C128.16 87.6239 131.187 83.7373 135.068 85.4626" stroke="#263238" stroke-width="3" stroke-linecap="round" stroke-linejoin="round"/>
<path d="M140.901 85.6837C140.901 85.6837 145.002 83.3075 148.674 87.6239" stroke="#263238" stroke-width="3" stroke-linecap="round" stroke-linejoin="round"/>
<path d="M212.696 217.245C211.062 214.484 208.839 212.118 206.186 210.313C203.532 208.509 200.514 207.312 197.346 206.807C186.398 204.965 176.12 204.615 172.411 202.761C168.703 200.907 166.855 196.867 164.828 194.165C162.443 191.251 159.597 188.745 156.404 186.748C153.881 185.232 152.53 186.417 153.033 188.099C153.537 189.781 155.397 190.794 156.717 192.814C157.586 194.215 158.209 195.754 158.559 197.364C158.559 197.364 155.36 197.868 148.784 193.324C142.209 188.78 137.333 185.569 136.658 187.086C136.254 187.923 136.135 188.87 136.32 189.781C136.32 189.781 133.115 187.761 132.636 189.953C132.157 192.145 136.173 196.707 136.173 196.707C136.173 196.707 137.358 198.396 139.206 200.753C141.659 204.118 145.185 206.547 149.202 207.643C154.765 209.325 159.48 210.841 162.514 212.192C165.547 213.543 184.077 227.186 196.044 230.895C208.011 234.603 213.568 229.544 215.753 225.332C217.075 222.672 217.601 219.687 217.27 216.736" fill="white"/>
<mask id="mask8_63_11469" style="mask-type:luminance" maskUnits="userSpaceOnUse" x="132" y="186" width="86" height="47">
<path d="M212.696 217.245C211.062 214.484 208.839 212.118 206.186 210.313C203.532 208.509 200.514 207.312 197.346 206.807C186.398 204.965 176.12 204.615 172.411 202.761C168.703 200.907 166.855 196.867 164.828 194.165C162.443 191.251 159.597 188.745 156.404 186.748C153.881 185.232 152.53 186.417 153.033 188.099C153.537 189.781 155.397 190.794 156.717 192.814C157.586 194.215 158.209 195.754 158.559 197.364C158.559 197.364 155.36 197.868 148.784 193.324C142.209 188.78 137.333 185.569 136.658 187.086C136.254 187.923 136.135 188.87 136.32 189.781C136.32 189.781 133.115 187.761 132.636 189.953C132.157 192.145 136.173 196.707 136.173 196.707C136.173 196.707 137.358 198.396 139.206 200.753C141.659 204.118 145.185 206.547 149.202 207.643C154.765 209.325 159.48 210.841 162.514 212.192C165.547 213.543 184.077 227.186 196.044 230.895C208.011 234.603 213.568 229.544 215.753 225.332C217.075 222.672 217.601 219.687 217.27 216.736" fill="white"/>
</mask>
<g mask="url(#mask8_63_11469)">
<path opacity="0.1" d="M217.245 216.742L212.696 217.245C212.35 216.602 211.956 215.987 211.517 215.403C210.899 217.052 209.96 218.561 208.754 219.843C200.815 228.175 193.944 221.421 185.342 218.259C176.74 215.096 159.554 206.353 150.823 206.752C149.372 206.818 147.919 206.77 146.476 206.611C147.353 207.008 148.255 207.347 149.177 207.624C154.74 209.306 159.456 210.823 162.489 212.174C165.522 213.525 184.053 227.168 196.019 230.876C207.986 234.585 213.543 229.525 215.729 225.313C217.046 222.661 217.572 219.685 217.245 216.742Z" fill="black"/>
</g>
<path d="M212.696 217.245C211.062 214.484 208.839 212.118 206.186 210.313C203.532 208.509 200.514 207.312 197.346 206.807C186.398 204.965 176.12 204.615 172.411 202.761C168.703 200.907 166.855 196.867 164.828 194.165C162.443 191.251 159.597 188.745 156.404 186.748C153.881 185.232 152.53 186.417 153.033 188.099C153.537 189.781 155.397 190.794 156.717 192.814C157.586 194.215 158.209 195.754 158.559 197.364C158.559 197.364 155.36 197.868 148.784 193.324C142.209 188.78 137.333 185.569 136.658 187.086C136.254 187.923 136.135 188.87 136.32 189.781C136.32 189.781 133.115 187.761 132.636 189.953C132.157 192.145 136.173 196.707 136.173 196.707C136.173 196.707 137.358 198.396 139.206 200.753C141.659 204.118 145.185 206.547 149.202 207.643C154.765 209.325 159.48 210.841 162.514 212.192C165.547 213.543 184.077 227.186 196.044 230.895C208.011 234.603 213.568 229.544 215.753 225.332C217.075 222.672 217.601 219.687 217.27 216.736" stroke="#263238" stroke-linecap="round" stroke-linejoin="round"/>
<path d="M136.376 189.781C136.376 189.781 143.559 195.829 145.193 197.278C146.39 198.262 147.732 199.056 149.171 199.63" stroke="#263238" stroke-linecap="round" stroke-linejoin="round"/>
<path d="M134.141 192.931C134.141 192.931 141.024 200.913 145.555 202.89" stroke="#263238" stroke-linecap="round" stroke-linejoin="round"/>
</svg>
