<svg width="305" height="305" viewBox="0 0 305 305" fill="none" xmlns="http://www.w3.org/2000/svg">
<path d="M51.9781 45.5609H35.8253V52.3868H51.9781V45.5609Z" fill="#EBEBEB"/>
<path d="M42.9684 36.9539H26.8156V43.7798H42.9684V36.9539Z" fill="#EBEBEB"/>
<path d="M60.9878 36.9539H44.835V43.7798H60.9878V36.9539Z" fill="#EBEBEB"/>
<path d="M269.175 36.9539H253.022V43.7798H269.175V36.9539Z" fill="#EBEBEB"/>
<path d="M269.175 221.143H253.022V227.969H269.175V221.143Z" fill="#EBEBEB"/>
<path d="M278.184 212.536H262.032V219.362H278.184V212.536Z" fill="#EBEBEB"/>
<path d="M42.9684 221.137H26.8156V227.963H42.9684V221.137Z" fill="#EBEBEB"/>
<path d="M71.3212 146.748H87.474V139.922H71.3212V146.748Z" fill="#EBEBEB"/>
<path d="M80.3309 155.355H96.4837V148.529H80.3309V155.355Z" fill="#EBEBEB"/>
<path d="M51.5145 0H50.7947V66.5815H51.5145V0Z" fill="#C7C7C7"/>
<path d="M72.1569 86.8274L70.4672 90.5423H31.8359L30.1523 86.8274L46.5979 75.4448H55.7113L72.1569 86.8274Z" fill="#EBEBEB"/>
<path d="M56.852 64.4771L55.7113 75.4449H46.5979L45.4572 64.4771H56.852Z" fill="#DBDBDB"/>
<path d="M72.1569 86.8335L70.4672 90.5423H31.8359L30.1523 86.8335H72.1569Z" fill="#DBDBDB"/>
<path d="M102.309 0H101.589V54.6011H102.309V0Z" fill="#C7C7C7"/>
<path d="M122.952 74.847L121.262 78.5619H82.6306L80.947 74.847L97.3926 63.4644H106.506L122.952 74.847Z" fill="#EBEBEB"/>
<path d="M107.647 52.4966L106.506 63.4644H97.3926L96.2519 52.4966H107.647Z" fill="#DBDBDB"/>
<path d="M122.952 74.8531L121.262 78.5619H82.6306L80.947 74.8531H122.952Z" fill="#DBDBDB"/>
<path d="M259.884 47.9094H220.241V87.5533H259.884V47.9094Z" fill="white"/>
<path d="M218.179 45.8477V89.6152H261.946V45.8477H218.179ZM259.86 87.5534H220.21V47.9034H259.86V87.5534Z" fill="#DBDBDB"/>
<path d="M257.036 79.8734V66.1667H226.139V79.8734H257.036Z" fill="#EBEBEB"/>
<path d="M247.977 75.6461V59.8167H232.148V75.6461H247.977Z" fill="#C7C7C7"/>
<path d="M263.636 45.8477H261.946V89.6152H263.636V45.8477Z" fill="#C7C7C7"/>
<path d="M259.884 104.2H220.241V143.844H259.884V104.2Z" fill="white"/>
<path d="M237.406 110.544H227.054V140.446H237.406V110.544Z" fill="#C7C7C7"/>
<path d="M218.179 102.138V145.906H261.946V102.138H218.179ZM259.86 143.844H220.21V104.194H259.86V143.844Z" fill="#DBDBDB"/>
<path d="M247.977 116.107H232.148V131.937H247.977V116.107Z" fill="#EBEBEB"/>
<path d="M263.636 102.138H261.946V145.906H263.636V102.138Z" fill="#C7C7C7"/>
<path d="M259.884 160.491H220.241V200.135H259.884V160.491Z" fill="white"/>
<path d="M246.391 165.896H224.639V178.901H246.391V165.896Z" fill="#EBEBEB"/>
<path d="M218.179 158.429V202.197H261.946V158.429H218.179ZM259.86 200.135H220.21V160.485H259.86V200.135Z" fill="#DBDBDB"/>
<path d="M247.977 172.398H232.148V188.228H247.977V172.398Z" fill="#C7C7C7"/>
<path d="M263.636 158.429H261.946V202.197H263.636V158.429Z" fill="#C7C7C7"/>
<path d="M200.513 281.356C240.944 281.356 273.719 277.628 273.719 273.03C273.719 268.431 240.944 264.703 200.513 264.703C160.082 264.703 127.307 268.431 127.307 273.03C127.307 277.628 160.082 281.356 200.513 281.356Z" fill="#EBEBEB"/>
<path d="M18.7087 263.52L52.155 263.374L85.6074 263.319L152.5 263.215L219.393 263.319L252.845 263.367L286.291 263.52L252.845 263.666L219.393 263.721L152.5 263.825L85.6074 263.721L52.155 263.666L18.7087 263.52Z" fill="#263238"/>
<path d="M165.383 263.52H112.374C110.703 245.549 109.025 227.134 107.695 212.451C107.653 211.963 107.604 211.475 107.561 210.993C106.061 194.383 105.042 182.902 105.042 182.902H155.062C155.066 182.953 155.066 183.004 155.062 183.055C155.434 185.776 160.528 225.474 165.383 263.52Z" fill="#37474F"/>
<path d="M120.408 263.52H119.56C117.248 244.061 115.369 224.565 113.661 205.045C113.564 203.878 113.462 202.709 113.356 201.538C113.015 197.53 112.673 193.504 112.344 189.49C112.344 189.368 112.521 189.368 112.539 189.49C112.913 193.049 113.275 196.599 113.625 200.141C113.628 200.151 113.628 200.162 113.625 200.172C113.747 201.465 113.881 202.752 114.009 204.051C115.369 217.52 116.717 230.977 118.194 244.427C118.897 250.799 119.635 257.164 120.408 263.52Z" fill="#263238"/>
<path d="M147.84 182.902L141.13 227.262L140.892 228.762L140.282 232.758L140.233 233.038L140.074 234.112L135.609 263.52H107.134C104.212 247.05 101.223 230.165 98.7468 216.154C98.6919 215.836 98.637 215.544 98.5821 215.226C95.2454 196.371 92.8603 182.896 92.8603 182.896L147.84 182.902Z" fill="#263238"/>
<path d="M155.111 182.86C155.111 182.86 155.111 182.921 155.08 183.055C154.684 185.641 150.377 213.378 143.222 231.58C143.173 231.733 143.118 231.873 143.051 232.032C143.051 232.032 142.045 232.343 140.227 233.063C139.519 233.343 138.677 233.673 137.726 234.1L136.689 234.563C134.59 235.503 132.047 236.735 129.143 238.309C128.862 238.455 128.588 238.608 128.313 238.76C128.313 238.76 128.313 238.876 128.313 239.09C128.167 240.999 127.423 250.795 126.483 263.49H76.5489C80.3919 223.882 84.6131 182.829 84.6131 182.829L155.111 182.86Z" fill="#37474F"/>
<path d="M90.2007 190.576C88.7794 209.157 87.4191 227.737 85.9307 246.294C85.4671 252.036 84.9913 257.778 84.5033 263.52H83.7713C85.8819 239.21 87.8888 214.899 89.792 190.588C89.8042 190.32 90.219 190.32 90.2007 190.576Z" fill="#263238"/>
<path d="M145.576 230.726C139.6 232.902 133.824 235.592 128.313 238.766C128.29 238.777 128.269 238.792 128.251 238.81C128.233 238.829 128.219 238.851 128.209 238.875C128.2 238.899 128.196 238.925 128.196 238.951C128.197 238.976 128.202 239.002 128.213 239.026C128.223 239.049 128.238 239.07 128.257 239.088C128.276 239.106 128.298 239.12 128.322 239.13C128.346 239.139 128.371 239.143 128.397 239.143C128.423 239.142 128.448 239.137 128.472 239.126C134.285 236.625 140.215 234.246 145.888 231.422C145.98 231.381 146.052 231.304 146.088 231.21C146.124 231.116 146.121 231.011 146.08 230.919C146.038 230.826 145.962 230.754 145.868 230.718C145.774 230.682 145.669 230.685 145.576 230.726Z" fill="#263238"/>
<path d="M147.425 190.82C147.425 190.619 147.053 190.576 147.059 190.82C147.101 197.725 146.662 203.795 146.083 210.249C145.808 213.244 143.399 229.799 138.208 228.591C137.335 228.39 136.89 227.536 136.756 226.225C136.591 224.651 137.183 222.717 137.445 221.149C138.055 217.678 138.488 214.202 138.781 210.706C139.386 204.187 139.317 197.624 138.574 191.119C138.566 191.08 138.545 191.045 138.515 191.02C138.484 190.994 138.446 190.98 138.406 190.98C138.366 190.98 138.328 190.994 138.297 191.02C138.267 191.045 138.246 191.08 138.238 191.119C138.238 200.165 138.006 209.193 136.652 218.154C136.006 222.461 133.834 228.945 138.342 229.604C142.85 230.263 145.894 219.423 146.455 216.452C148.016 208.156 148.077 199.208 147.425 190.82Z" fill="#263238"/>
<path d="M138.342 229.012C137.881 230.131 137.492 231.278 137.177 232.447C136.841 233.348 136.675 234.303 136.689 235.265C136.696 235.303 136.715 235.338 136.742 235.366C136.77 235.394 136.805 235.414 136.843 235.422C136.881 235.43 136.921 235.427 136.957 235.414C136.994 235.4 137.026 235.376 137.049 235.344C137.592 234.496 138.003 233.57 138.269 232.599C138.665 231.538 139.08 230.482 139.446 229.409C139.455 229.277 139.42 229.145 139.348 229.034C139.275 228.923 139.168 228.839 139.044 228.794C138.919 228.749 138.783 228.746 138.656 228.786C138.53 228.825 138.419 228.905 138.342 229.012Z" fill="#263238"/>
<path d="M114.839 196.237C114.848 195.515 114.775 194.795 114.619 194.09C114.613 194.066 114.6 194.045 114.58 194.029C114.561 194.014 114.537 194.006 114.512 194.006C114.488 194.006 114.464 194.014 114.444 194.029C114.425 194.045 114.411 194.066 114.405 194.09C114.26 194.689 114.181 195.303 114.168 195.92C114.094 196.634 113.997 197.341 113.924 198.055C113.768 199.512 113.513 200.957 113.161 202.38C112.506 205.07 111.136 207.534 109.196 209.511C107.267 211.404 104.988 212.904 102.486 213.927C99.6984 215.11 96.7582 215.55 93.879 216.398C93.757 216.428 93.7936 216.605 93.879 216.611C97.0763 216.603 100.242 215.982 103.206 214.781C105.824 213.797 108.207 212.276 110.203 210.316C112.205 208.295 113.615 205.763 114.277 202.996C114.611 201.573 114.799 200.12 114.839 198.659C114.887 197.852 114.887 197.044 114.839 196.237Z" fill="#263238"/>
<path d="M133.669 118.95C137.689 127.954 166.951 169.665 190.466 174.704C194.431 175.552 206.735 179.444 213.854 169.275C223.473 155.544 229.61 129.247 228.262 115.223C227.146 103.633 195.456 112.325 193.59 118.926C192.18 123.921 189.673 140.312 188.649 140.05C181.987 138.33 162.144 121.14 142.368 110.556C133.2 105.615 130.577 111.99 133.669 118.95Z" fill="#AD6359"/>
<path d="M186.703 147.175C186.84 146.149 187.029 145.131 187.27 144.125C187.774 142.185 188.456 140.297 189.307 138.482C189.344 138.403 189.49 138.452 189.46 138.543C188.85 140.416 188.405 142.362 187.904 144.271C187.66 145.223 187.429 146.168 187.215 147.126C187.002 148.084 186.733 149.078 186.568 150.066C186.568 150.121 186.459 150.115 186.465 150.066C186.532 149.084 186.568 148.132 186.703 147.175Z" fill="#263238"/>
<path d="M228.408 117.364C228.408 117.364 227.884 102.175 222.436 92.0734C218.673 85.0889 208.785 70.8088 185.123 69.8938C179.511 69.6803 171.355 73.3525 180.395 77.0308C186.819 79.6477 191.68 79.3671 195.139 81.5692C195.139 81.5692 185.324 87.474 185.324 93.1043C185.324 95.6236 184.952 101.077 185.843 106.408C185.843 106.408 187.593 107.939 189.149 107.872C189.149 107.872 189.32 113.143 195.249 118.584L228.408 117.364Z" fill="#AD6359"/>
<path d="M156.16 85.6746C153.281 87.6144 151.707 92.1955 154.025 96.5509C156.343 100.906 162.211 100.351 165.005 98.4419C167.799 96.5326 170.16 91.7685 167.774 87.7059C165.755 84.1801 161.229 82.2769 156.16 85.6746Z" fill="#E29A4F"/>
<path opacity="0.1" d="M156.16 85.6746C153.281 87.6144 151.707 92.1955 154.025 96.5509C156.343 100.906 162.211 100.351 165.005 98.4419C167.799 96.5326 170.16 91.7685 167.774 87.7059C165.755 84.1801 161.229 82.2769 156.16 85.6746Z" fill="black"/>
<path d="M157.038 86.8152C154.69 88.3951 153.409 92.1405 155.3 95.6968C157.191 99.2531 162.01 98.8017 164.279 97.2401C166.548 95.6785 168.494 91.7928 166.548 88.4683C164.865 85.5891 161.168 84.0397 157.038 86.8152Z" fill="#E29A4F"/>
<path d="M161.955 88.7916C162.162 88.9563 162.907 88.3341 162.498 88.0413C162.089 87.7485 161.687 88.5842 161.955 88.7916Z" fill="white"/>
<path d="M163.693 92.8726C163.59 93.1105 164.377 93.6778 164.56 93.2081C164.743 92.7384 163.834 92.5554 163.693 92.8726Z" fill="white"/>
<path d="M165.438 91.2866C165.481 91.5428 166.451 91.5855 166.347 91.0914C166.243 90.5973 165.383 90.945 165.438 91.2866Z" fill="white"/>
<path d="M161.906 87.0043C162.162 86.9616 162.211 85.9978 161.717 86.0954C161.223 86.193 161.565 87.0592 161.906 87.0043Z" fill="white"/>
<path d="M157.264 90.3838C157.331 90.1337 156.465 89.6945 156.355 90.1886C156.245 90.6827 157.173 90.7193 157.264 90.3838Z" fill="white"/>
<path d="M159.338 95.77C159.125 95.6175 158.411 96.2702 158.832 96.5447C159.253 96.8192 159.619 95.9774 159.338 95.77Z" fill="white"/>
<path d="M161.04 95.4468C160.784 95.4041 160.43 96.3069 160.93 96.3679C161.43 96.4289 161.382 95.5017 161.04 95.4468Z" fill="white"/>
<path d="M159.253 91.6281C159.436 91.4451 158.899 90.6338 158.563 91.0181C158.228 91.4024 159.009 91.8721 159.253 91.6281Z" fill="white"/>
<path d="M154.031 92.2991C154.031 92.2991 158.759 91.7745 159.381 92.7322C160.003 93.6899 156.642 97.8989 156.087 97.5268C155.532 97.1547 153.519 93.8973 154.031 92.2991Z" fill="#E29A4F"/>
<path opacity="0.1" d="M154.031 92.2991C154.031 92.2991 158.759 91.7745 159.381 92.7322C160.003 93.6899 156.642 97.8989 156.087 97.5268C155.532 97.1547 153.519 93.8973 154.031 92.2991Z" fill="black"/>
<path d="M162.114 98.5699C162.114 98.5699 160.717 94.0193 161.546 93.2324C162.376 92.4455 167.128 94.9587 166.872 95.5748C166.615 96.1909 163.779 98.7712 162.114 98.5699Z" fill="#E29A4F"/>
<path opacity="0.1" d="M162.114 98.5699C162.114 98.5699 160.717 94.0193 161.546 93.2324C162.376 92.4455 167.128 94.9587 166.872 95.5748C166.615 96.1909 163.779 98.7712 162.114 98.5699Z" fill="black"/>
<path d="M168.134 90.1885C168.134 90.1885 163.51 91.3109 162.772 90.4386C162.034 89.5663 164.828 84.9486 165.426 85.2658C166.024 85.583 168.433 88.5354 168.134 90.1885Z" fill="#E29A4F"/>
<path opacity="0.1" d="M168.134 90.1885C168.134 90.1885 163.51 91.3109 162.772 90.4386C162.034 89.5663 164.828 84.9486 165.426 85.2658C166.024 85.583 168.433 88.5354 168.134 90.1885Z" fill="black"/>
<path d="M160.296 84.6558C160.296 84.6558 161.424 89.2796 160.552 90.0177C159.68 90.7558 155.062 87.962 155.373 87.3642C155.684 86.7664 158.649 84.3508 160.296 84.6558Z" fill="#E29A4F"/>
<path opacity="0.1" d="M160.296 84.6558C160.296 84.6558 161.424 89.2796 160.552 90.0177C159.68 90.7558 155.062 87.962 155.373 87.3642C155.684 86.7664 158.649 84.3508 160.296 84.6558Z" fill="black"/>
<path d="M170.013 92.409C167.787 93.2569 157.13 95.3797 157.13 95.3797L157.337 94.8734L168.763 91.3171C168.845 91.2854 168.912 91.2237 168.95 91.1445C168.989 91.0652 168.996 90.9743 168.97 90.8901C168.957 90.8458 168.935 90.8047 168.905 90.7692C168.876 90.7337 168.84 90.7045 168.799 90.6834C168.758 90.6623 168.713 90.6497 168.667 90.6465C168.621 90.6432 168.574 90.6493 168.531 90.6644L157.85 93.5924L158.185 92.7811L169.873 88.9625C169.922 88.9536 169.969 88.9344 170.01 88.9061C170.052 88.8778 170.086 88.841 170.113 88.7982C170.139 88.7554 170.155 88.7075 170.161 88.6578C170.168 88.6081 170.163 88.5576 170.148 88.5098C170.134 88.4619 170.109 88.4177 170.076 88.3801C170.042 88.3426 170.002 88.3125 169.956 88.2918C169.91 88.2712 169.861 88.2605 169.811 88.2604C169.761 88.2604 169.711 88.271 169.665 88.2915L158.728 91.4757L159.051 90.701L171.007 86.5896C171.052 86.5771 171.094 86.5556 171.13 86.5265C171.166 86.4973 171.196 86.461 171.218 86.4199C171.24 86.3788 171.253 86.3337 171.256 86.2873C171.26 86.241 171.254 86.1944 171.239 86.1504C171.227 86.1064 171.205 86.0654 171.177 86.0299C171.148 85.9944 171.112 85.9652 171.071 85.944C171.031 85.9229 170.986 85.9103 170.941 85.9069C170.895 85.9036 170.849 85.9097 170.806 85.9247L159.582 89.4078L159.857 88.749C159.857 88.749 171.105 84.4058 172.435 84.1496C174.832 83.6799 173.386 91.128 170.013 92.409Z" fill="#455A64"/>
<path d="M172.49 86.2479C174.051 85.5342 180.462 82.7099 181.219 82.4171C182.097 82.0755 213.165 69.9914 214.403 69.9548C215.641 69.9182 215.08 74.1699 214.366 75.0666C213.653 75.9633 184.22 84.0702 181.255 85.2414C178.151 86.4614 172.313 88.9014 172.313 88.9014L172.49 86.2479Z" fill="#455A64"/>
<path d="M220.735 91.2866C217.361 88.8466 210.115 83.8385 202.758 81.7889C194.59 79.5136 178.242 77.3359 176.625 83.381C175.436 87.8157 181.609 89.2004 181.609 89.2004C181.609 89.2004 174.661 89.7189 174.466 93.9584C174.289 97.8258 179.12 98.6066 179.12 98.6066C179.12 98.6066 174.96 99.6497 175.509 103.407C176.168 107.921 184.775 104.993 189.393 108.995C190.43 109.892 220.735 91.2866 220.735 91.2866Z" fill="#AD6359"/>
<path d="M201.794 90.823C198.25 89.0601 189.155 87.1264 181.731 89.0601C181.56 89.1028 181.505 89.2553 181.664 89.2492C188.416 88.9741 195.175 89.5231 201.794 90.884C201.818 90.8901 201.837 90.8413 201.794 90.823Z" fill="#263238"/>
<path d="M199.263 99.003C196.042 97.783 186.581 96.2214 179.133 98.454C178.962 98.5028 178.919 98.6553 179.078 98.6431C185.797 98.0243 192.564 98.1696 199.25 99.0762C199.287 99.0884 199.299 99.0152 199.263 99.003Z" fill="#263238"/>
<path d="M153.842 149.212L184.83 132.675C184.83 132.675 154.116 113.96 139.946 108.58C125.178 102.95 119.59 107.092 132.888 123.257C145.985 139.153 153.842 149.212 153.842 149.212Z" fill="#E29A4F"/>
<path d="M182.286 131.15C181.694 131.307 181.114 131.511 180.554 131.76C179.722 132.12 178.943 132.594 178.242 133.169C179.138 133.036 180.011 132.777 180.835 132.401C181.48 132.123 182.093 131.778 182.665 131.37C182.536 131.309 182.39 131.229 182.286 131.15ZM149.639 135.768C148.806 136.123 148.029 136.598 147.333 137.177C148.228 137.041 149.098 136.781 149.92 136.402C150.754 136.049 151.533 135.576 152.232 134.999C151.334 135.127 150.461 135.386 149.639 135.768ZM164.316 138.549C163.96 137.718 163.488 136.941 162.913 136.244C163.044 137.14 163.303 138.013 163.681 138.836C164.035 139.667 164.507 140.442 165.084 141.136C164.955 140.241 164.696 139.37 164.316 138.549ZM137.86 125.203C137.5 124.374 137.026 123.6 136.451 122.903C136.585 123.797 136.846 124.668 137.226 125.489C137.577 126.323 138.05 127.1 138.629 127.795C138.497 126.899 138.238 126.026 137.86 125.203ZM130.54 112.49C129.7 112.162 128.816 111.956 127.917 111.88C128.643 112.419 129.442 112.853 130.29 113.167C131.131 113.492 132.014 113.697 132.913 113.777C132.187 113.238 131.388 112.805 130.54 112.49ZM151.847 121.64C151.006 121.301 150.121 121.086 149.218 121C149.945 121.542 150.747 121.977 151.597 122.293C152.439 122.618 153.322 122.823 154.22 122.903C153.508 122.364 152.724 121.929 151.89 121.61L151.847 121.64ZM144.314 110.41C143.99 111.22 143.785 112.073 143.704 112.942C144.217 112.257 144.628 111.5 144.924 110.697L144.314 110.41ZM165.432 126.416C165.107 127.258 164.902 128.141 164.822 129.039C165.886 127.57 166.549 125.848 166.743 124.044C166.197 124.762 165.756 125.555 165.432 126.398V126.416Z" fill="white"/>
<path d="M153.11 142.74C153.799 142.264 154.568 141.88 155.294 141.465C156.02 141.05 156.794 140.617 157.545 140.19C159.07 139.33 160.595 138.494 162.144 137.665C165.194 136.012 168.287 134.34 171.392 132.742C172.246 132.297 173.1 131.864 173.966 131.443C174.832 131.022 175.796 130.625 176.723 130.186C176.733 130.185 176.744 130.188 176.753 130.193C176.761 130.198 176.768 130.206 176.773 130.216C176.777 130.225 176.778 130.236 176.775 130.246C176.773 130.256 176.767 130.265 176.76 130.272C176.015 130.705 175.296 131.205 174.551 131.638C173.807 132.071 173.008 132.529 172.233 132.956C170.704 133.797 169.165 134.625 167.616 135.438C164.566 137.049 161.516 138.671 158.466 140.215L155.855 141.52C154.958 141.971 154.068 142.478 153.128 142.844C153.11 142.862 153.037 142.795 153.11 142.74Z" fill="#263238"/>
<path d="M132.888 123.22C145.985 139.147 153.842 149.2 153.842 149.2L163.742 143.917L126.532 107.061C123.964 109.031 125.544 114.296 132.888 123.22Z" fill="#263238"/>
<path d="M160.9 209.986L78.7693 215.171C78.7693 215.171 86.376 136.03 114.954 107.305C118.486 103.761 126.971 103.981 132.644 106.372C134.676 107.22 142.356 116.65 144.954 125.892C147.553 135.133 161.101 209.694 160.9 209.986Z" fill="#E29A4F"/>
<path d="M106.896 130.54C106.063 130.896 105.285 131.369 104.584 131.943C105.483 131.808 106.357 131.541 107.177 131.15C108.012 130.797 108.79 130.324 109.489 129.747C108.592 129.887 107.719 130.154 106.896 130.54ZM147.431 137.128C147.396 137.151 147.363 137.178 147.333 137.207C147.368 137.211 147.402 137.211 147.437 137.207C147.437 137.207 147.431 137.116 147.431 137.098V137.128ZM126.88 150.804C126.047 151.16 125.268 151.632 124.568 152.207C125.464 152.074 126.337 151.815 127.161 151.439C127.992 151.084 128.769 150.611 129.466 150.036C128.571 150.163 127.7 150.422 126.88 150.804ZM117.852 185.538C117.02 185.895 116.244 186.37 115.546 186.947C116.443 186.818 117.317 186.559 118.139 186.178C118.97 185.819 119.746 185.345 120.444 184.769C119.548 184.9 118.675 185.159 117.852 185.538ZM97.5634 162.968C96.7338 163.327 95.9579 163.799 95.2576 164.371C96.1546 164.242 97.028 163.983 97.8501 163.602C98.6809 163.245 99.4571 162.773 100.156 162.199C99.258 162.34 98.3849 162.609 97.5634 162.998V162.968ZM83.6981 211.359C82.8658 211.713 82.0892 212.186 81.3923 212.762C82.2893 212.633 83.1627 212.374 83.9848 211.993C84.8165 211.636 85.5929 211.161 86.2906 210.584C85.3915 210.724 84.5179 210.995 83.6981 211.389V211.359ZM119.786 206.107C118.954 206.461 118.177 206.934 117.48 207.51C118.376 207.378 119.249 207.12 120.072 206.741C120.903 206.381 121.679 205.907 122.378 205.332C121.479 205.47 120.605 205.741 119.786 206.137V206.107ZM160.43 206.924C159.853 207.081 159.29 207.285 158.746 207.534C157.917 207.894 157.141 208.366 156.441 208.937C157.337 208.808 158.211 208.549 159.033 208.169C159.543 207.942 160.036 207.679 160.509 207.382C160.473 207.223 160.43 207.071 160.43 206.924ZM141.88 183.092C141.046 183.449 140.268 183.924 139.568 184.501C140.454 184.365 141.316 184.107 142.13 183.732C142.964 183.376 143.743 182.901 144.442 182.323C143.551 182.454 142.684 182.713 141.868 183.092H141.88ZM114.558 117.297C114.202 116.464 113.727 115.688 113.149 114.991C113.282 115.885 113.541 116.756 113.917 117.578C114.274 118.412 114.748 119.191 115.327 119.889C115.197 118.993 114.938 118.119 114.558 117.297ZM102.279 210.352C101.925 209.518 101.452 208.74 100.876 208.041C101.005 208.937 101.264 209.811 101.644 210.633C102 211.466 102.472 212.245 103.047 212.945C102.923 212.047 102.664 211.173 102.279 210.352ZM97.234 187.691C96.8741 186.861 96.3976 186.087 95.8188 185.391C95.9531 186.285 96.2118 187.156 96.5874 187.978C96.9444 188.811 97.4211 189.588 98.0026 190.283C97.8679 189.388 97.6092 188.515 97.234 187.691ZM127.624 172.124C127.266 171.292 126.793 170.514 126.221 169.812C126.348 170.709 126.607 171.583 126.99 172.404C127.343 173.239 127.815 174.018 128.393 174.716C128.259 173.82 128.001 172.948 127.624 172.124ZM114.717 143.454C114.359 142.62 113.885 141.842 113.307 141.142C113.434 142.039 113.693 142.913 114.076 143.734C114.432 144.569 114.907 145.347 115.485 146.046C115.353 145.16 115.094 144.297 114.717 143.484V143.454ZM134.072 209.431C134.181 210.182 134.386 210.916 134.682 211.615L135.414 211.566C135.059 210.81 134.608 210.102 134.072 209.462V209.431ZM156.276 190.93C155.917 190.097 155.441 189.321 154.861 188.624C154.999 189.517 155.257 190.387 155.629 191.211C155.988 192.042 156.462 192.818 157.038 193.516C156.909 192.622 156.652 191.751 156.276 190.93ZM137.86 125.203C137.5 124.374 137.026 123.6 136.451 122.903C136.585 123.797 136.846 124.668 137.226 125.489C137.577 126.323 138.05 127.1 138.629 127.795C138.497 126.899 138.238 126.026 137.86 125.203ZM130.54 112.49C129.7 112.162 128.816 111.956 127.917 111.88C128.643 112.419 129.442 112.853 130.29 113.167C131.131 113.492 132.014 113.697 132.913 113.777C132.187 113.238 131.388 112.805 130.54 112.49ZM107.543 175.711C106.705 175.368 105.821 175.153 104.92 175.07C105.648 175.611 106.449 176.047 107.299 176.363C108.141 176.686 109.024 176.891 109.922 176.973C109.203 176.44 108.409 176.015 107.567 175.711H107.543ZM87.657 198.451C86.8157 198.113 85.9304 197.898 85.0279 197.811C86.499 198.877 88.2235 199.539 90.0299 199.732C89.3111 199.197 88.5205 198.766 87.6814 198.451H87.657ZM143.527 200.281C142.686 199.943 141.8 199.728 140.898 199.641C142.369 200.707 144.093 201.369 145.9 201.562C145.18 201.028 144.39 200.597 143.551 200.281H143.527ZM139.617 166.451C138.777 166.12 137.893 165.915 136.994 165.841C137.718 166.382 138.518 166.816 139.367 167.128C140.207 167.461 141.09 167.676 141.99 167.768C141.276 167.216 140.484 166.772 139.641 166.451H139.617ZM132.15 138C131.311 137.669 130.427 137.463 129.527 137.39C130.252 137.93 131.051 138.361 131.9 138.671C132.739 139.009 133.623 139.225 134.523 139.312C133.809 138.761 133.018 138.319 132.175 138H132.15ZM98.82 148.114C98.4894 148.954 98.2839 149.838 98.21 150.737C99.2665 149.261 99.928 147.539 100.131 145.735C99.5791 146.459 99.1371 147.261 98.82 148.114ZM129.082 193.687C128.752 194.527 128.546 195.411 128.472 196.31C129.013 195.584 129.449 194.785 129.765 193.937C130.087 193.095 130.293 192.212 130.375 191.314C129.835 192.039 129.403 192.838 129.094 193.687H129.082ZM143.149 150.884C142.818 151.728 142.613 152.615 142.539 153.519C143.603 152.045 144.266 150.319 144.46 148.511C143.916 149.235 143.478 150.034 143.161 150.884H143.149ZM108.604 197.42C108.274 198.262 108.068 199.148 107.994 200.05C108.532 199.318 108.965 198.515 109.281 197.664C109.607 196.823 109.812 195.94 109.891 195.041C109.354 195.769 108.925 196.57 108.617 197.42H108.604ZM85.7782 175.906C85.4525 176.749 85.2472 177.634 85.1682 178.535C85.7108 177.809 86.1444 177.007 86.4553 176.156C86.7869 175.316 86.9924 174.432 87.0653 173.533C86.5338 174.262 86.1048 175.06 85.7904 175.906H85.7782ZM114.07 161.302C113.737 162.143 113.531 163.03 113.46 163.931C114.523 162.459 115.186 160.735 115.381 158.929C114.83 159.652 114.388 160.451 114.07 161.302ZM122.659 127.252C122.337 128.097 122.132 128.981 122.049 129.881C122.591 129.156 123.026 128.357 123.342 127.508C123.667 126.665 123.872 125.78 123.952 124.879C123.414 125.606 122.981 126.405 122.665 127.252H122.659Z" fill="white"/>
<path d="M116.144 109.586C118.146 114.163 121.321 118.13 125.349 121.085C127.315 122.6 129.616 123.621 132.059 124.062C133.344 124.315 134.675 124.182 135.884 123.678C137.006 123.069 137.953 122.182 138.635 121.103C139.427 119.909 140.032 118.601 140.428 117.224C140.893 115.683 141.245 114.112 141.483 112.521C141.481 112.513 141.48 112.505 141.481 112.497C141.482 112.49 141.485 112.482 141.489 112.476C141.494 112.469 141.5 112.464 141.507 112.46C141.514 112.457 141.521 112.455 141.529 112.455C141.537 112.455 141.545 112.457 141.552 112.46C141.559 112.464 141.565 112.469 141.569 112.476C141.574 112.482 141.577 112.49 141.578 112.497C141.579 112.505 141.578 112.513 141.575 112.521C141.355 114.027 141.258 115.571 140.922 117.035C140.646 118.357 140.195 119.638 139.58 120.841C138.99 121.997 138.158 123.012 137.14 123.818C136.044 124.623 134.705 125.028 133.346 124.965C130.698 124.841 128.138 123.97 125.965 122.451C123.803 121.027 121.876 119.273 120.255 117.254C118.416 114.965 116.973 112.383 115.985 109.617C115.981 109.596 115.986 109.574 115.998 109.556C116.01 109.539 116.028 109.526 116.049 109.522C116.07 109.518 116.092 109.523 116.11 109.535C116.128 109.547 116.14 109.565 116.144 109.586Z" fill="#263238"/>
<path d="M134.078 121.311C129.271 122.116 121.616 114.345 118.791 108.269C118.602 107.854 119.493 103.651 120.341 98.509C120.841 95.3797 121.329 91.8844 121.561 88.6636C121.603 87.9987 141.447 94.8978 141.447 94.8978C141.447 94.8978 139.007 101.522 138.677 107.14C138.658 107.584 138.676 108.029 138.732 108.47C138.736 108.543 138.736 108.617 138.732 108.69C138.964 111.221 138.726 120.524 134.078 121.311Z" fill="#AD6359"/>
<path d="M136.64 108.659C137.332 108.72 138.028 108.72 138.72 108.659C138.72 108.574 138.72 108.501 138.72 108.44C138.66 107.999 138.644 107.554 138.671 107.11C139.007 101.492 141.429 94.8734 141.429 94.8734C141.429 94.8734 125.324 89.2675 122.104 88.6453C122.476 92.4273 124.745 107.61 136.64 108.659Z" fill="#263238"/>
<path d="M118.682 66.6181C116.571 73.81 120.603 94.55 125.764 99.0823C133.242 105.701 145.369 106.201 150.963 97.2523C156.386 88.5659 150.652 61.6893 144.899 57.5535C136.433 51.4413 121.793 55.9736 118.682 66.6181Z" fill="#AD6359"/>
<path d="M138.385 79.2025C138.385 79.1476 138.293 79.2879 138.305 79.3428C138.61 80.7336 138.732 82.3928 137.561 83.076C137.524 83.076 137.561 83.1675 137.561 83.1492C139.08 82.6429 138.903 80.4652 138.385 79.2025Z" fill="#263238"/>
<path d="M136.866 77.9824C134.59 78.2386 135.267 82.7709 137.378 82.533C139.489 82.2951 138.775 77.7689 136.866 77.9824Z" fill="#263238"/>
<path d="M146.973 77.7263C146.973 77.6714 147.095 77.7751 147.101 77.83C147.266 79.2452 147.711 80.8312 149.035 81.1057C149.078 81.1057 149.084 81.185 149.035 81.185C147.449 81.2033 146.906 79.0866 146.973 77.7263Z" fill="#263238"/>
<path d="M148.01 76.067C150.243 75.5607 151.097 80.0625 149.029 80.5383C146.961 81.0141 146.138 76.494 148.01 76.067Z" fill="#263238"/>
<path d="M134.767 76.1769C135.335 75.9099 135.889 75.6147 136.426 75.2924C137.055 75.0638 137.591 74.6352 137.951 74.0724C138.03 73.8731 138.041 73.6535 137.983 73.4473C137.924 73.2412 137.8 73.06 137.628 72.9317C136.853 72.4315 135.975 72.6633 135.188 73.0476C134.384 73.4123 133.747 74.0654 133.401 74.8776C133.336 75.0654 133.327 75.2678 133.374 75.4607C133.422 75.6536 133.523 75.8289 133.667 75.9657C133.811 76.1026 133.991 76.1952 134.186 76.2326C134.381 76.2701 134.583 76.2507 134.767 76.1769Z" fill="#263238"/>
<path d="M149.45 73.5234C148.823 73.4916 148.198 73.4265 147.577 73.3282C146.91 73.3485 146.254 73.1492 145.711 72.7609C145.562 72.6062 145.47 72.4064 145.448 72.1932C145.426 71.98 145.475 71.7654 145.589 71.5836C146.119 70.8333 147.022 70.7174 147.888 70.7784C148.766 70.8199 149.597 71.1825 150.225 71.7971C150.358 71.9465 150.444 72.1311 150.475 72.3287C150.505 72.5263 150.478 72.7285 150.396 72.911C150.314 73.0934 150.181 73.2482 150.013 73.3569C149.846 73.4656 149.65 73.5234 149.45 73.5234Z" fill="#263238"/>
<path d="M139.08 91.9576C139.464 92.2321 139.873 92.6347 140.385 92.6042C140.907 92.5152 141.403 92.3178 141.843 92.0247C141.852 92.0179 141.863 92.0143 141.874 92.0145C141.885 92.0147 141.896 92.0187 141.904 92.0258C141.913 92.0329 141.919 92.0427 141.921 92.0536C141.923 92.0645 141.922 92.0758 141.916 92.0857C141.757 92.3928 141.518 92.6509 141.223 92.8325C140.929 93.0141 140.591 93.1122 140.245 93.1166C139.948 93.0847 139.666 92.9651 139.437 92.7728C139.208 92.5805 139.041 92.3243 138.958 92.0369C138.915 91.9637 139.019 91.9149 139.08 91.9576Z" fill="#263238"/>
<path d="M139.922 87.5289C140.361 88.0325 140.9 88.4394 141.505 88.724C142.11 89.0085 142.767 89.1645 143.435 89.182C144.019 89.2028 144.602 89.1412 145.168 88.999C145.276 88.9807 145.382 88.9521 145.485 88.9136C145.589 88.9136 145.68 88.8587 145.79 88.8221C145.863 88.7957 145.925 88.7462 145.967 88.6812C146.008 88.6162 146.028 88.5393 146.022 88.4622C146.016 88.414 146.004 88.3667 145.985 88.3219V88.1999C145.851 87.1141 145.497 85.4854 145.497 85.4854C145.924 85.6196 148.071 86.2296 147.937 85.6684C146.961 81.0324 145.875 75.9084 143.917 71.4737C143.908 71.4405 143.885 71.4126 143.855 71.396C143.824 71.3794 143.789 71.3755 143.756 71.3853C143.722 71.395 143.695 71.4174 143.678 71.4478C143.661 71.4781 143.657 71.5137 143.667 71.5469C144.43 76.0365 145.979 80.3675 146.821 84.8632C146.054 84.6391 145.259 84.5221 144.46 84.5155C144.314 84.5826 145.198 87.6509 145.217 88.145C145.221 88.1631 145.221 88.1818 145.217 88.1999C143.435 88.7001 141.984 88.3585 140.038 87.4008C139.916 87.3215 139.824 87.4313 139.922 87.5289Z" fill="#263238"/>
<path d="M144.448 88.5476C143.968 89.4097 143.275 90.1343 142.435 90.6521C141.969 90.9178 141.431 91.0308 140.898 90.9754C139.733 90.8534 139.556 89.8286 139.629 88.9136C139.67 88.4294 139.771 87.9522 139.928 87.4923C141.283 88.3178 142.867 88.6876 144.448 88.5476Z" fill="#263238"/>
<path d="M142.435 90.6521C141.969 90.9177 141.431 91.0308 140.898 90.9754C139.733 90.8534 139.556 89.8286 139.629 88.9136C140.849 88.8587 142.16 89.4931 142.435 90.6521Z" fill="#FF97B8"/>
<path d="M142.13 62.4274C141.543 63.6085 140.665 64.6205 139.579 65.3677C138.492 66.1149 137.233 66.5725 135.92 66.6974C133.316 66.917 130.4 65.8068 128.893 63.6047C128.85 63.5376 128.747 63.6047 128.789 63.6718C130.4 66.0264 133.059 67.6368 135.963 67.3318C137.346 67.1573 138.659 66.6233 139.771 65.7831C140.883 64.9429 141.755 63.8258 142.301 62.5433C142.337 62.3969 142.179 62.3176 142.13 62.4274Z" fill="#263238"/>
<path d="M130.936 48.0375C127.612 47.9155 124.525 50.2152 123.269 53.2164C122.554 55.0143 122.311 56.9649 122.561 58.8833C122.561 58.8995 122.568 58.915 122.579 58.9264C122.591 58.9378 122.606 58.9443 122.622 58.9443C122.638 58.9443 122.654 58.9378 122.665 58.9264C122.677 58.915 122.683 58.8995 122.683 58.8833C122.537 55.8333 123.696 52.3929 126.136 50.4165C127.231 49.4623 128.596 48.8731 130.041 48.731C131.487 48.5889 132.94 48.9008 134.2 49.6235C135.597 50.4355 136.673 51.7013 137.25 53.2103C137.266 53.2403 137.291 53.2637 137.323 53.2762C137.354 53.2887 137.389 53.2895 137.421 53.2783C137.453 53.2672 137.48 53.2449 137.496 53.2156C137.513 53.1863 137.519 53.1519 137.512 53.1188C137.074 51.6973 136.206 50.4461 135.029 49.5365C133.852 48.6269 132.423 48.1034 130.936 48.0375Z" fill="#263238"/>
<path d="M156.16 49.8431C154.981 47.9844 153.184 46.6017 151.085 45.9391C148.175 45.0119 145.381 45.9391 142.624 46.9456C142.551 46.9456 142.594 47.0859 142.667 47.0615C145.015 46.2258 147.443 45.5121 149.944 46.0916C152.002 46.567 153.831 47.7394 155.123 49.41C156.404 51.1382 157.018 53.2703 156.853 55.415C156.689 57.5597 155.756 59.573 154.226 61.0854C153.322 61.9321 152.255 62.5853 151.09 63.0049C149.924 63.4245 148.685 63.6016 147.449 63.5254C147.352 63.5254 147.315 63.6657 147.419 63.6718C149.108 63.8397 150.811 63.5342 152.337 62.7897C153.862 62.0451 155.151 60.8907 156.058 59.4556C156.965 58.0206 157.455 56.3615 157.473 54.6639C157.491 52.9663 157.036 51.2971 156.16 49.8431Z" fill="#263238"/>
<path d="M118.261 68.4664C118.261 68.4664 117.211 62.3176 118.358 60.0972C119.505 57.8768 122.878 56.6446 122.878 56.6446C122.878 56.6446 123.726 51.0326 128.545 49.5625C132.87 48.2449 136.744 51.4352 136.744 51.4352C136.744 51.4352 141.428 43.981 149.182 45.811C156.538 47.5373 158.027 57.7914 152.378 62.4823C148.413 65.7763 141.319 63.2875 141.319 63.2875C140.751 63.5132 135.615 68.6128 129.729 64.355C129.729 64.355 126.361 68.5274 123.464 66.795C123.482 66.8194 120.664 69.0581 118.261 68.4664Z" fill="#263238"/>
<path opacity="0.2" d="M121.628 61.1891C122.122 64.3428 123.458 73.3403 122.756 75.5424C122.055 77.7445 120.542 83.4236 119.536 84.0336C118.114 77.3236 117.614 70.2537 118.682 66.6181C119.271 64.6215 120.275 62.7717 121.628 61.1891Z" fill="#263238"/>
<path d="M122.366 83.265C122.366 83.265 117.486 76.7136 114.479 78.4765C111.471 80.2394 115.32 89.853 118.938 91.0669C119.39 91.2556 119.876 91.3507 120.366 91.3464C120.856 91.3421 121.34 91.2384 121.788 91.0417C122.237 90.8449 122.641 90.5593 122.976 90.2019C123.312 89.8445 123.571 89.4228 123.738 88.9624L122.366 83.265Z" fill="#AD6359"/>
<path d="M115.644 81.2032C115.631 81.2032 115.618 81.2084 115.609 81.2175C115.6 81.2267 115.595 81.2391 115.595 81.252C115.595 81.265 115.6 81.2774 115.609 81.2866C115.618 81.2957 115.631 81.3008 115.644 81.3008C118.175 82.2341 119.572 84.5155 120.566 86.8945C119.798 85.9917 118.767 85.516 117.553 86.4432C117.486 86.492 117.553 86.5895 117.626 86.5712C118.062 86.4178 118.534 86.4028 118.979 86.5284C119.423 86.654 119.818 86.914 120.109 87.2728C120.583 87.8789 120.992 88.5331 121.329 89.2248C121.451 89.4444 121.854 89.3162 121.762 89.06C121.761 89.0397 121.761 89.0194 121.762 88.999C121.707 85.8087 119.084 81.4167 115.644 81.2032Z" fill="#263238"/>
<path d="M174.045 155.068C170.794 155.678 171.66 151.378 168.647 151.097C165.633 150.816 164.73 154.147 162.876 153.671C161.022 153.195 162.351 149.871 158.661 149.84C154.97 149.81 154.129 154.891 151.896 156.062C149.663 157.234 144.863 155.245 144.289 159.314C143.716 163.382 151.957 164.737 157.874 167.585C163.791 170.434 170.19 174.765 175.527 174.46C181.249 174.1 183.738 170.373 188.118 169.781C192.498 169.19 202.563 171.898 206.851 168.061C211.139 164.224 218.063 161.132 218.166 156.971C218.27 152.811 212.805 154.641 211.054 154.44C209.303 154.239 209.468 149.645 206.101 149.005C202.733 148.364 201.904 150.45 198.976 150.658C196.048 150.865 194.791 145.168 190.686 146.193C186.581 147.217 187.636 149.535 185.861 150.548C184.086 151.561 180.633 149.261 178.236 150.316C175.839 151.372 176.943 154.55 174.045 155.068Z" fill="#455A64"/>
<path d="M187.313 157.795C190.704 157.96 189.277 153.824 192.315 153.159C195.352 152.494 196.694 155.69 198.531 154.989C200.367 154.287 198.579 151.158 202.337 150.652C206.095 150.145 207.601 155.093 210.029 155.965C212.457 156.837 217.099 154.257 218.209 158.222C219.319 162.187 211.072 164.578 205.399 168.159C199.726 171.739 193.754 176.851 188.264 177.199C182.384 177.571 179.364 174.186 174.844 174.149C170.324 174.112 160.375 178.09 155.513 174.826C150.652 171.563 143.204 169.385 142.563 165.273C141.923 161.162 147.736 162.272 149.493 161.851C151.249 161.43 150.505 156.892 153.854 155.831C157.203 154.769 158.319 156.727 161.333 156.563C164.346 156.398 164.901 150.597 169.22 151.073C173.539 151.548 172.746 154.001 174.71 154.775C176.674 155.55 179.883 152.836 182.457 153.555C185.031 154.275 184.293 157.648 187.313 157.795Z" fill="#37474F"/>
<path d="M150.115 157.594C147.236 159.533 145.662 164.114 147.98 168.47C150.298 172.825 156.166 172.27 158.96 170.361C161.754 168.452 164.114 163.687 161.729 159.625C159.686 156.099 155.16 154.196 150.115 157.594Z" fill="#E29A4F"/>
<path opacity="0.1" d="M150.115 157.594C147.236 159.533 145.662 164.114 147.98 168.47C150.298 172.825 156.166 172.27 158.96 170.361C161.754 168.452 164.114 163.687 161.729 159.625C159.686 156.099 155.16 154.196 150.115 157.594Z" fill="black"/>
<path d="M150.969 158.734C148.62 160.314 147.309 164.06 149.23 167.616C151.152 171.172 155.94 170.721 158.21 169.159C160.479 167.598 162.425 163.712 160.479 160.387C158.795 157.508 155.099 155.959 150.969 158.734Z" fill="#E29A4F"/>
<path d="M155.886 160.711C156.093 160.875 156.837 160.253 156.428 159.96C156.02 159.668 155.617 160.503 155.886 160.711Z" fill="white"/>
<path d="M157.624 164.792C157.52 165.029 158.307 165.597 158.49 165.127C158.673 164.657 157.764 164.474 157.624 164.792Z" fill="white"/>
<path d="M159.369 163.205C159.411 163.462 160.381 163.504 160.278 163.01C160.174 162.516 159.314 162.87 159.369 163.205Z" fill="white"/>
<path d="M155.837 158.923C156.093 158.881 156.142 157.917 155.648 158.014C155.154 158.112 155.495 158.978 155.837 158.923Z" fill="white"/>
<path d="M151.195 162.303C151.262 162.053 150.395 161.613 150.286 162.108C150.176 162.602 151.103 162.638 151.195 162.303Z" fill="white"/>
<path d="M153.269 167.695C153.055 167.543 152.341 168.195 152.762 168.47C153.183 168.744 153.549 167.896 153.269 167.695Z" fill="white"/>
<path d="M154.97 167.366C154.714 167.323 154.36 168.226 154.861 168.287C155.361 168.348 155.312 167.421 154.97 167.366Z" fill="white"/>
<path d="M153.183 163.547C153.366 163.364 152.829 162.553 152.494 162.937C152.158 163.321 152.939 163.791 153.183 163.547Z" fill="white"/>
<path d="M147.962 164.218C147.962 164.218 152.689 163.693 153.311 164.651C153.933 165.609 150.572 169.818 150.017 169.446C149.462 169.074 147.449 165.816 147.962 164.218Z" fill="#E29A4F"/>
<path opacity="0.1" d="M147.962 164.218C147.962 164.218 152.689 163.693 153.311 164.651C153.933 165.609 150.572 169.818 150.017 169.446C149.462 169.074 147.449 165.816 147.962 164.218Z" fill="black"/>
<path d="M156.044 170.489C156.044 170.489 154.647 165.938 155.477 165.151C156.306 164.365 161.058 166.878 160.802 167.494C160.546 168.11 157.709 170.69 156.044 170.489Z" fill="#E29A4F"/>
<path opacity="0.1" d="M156.044 170.489C156.044 170.489 154.647 165.938 155.477 165.151C156.306 164.365 161.058 166.878 160.802 167.494C160.546 168.11 157.709 170.69 156.044 170.489Z" fill="black"/>
<path d="M162.065 162.107C162.065 162.107 157.441 163.23 156.703 162.358C155.965 161.485 158.759 156.868 159.356 157.185C159.954 157.502 162.364 160.43 162.065 162.107Z" fill="#E29A4F"/>
<path opacity="0.1" d="M162.065 162.107C162.065 162.107 157.441 163.23 156.703 162.358C155.965 161.485 158.759 156.868 159.356 157.185C159.954 157.502 162.364 160.43 162.065 162.107Z" fill="black"/>
<path d="M154.226 156.575C154.226 156.575 155.355 161.199 154.482 161.937C153.61 162.675 148.992 159.881 149.304 159.283C149.615 158.685 152.579 156.27 154.226 156.575Z" fill="#E29A4F"/>
<path opacity="0.1" d="M154.226 156.575C154.226 156.575 155.355 161.199 154.482 161.937C153.61 162.675 148.992 159.881 149.304 159.283C149.615 158.685 152.579 156.27 154.226 156.575Z" fill="black"/>
<path d="M174.936 146.851C171.544 146.107 167.146 148.132 165.597 152.817C164.047 157.502 168.5 161.357 171.825 162.077C175.149 162.797 180.206 161.199 181.505 156.666C182.628 152.744 180.877 148.157 174.936 146.851Z" fill="#E29A4F"/>
<path opacity="0.1" d="M174.936 146.851C171.544 146.107 167.146 148.132 165.597 152.817C164.047 157.502 168.5 161.357 171.825 162.077C175.149 162.797 180.206 161.199 181.505 156.666C182.628 152.744 180.877 148.157 174.936 146.851Z" fill="black"/>
<path d="M174.704 148.23C171.941 147.62 168.348 149.279 167.079 153.11C165.81 156.941 169.452 160.095 172.166 160.674C174.881 161.254 179.017 159.96 180.096 156.258C180.993 153.067 179.56 149.322 174.704 148.23Z" fill="#E29A4F"/>
<path d="M176.668 153.177C176.668 153.439 177.656 153.549 177.589 153.049C177.522 152.549 176.632 152.836 176.668 153.177Z" fill="white"/>
<path d="M174.924 157.252C174.673 157.343 174.808 158.301 175.271 158.112C175.735 157.923 175.241 157.136 174.924 157.252Z" fill="white"/>
<path d="M177.272 157.417C177.113 157.63 177.748 158.356 178.035 157.941C178.321 157.526 177.473 157.142 177.272 157.417Z" fill="white"/>
<path d="M177.925 151.89C178.132 152.055 178.87 151.42 178.455 151.134C178.041 150.847 177.65 151.695 177.925 151.89Z" fill="white"/>
<path d="M172.276 150.884C172.508 150.755 172.221 149.828 171.794 150.091C171.367 150.353 171.977 151.048 172.276 150.884Z" fill="white"/>
<path d="M169.812 156.111C169.775 155.849 168.805 155.782 168.897 156.276C168.988 156.77 169.855 156.447 169.812 156.111Z" fill="white"/>
<path d="M171.221 157.112C171.075 156.892 170.178 157.264 170.477 157.667C170.776 158.069 171.41 157.38 171.221 157.112Z" fill="white"/>
<path d="M172.746 153.183C173.008 153.183 173.222 152.238 172.746 152.25C172.27 152.262 172.404 153.177 172.746 153.183Z" fill="white"/>
<path d="M168.659 149.865C168.659 149.865 172.319 152.915 172.044 154.037C171.77 155.16 166.414 155.623 166.298 154.964C166.182 154.306 167.14 150.603 168.659 149.865Z" fill="#E29A4F"/>
<path opacity="0.1" d="M168.659 149.865C168.659 149.865 172.319 152.915 172.044 154.037C171.77 155.16 166.414 155.623 166.298 154.964C166.182 154.306 167.14 150.603 168.659 149.865Z" fill="black"/>
<path d="M169.708 160.046C169.708 160.046 172.032 155.892 173.173 155.947C174.314 156.001 175.778 161.18 175.155 161.437C174.533 161.693 170.708 161.394 169.708 160.046Z" fill="#E29A4F"/>
<path opacity="0.1" d="M169.708 160.046C169.708 160.046 172.032 155.892 173.173 155.947C174.314 156.001 175.778 161.18 175.155 161.437C174.533 161.693 170.708 161.394 169.708 160.046Z" fill="black"/>
<path d="M179.95 158.6C179.95 158.6 175.942 156.026 176.064 154.891C176.186 153.757 181.444 152.604 181.64 153.238C181.835 153.873 181.329 157.691 179.95 158.6Z" fill="#E29A4F"/>
<path opacity="0.1" d="M179.95 158.6C179.95 158.6 175.942 156.026 176.064 154.891C176.186 153.757 181.444 152.604 181.64 153.238C181.835 153.873 181.329 157.691 179.95 158.6Z" fill="black"/>
<path d="M178.516 149.121C178.516 149.121 175.948 153.128 174.814 153.006C173.679 152.884 172.526 147.632 173.161 147.431C173.795 147.23 177.595 147.718 178.516 149.121Z" fill="#E29A4F"/>
<path opacity="0.1" d="M178.516 149.121C178.516 149.121 175.948 153.128 174.814 153.006C173.679 152.884 172.526 147.632 173.161 147.431C173.795 147.23 177.595 147.718 178.516 149.121Z" fill="black"/>
<path d="M184.501 169.19C187.057 171.538 191.876 171.996 195.572 168.726C199.269 165.456 197.353 159.875 194.84 157.593C192.327 155.312 187.148 154.141 183.75 157.404C180.81 160.235 180.017 165.078 184.501 169.19Z" fill="#E29A4F"/>
<path opacity="0.1" d="M184.501 169.19C187.057 171.538 191.876 171.996 195.572 168.726C199.269 165.456 197.353 159.875 194.84 157.593C192.327 155.312 187.148 154.141 183.75 157.404C180.81 160.235 180.017 165.078 184.501 169.19Z" fill="black"/>
<path d="M185.403 168.092C187.49 170.007 191.43 170.379 194.45 167.713C197.469 165.048 195.908 160.485 193.84 158.612C191.772 156.739 187.557 155.794 184.781 158.46C182.39 160.772 181.743 164.73 185.403 168.092Z" fill="#E29A4F"/>
<path d="M186.184 162.87C186.294 162.632 185.513 162.053 185.324 162.516C185.135 162.98 186.05 163.163 186.184 162.87Z" fill="white"/>
<path d="M189.74 160.204C189.997 160.253 190.35 159.356 189.862 159.283C189.374 159.21 189.399 160.143 189.74 160.204Z" fill="white"/>
<path d="M187.788 158.881C188.032 158.783 187.849 157.831 187.392 158.045C186.934 158.258 187.477 159.015 187.788 158.881Z" fill="white"/>
<path d="M184.452 163.321C184.354 163.077 183.403 163.254 183.61 163.712C183.817 164.169 184.586 163.633 184.452 163.321Z" fill="white"/>
<path d="M188.825 167.042C188.563 167.042 188.344 167.976 188.825 167.97C189.307 167.964 189.167 167.049 188.825 167.042Z" fill="white"/>
<path d="M193.584 163.761C193.486 164.005 194.285 164.548 194.456 164.078C194.627 163.608 193.712 163.443 193.584 163.761Z" fill="white"/>
<path d="M192.864 162.187C192.864 162.449 193.846 162.577 193.785 162.077C193.724 161.577 192.839 161.845 192.864 162.187Z" fill="white"/>
<path d="M189.57 164.816C189.344 164.682 188.685 165.395 189.13 165.633C189.576 165.871 189.869 164.993 189.57 164.816Z" fill="white"/>
<path d="M191.442 169.739C191.442 169.739 189.826 165.261 190.613 164.432C191.4 163.602 196.274 165.89 196.048 166.512C195.822 167.134 193.12 169.861 191.442 169.739Z" fill="#E29A4F"/>
<path opacity="0.1" d="M191.442 169.739C191.442 169.739 189.826 165.261 190.613 164.432C191.4 163.602 196.274 165.89 196.048 166.512C195.822 167.134 193.12 169.861 191.442 169.739Z" fill="black"/>
<path d="M195.651 160.43C195.651 160.43 191.552 162.87 190.594 162.23C189.637 161.589 190.967 156.398 191.625 156.508C192.284 156.617 195.456 158.74 195.651 160.43Z" fill="#E29A4F"/>
<path opacity="0.1" d="M195.651 160.43C195.651 160.43 191.552 162.87 190.594 162.23C189.637 161.589 190.967 156.398 191.625 156.508C192.284 156.617 195.456 158.74 195.651 160.43Z" fill="black"/>
<path d="M186.093 156.52C186.093 156.52 188.264 160.753 187.593 161.674C186.922 162.596 181.792 160.949 181.939 160.302C182.085 159.655 184.421 156.611 186.093 156.52Z" fill="#E29A4F"/>
<path opacity="0.1" d="M186.093 156.52C186.093 156.52 188.264 160.753 187.593 161.674C186.922 162.596 181.792 160.949 181.939 160.302C182.085 159.655 184.421 156.611 186.093 156.52Z" fill="black"/>
<path d="M182.543 165.426C182.543 165.426 186.782 163.254 187.703 163.931C188.624 164.608 186.977 169.732 186.325 169.586C185.672 169.44 182.634 167.103 182.543 165.426Z" fill="#E29A4F"/>
<path opacity="0.1" d="M182.543 165.426C182.543 165.426 186.782 163.254 187.703 163.931C188.624 164.608 186.977 169.732 186.325 169.586C185.672 169.44 182.634 167.103 182.543 165.426Z" fill="black"/>
<path d="M203.13 161.522C205.686 163.87 210.505 164.322 214.201 161.052C217.898 157.783 215.983 152.207 213.47 149.92C210.956 147.632 205.777 146.467 202.38 149.731C199.47 152.561 198.647 157.38 203.13 161.522Z" fill="#E29A4F"/>
<path opacity="0.1" d="M203.13 161.522C205.686 163.87 210.505 164.322 214.201 161.052C217.898 157.783 215.983 152.207 213.47 149.92C210.956 147.632 205.777 146.467 202.38 149.731C199.47 152.561 198.647 157.38 203.13 161.522Z" fill="black"/>
<path d="M204.033 160.43C206.119 162.345 210.06 162.717 213.079 160.046C216.099 157.374 214.537 152.817 212.469 150.951C210.401 149.084 206.186 148.126 203.411 150.798C201.019 153.11 200.373 157.057 204.033 160.43Z" fill="#E29A4F"/>
<path d="M204.814 155.178C204.923 154.94 204.143 154.367 203.953 154.83C203.764 155.294 204.667 155.489 204.814 155.178Z" fill="white"/>
<path d="M208.37 152.537C208.626 152.579 208.98 151.683 208.492 151.616C208.004 151.548 208.01 152.5 208.37 152.537Z" fill="white"/>
<path d="M206.418 151.213C206.662 151.109 206.479 150.158 206.021 150.371C205.564 150.585 206.107 151.347 206.418 151.213Z" fill="white"/>
<path d="M203.081 155.648C202.984 155.404 202.032 155.587 202.239 156.038C202.447 156.489 203.215 155.965 203.081 155.648Z" fill="white"/>
<path d="M207.455 159.369C207.193 159.369 206.973 160.308 207.455 160.296C207.937 160.284 207.796 159.381 207.455 159.369Z" fill="white"/>
<path d="M212.213 156.093C212.115 156.337 212.914 156.88 213.085 156.404C213.256 155.928 212.341 155.776 212.213 156.093Z" fill="white"/>
<path d="M211.493 154.513C211.493 154.775 212.475 154.903 212.414 154.409C212.353 153.915 211.469 154.171 211.493 154.513Z" fill="white"/>
<path d="M208.199 157.148C207.973 157.014 207.315 157.722 207.76 157.966C208.205 158.21 208.498 157.325 208.199 157.148Z" fill="white"/>
<path d="M210.072 162.065C210.072 162.065 208.455 157.587 209.242 156.764C210.029 155.94 214.903 158.216 214.677 158.844C214.452 159.472 211.749 162.187 210.072 162.065Z" fill="#E29A4F"/>
<path opacity="0.1" d="M210.072 162.065C210.072 162.065 208.455 157.587 209.242 156.764C210.029 155.94 214.903 158.216 214.677 158.844C214.452 159.472 211.749 162.187 210.072 162.065Z" fill="black"/>
<path d="M214.281 152.738C214.281 152.738 210.182 155.178 209.224 154.568C208.266 153.958 209.596 148.736 210.255 148.84C210.914 148.944 214.11 151.073 214.281 152.738Z" fill="#E29A4F"/>
<path opacity="0.1" d="M214.281 152.738C214.281 152.738 210.182 155.178 209.224 154.568C208.266 153.958 209.596 148.736 210.255 148.84C210.914 148.944 214.11 151.073 214.281 152.738Z" fill="black"/>
<path d="M204.722 148.84C204.722 148.84 206.894 153.073 206.223 153.995C205.552 154.916 200.422 153.275 200.568 152.622C200.714 151.969 203.051 148.938 204.722 148.84Z" fill="#E29A4F"/>
<path opacity="0.1" d="M204.722 148.84C204.722 148.84 206.894 153.073 206.223 153.995C205.552 154.916 200.422 153.275 200.568 152.622C200.714 151.969 203.051 148.938 204.722 148.84Z" fill="black"/>
<path d="M201.172 157.758C201.172 157.758 205.411 155.587 206.333 156.258C207.254 156.929 205.607 162.059 204.954 161.912C204.301 161.766 201.263 159.436 201.172 157.758Z" fill="#E29A4F"/>
<path opacity="0.1" d="M201.172 157.758C201.172 157.758 205.411 155.587 206.333 156.258C207.254 156.929 205.607 162.059 204.954 161.912C204.301 161.766 201.263 159.436 201.172 157.758Z" fill="black"/>
<path d="M140.916 165.572L158.777 189.905L205.417 186.965L220.082 160.583L140.916 165.572Z" fill="#EBEBEB"/>
<path d="M103.657 124.94C92.5004 154.629 83.3748 186.971 90.28 193.425C95.8554 198.628 142.16 206.235 152.293 205.546C156.599 205.265 160.973 171.996 153.513 170.831C151.39 170.501 118.133 169.739 117.803 169.001C116.711 166.719 117.584 150.591 117.992 131.37C118.505 106.665 108.379 112.374 103.657 124.94Z" fill="#AD6359"/>
<path d="M149.999 205.265C162.059 206.692 176.985 209.206 189.533 203.697C190.941 203.118 192.114 202.082 192.864 200.757C198.531 198.39 199.116 194.999 199.116 194.999C203.716 191.174 203.838 187.63 203.838 187.63C203.838 187.63 210.456 184.775 209.395 180.487C208.217 175.668 199.147 180.621 192.498 180.298C177.248 179.547 153.543 174.094 149.188 173.441L149.999 205.265Z" fill="#AD6359"/>
<path d="M175.991 190.717C180.481 190.845 184.891 191.095 189.375 190.613C194.297 190.088 198.945 188.783 203.71 187.526C203.724 187.521 203.74 187.52 203.755 187.521C203.771 187.522 203.786 187.526 203.8 187.533C203.814 187.541 203.826 187.55 203.836 187.562C203.846 187.574 203.854 187.588 203.859 187.603C203.864 187.617 203.866 187.633 203.864 187.649C203.863 187.664 203.859 187.679 203.852 187.693C203.845 187.707 203.835 187.719 203.823 187.729C203.811 187.74 203.798 187.747 203.783 187.752C195.511 191.351 184.873 192.406 175.979 190.918C175.765 190.887 175.765 190.71 175.991 190.717Z" fill="#263238"/>
<path d="M174.204 199.854C178.577 199.738 186.27 199.488 199.086 194.84C199.128 194.84 199.165 194.889 199.122 194.913C191.192 199.037 183.049 200.568 174.21 200.062C173.935 200.043 173.911 199.86 174.204 199.854Z" fill="#263238"/>
<path d="M173.332 204.777C180.767 204.301 185.391 203.057 192.851 200.714C192.888 200.714 192.925 200.769 192.882 200.788C184.69 204.344 181.292 204.704 173.313 205.058C173.039 205.045 173.039 204.795 173.332 204.777Z" fill="#263238"/>
<path d="M174.185 178.23C172.24 177.345 172.685 176.32 176.381 175.418C180.078 174.515 195.45 174.07 194.84 168.708C194.23 163.346 172.782 165.304 166.512 166.268C159.932 167.384 153.699 170.004 148.297 173.923C152.555 174.594 165.847 176.827 174.185 178.23Z" fill="#AD6359"/>
<path d="M118.736 161.894L86.2906 169.116C86.2906 169.116 97.3865 134.926 104.591 121.591C112.155 107.696 119.096 107.201 119.56 128.1C119.969 148.742 118.736 161.894 118.736 161.894Z" fill="#E29A4F"/>
<path d="M90.4691 162.718C91.2621 162.449 92.1039 162.291 92.9091 162.108L95.4223 161.498C97.1242 161.089 98.8322 160.711 100.54 160.339C103.95 159.6 107.366 158.844 110.788 158.161C111.734 157.978 112.673 157.789 113.619 157.63C114.564 157.472 115.625 157.356 116.62 157.185C116.681 157.185 116.687 157.264 116.62 157.276C115.778 157.484 114.954 157.764 114.113 157.978C113.271 158.191 112.392 158.405 111.526 158.588C109.818 158.97 108.11 159.342 106.402 159.704C103.035 160.406 99.6923 161.125 96.2885 161.754L93.452 162.278C92.4699 162.461 91.4695 162.705 90.4691 162.797C90.4386 162.809 90.4142 162.736 90.4691 162.718Z" fill="#263238"/>
<path d="M93.6838 149.493C94.4646 147.291 95.1783 145.076 95.9286 142.868C96.7765 140.361 97.5451 137.83 98.3686 135.31C98.3686 135.249 98.2771 135.213 98.2527 135.274C97.234 137.958 93.7631 146.9 93.2141 148.419C91.6098 152.842 90.0055 157.264 88.4378 161.699C87.5594 164.188 86.6078 167.061 85.7416 169.55C85.6806 169.733 88.2853 169.025 89.6517 168.616C89.7249 168.616 89.7737 168.342 89.6822 168.366C88.389 168.659 86.6322 168.848 86.437 168.897C88.1023 164.688 89.7005 160.448 91.2682 156.197C92.0856 153.968 92.8908 151.733 93.6838 149.493Z" fill="#263238"/>
<path d="M114.07 161.302C113.848 161.868 113.675 162.452 113.551 163.047L114.082 162.931C114.321 162.486 114.535 162.028 114.723 161.558C115.046 160.716 115.251 159.834 115.333 158.935C114.799 159.659 114.374 160.456 114.07 161.302ZM98.82 148.114C98.4894 148.954 98.2839 149.838 98.21 150.737C99.2665 149.261 99.928 147.539 100.131 145.735C99.5791 146.459 99.1371 147.261 98.82 148.114ZM114.68 143.484C114.322 142.651 113.848 141.872 113.271 141.172C113.398 142.07 113.657 142.943 114.039 143.765C114.396 144.599 114.87 145.378 115.449 146.077C115.331 145.182 115.084 144.309 114.717 143.484H114.68ZM114.521 117.297C114.165 116.464 113.691 115.688 113.112 114.991C113.246 115.885 113.504 116.756 113.881 117.577C114.237 118.412 114.712 119.19 115.29 119.889C115.172 118.995 114.925 118.121 114.558 117.297H114.521ZM97.5268 162.998C96.6972 163.357 95.9213 163.829 95.221 164.401C96.118 164.273 96.9914 164.014 97.8135 163.632C98.6443 163.276 99.4205 162.803 100.119 162.229C99.2354 162.364 98.375 162.623 97.5634 162.998H97.5268ZM106.896 130.54C106.063 130.896 105.285 131.369 104.584 131.943C105.483 131.808 106.357 131.541 107.177 131.15C108.012 130.797 108.79 130.324 109.489 129.747C108.592 129.887 107.719 130.154 106.896 130.54Z" fill="white"/>
<path opacity="0.8" d="M159.82 270.096C159.82 272.652 137.653 272.621 137.659 270.059L137.768 244.183C138.246 244.146 138.715 244.029 139.153 243.835C139.222 243.805 139.281 243.755 139.322 243.691C139.363 243.628 139.385 243.554 139.385 243.478C139.385 243.403 139.363 243.329 139.322 243.266C139.281 243.202 139.222 243.152 139.153 243.122C138.712 242.914 138.244 242.769 137.762 242.688V241.298C138.242 241.263 138.712 241.147 139.153 240.956C139.221 240.921 139.278 240.868 139.318 240.803C139.358 240.738 139.379 240.663 139.379 240.587C139.379 240.511 139.358 240.436 139.318 240.371C139.278 240.306 139.221 240.253 139.153 240.218C138.706 240.032 138.239 239.895 137.762 239.809V238.418C138.242 238.379 138.712 238.262 139.153 238.071C139.221 238.037 139.279 237.985 139.319 237.92C139.359 237.855 139.38 237.781 139.38 237.705C139.38 237.629 139.359 237.554 139.319 237.49C139.279 237.425 139.221 237.373 139.153 237.339C138.707 237.146 138.241 237.007 137.762 236.924V235.515C138.239 235.471 138.707 235.36 139.153 235.185C139.221 235.152 139.279 235.099 139.319 235.035C139.359 234.97 139.38 234.896 139.38 234.82C139.38 234.743 139.359 234.669 139.319 234.604C139.279 234.54 139.221 234.487 139.153 234.453C138.704 234.268 138.238 234.125 137.762 234.026V228.177C137.762 226.121 144.594 219.588 145.65 218.587L145.79 218.459V216.867H151.957V218.459C151.957 218.459 159.96 225.974 159.96 228.219V234.063C159.485 234.165 159.019 234.31 158.57 234.496C158.503 234.522 158.447 234.569 158.411 234.63C158.36 234.707 158.336 234.799 158.344 234.891C158.352 234.983 158.39 235.07 158.454 235.137C158.482 235.178 158.523 235.21 158.57 235.228C159.013 235.403 159.479 235.513 159.954 235.558V236.967C159.494 237.047 159.044 237.178 158.612 237.357H158.563C158.495 237.391 158.438 237.443 158.398 237.508C158.358 237.572 158.337 237.647 158.337 237.723C158.337 237.799 158.358 237.874 158.398 237.938C158.438 238.003 158.495 238.055 158.563 238.089L158.673 238.132C159.083 238.302 159.518 238.407 159.96 238.443V239.834C159.575 239.901 159.197 240.006 158.832 240.145L158.57 240.242C158.501 240.276 158.444 240.328 158.404 240.393C158.364 240.458 158.343 240.532 158.343 240.608C158.343 240.684 158.364 240.759 158.404 240.824C158.444 240.888 158.501 240.941 158.57 240.974C158.672 241.027 158.781 241.068 158.893 241.096C159.237 241.22 159.596 241.296 159.96 241.322V242.713C159.641 242.768 159.327 242.85 159.021 242.957C158.856 243.018 158.704 243.085 158.576 243.146C158.507 243.177 158.448 243.227 158.407 243.29C158.365 243.353 158.344 243.427 158.344 243.503C158.344 243.578 158.365 243.652 158.407 243.716C158.448 243.779 158.507 243.829 158.576 243.86C158.745 243.934 158.921 243.996 159.1 244.043C159.382 244.128 159.673 244.183 159.966 244.207V257.627L159.82 270.096Z" fill="white"/>
<path opacity="0.8" d="M158.021 231.068L157.99 255.297L157.917 268.107C157.917 270.206 139.666 270.187 139.672 268.071L139.782 231.288C141.325 231.837 144.924 232.953 148.041 232.624C151.158 232.294 155.135 231.19 157.99 230.952C158.007 230.989 158.017 231.028 158.021 231.068Z" fill="#EBEBEB"/>
<path d="M153.252 212.964L144.529 212.951C144.357 212.951 144.217 213.09 144.217 213.262L144.213 216.556C144.212 216.728 144.351 216.867 144.523 216.868L153.246 216.88C153.418 216.88 153.558 216.741 153.558 216.569L153.562 213.275C153.563 213.103 153.424 212.964 153.252 212.964Z" fill="#E29A4F"/>
<path d="M30.9026 249.191C31.6615 249.186 32.4033 248.966 33.0417 248.555C33.68 248.145 34.1884 247.562 34.5077 246.873C34.5077 246.873 36.1303 248.453 38.7777 247.361C41.4251 246.269 44.1945 239.62 42.2303 234.087C40.2661 228.555 35.1055 227.249 30.9514 231.574C25.3333 229.519 21.2524 232.965 21.9478 238.797C22.6432 244.628 28.06 249.386 30.9026 249.191Z" fill="#E29A4F"/>
<path d="M26.1873 225.267C27.6408 225.696 28.9492 226.514 29.9708 227.633C30.9923 228.753 31.6879 230.13 31.9823 231.617C32.2507 232.983 30.1523 233.484 29.8595 232.105C29.402 229.799 27.4195 228.774 25.1747 228.103C23.8327 227.701 24.8392 224.864 26.1873 225.267Z" fill="#37474F"/>
<path d="M30.561 233.02C30.561 233.02 30.9697 226.658 37.0941 225.828C36.8304 227.535 36.0705 229.128 34.9089 230.406C33.7472 231.685 32.2352 232.594 30.561 233.02Z" fill="#37474F"/>
<path d="M51.4413 248.111C51.9178 248.705 52.5538 249.15 53.2746 249.394C53.9954 249.638 54.771 249.672 55.51 249.49C55.51 249.49 55.2721 251.747 57.767 253.15C60.2619 254.553 67.2037 252.619 70.3391 247.66C73.4745 242.701 71.309 237.833 65.3432 237.235C63.5132 231.55 58.255 230.47 54.1009 234.618C49.9468 238.766 49.5198 245.976 51.4413 248.111Z" fill="#E29A4F"/>
<path d="M67.3379 229.616C67.8991 231.024 68.0645 232.558 67.8161 234.052C67.5677 235.547 66.915 236.945 65.9288 238.095C65.0199 239.157 63.318 237.796 64.233 236.735C65.7641 234.948 65.3493 232.764 64.4831 230.574C63.9646 229.275 66.8194 228.311 67.3379 229.616Z" fill="#37474F"/>
<path d="M63.9646 237.827C63.9646 237.827 69.2228 234.216 73.6575 238.522C72.1515 239.369 70.4299 239.754 68.7066 239.631C66.9833 239.507 65.3343 238.88 63.9646 237.827Z" fill="#37474F"/>
<path d="M47.4153 252.04C46.667 251.914 45.9698 251.579 45.4049 251.072C44.8401 250.566 44.4309 249.909 44.225 249.179C44.225 249.179 42.395 250.484 39.9184 248.99C37.4418 247.495 35.8009 240.486 38.613 235.332C41.4251 230.177 46.726 229.708 50.1481 234.63C56.0224 233.496 59.5055 237.546 57.8951 243.17C56.2847 248.795 50.2152 252.68 47.4153 252.04Z" fill="#E29A4F"/>
<path opacity="0.1" d="M47.4153 252.04C46.667 251.914 45.9698 251.579 45.4049 251.072C44.8401 250.566 44.4309 249.909 44.225 249.179C44.225 249.179 42.395 250.484 39.9184 248.99C37.4418 247.495 35.8009 240.486 38.613 235.332C41.4251 230.177 46.726 229.708 50.1481 234.63C56.0224 233.496 59.5055 237.546 57.8951 243.17C56.2847 248.795 50.2152 252.68 47.4153 252.04Z" fill="black"/>
<path d="M55.8577 229.159C54.3576 229.356 52.9398 229.959 51.7573 230.903C50.5748 231.847 49.6725 233.095 49.1477 234.515C48.6658 235.82 50.6788 236.65 51.1668 235.332C51.9781 233.13 54.0948 232.428 56.425 232.123C57.7975 231.94 57.2485 228.976 55.8577 229.159Z" fill="#37474F"/>
<path d="M50.3189 236.07C50.3189 236.07 50.9289 229.726 45.0058 227.939C44.9952 229.666 45.4934 231.358 46.4382 232.804C47.3831 234.25 48.7328 235.386 50.3189 236.07Z" fill="#37474F"/>
<path d="M79.6782 250.948C78.9501 251.164 78.1756 251.17 77.4446 250.964C76.7136 250.757 76.0561 250.348 75.5485 249.783C75.5485 249.783 74.4627 251.771 71.6018 251.503C68.7409 251.235 64.1598 245.684 64.4221 239.815C64.6844 233.947 69.235 231.196 74.4749 234.112C79.2451 230.507 84.1556 232.611 85.1926 238.382C86.2296 244.153 82.472 250.295 79.6782 250.948Z" fill="#E29A4F"/>
<path opacity="0.1" d="M79.6782 250.948C78.9501 251.164 78.1756 251.17 77.4446 250.964C76.7136 250.757 76.0561 250.348 75.5485 249.783C75.5485 249.783 74.4627 251.771 71.6018 251.503C68.7409 251.235 64.1598 245.684 64.4221 239.815C64.6844 233.947 69.235 231.196 74.4749 234.112C79.2451 230.507 84.1556 232.611 85.1926 238.382C86.2296 244.153 82.472 250.295 79.6782 250.948Z" fill="black"/>
<path d="M77.1894 226.688C75.9302 227.527 74.9238 228.693 74.2788 230.062C73.6338 231.43 73.3747 232.949 73.5294 234.454C73.6697 235.844 75.8413 235.674 75.701 234.301C75.4631 231.965 77.0552 230.409 79.0133 229.104C80.1601 228.329 78.3606 225.913 77.1894 226.688Z" fill="#37474F"/>
<path d="M75.2679 235.35C75.2679 235.35 73.017 229.384 66.917 230.385C67.6687 231.94 68.8612 233.24 70.346 234.123C71.8308 235.006 73.5424 235.433 75.2679 235.35Z" fill="#37474F"/>
<path d="M85.0828 242.615C85.0828 242.615 79.5013 263.52 72.1996 263.52H33.55C26.23 263.52 20.6729 242.615 20.6729 242.615H85.0828Z" fill="#EBEBEB"/>
<path d="M246.861 244.092C252.662 236.772 252.473 235.289 252.394 234.643C252.394 234.472 249.374 217.422 243.963 217.422H233.319C233.355 215.373 233.416 213.799 233.465 213.445C233.679 211.884 234.429 210.395 235.625 210.395C236.82 210.395 236.845 208.925 235.625 208.925H213.402C212.213 208.925 212.213 210.395 213.402 210.395C214.592 210.395 219.033 212.109 219.698 212.975C220.362 213.842 220.552 226.694 220.387 229.61C220.222 232.526 206.79 240.029 204.875 248.819C202.959 257.609 207.632 270.132 226.902 270.132C246.172 270.132 250.838 257.609 248.935 248.819C248.529 247.133 247.827 245.532 246.861 244.092ZM233.441 229.628C233.282 228.457 233.252 224.797 233.282 221.247H243.768C245.47 222.571 248.148 232.014 248.593 234.881C248.233 235.82 246.403 238.455 244.494 240.938C239.925 235.71 233.679 231.568 233.416 229.628H233.441Z" fill="white"/>
<path d="M246.861 244.092C247.934 242.719 248.99 241.328 249.972 239.889C250.46 239.169 250.936 238.437 251.357 237.68C251.811 236.941 252.145 236.134 252.345 235.289C252.383 234.858 252.342 234.424 252.223 234.008L251.954 232.733C251.771 231.879 251.568 231.031 251.344 230.19C250.911 228.506 250.411 226.835 249.832 225.194C249.265 223.551 248.535 221.97 247.654 220.472C247.218 219.73 246.678 219.054 246.05 218.465C245.749 218.169 245.392 217.935 245.001 217.777C244.609 217.619 244.19 217.54 243.768 217.544H233.313H233.172V217.404L233.264 214.879L233.307 213.622C233.335 213.195 233.414 212.773 233.545 212.365C233.666 211.948 233.849 211.551 234.087 211.188C234.327 210.802 234.684 210.503 235.106 210.334C235.214 210.294 235.327 210.269 235.442 210.261H235.753C235.928 210.246 236.092 210.171 236.216 210.047C236.269 209.987 236.308 209.916 236.329 209.84C236.35 209.763 236.354 209.682 236.34 209.603C236.326 209.525 236.295 209.45 236.248 209.386C236.201 209.321 236.14 209.268 236.07 209.23C235.695 209.115 235.301 209.077 234.911 209.12H231.147H226.121H216.068H213.561C213.158 209.12 212.817 209.218 212.725 209.529C212.706 209.605 212.704 209.684 212.719 209.761C212.734 209.838 212.766 209.91 212.812 209.973C212.857 210.037 212.917 210.089 212.985 210.127C213.053 210.165 213.129 210.188 213.207 210.194C213.36 210.194 213.622 210.194 213.817 210.255C214.012 210.316 214.238 210.34 214.427 210.389C214.842 210.499 215.245 210.621 215.647 210.761C216.446 211.034 217.23 211.35 217.996 211.707C218.383 211.889 218.759 212.093 219.124 212.317C219.315 212.433 219.496 212.564 219.667 212.707C219.767 212.794 219.848 212.899 219.905 213.018C219.952 213.126 219.986 213.238 220.009 213.354C220.166 214.188 220.269 215.031 220.32 215.879C220.442 217.557 220.503 219.228 220.552 220.905C220.6 222.583 220.631 224.26 220.637 225.938C220.637 226.774 220.637 227.615 220.637 228.457C220.637 228.878 220.637 229.281 220.588 229.732C220.493 230.184 220.283 230.605 219.978 230.952C218.879 232.237 217.673 233.427 216.373 234.508C215.116 235.619 213.86 236.723 212.646 237.87C210.236 240.169 207.9 242.615 206.314 245.537C205.508 246.984 204.996 248.576 204.807 250.222C204.585 251.867 204.603 253.536 204.862 255.175L204.948 255.785C204.99 255.987 205.045 256.188 205.094 256.395L205.393 257.615L205.832 258.78L206.052 259.36L206.332 259.915L206.906 261.019C207.125 261.367 207.376 261.702 207.607 262.044C208.078 262.727 208.606 263.368 209.187 263.959C209.469 264.262 209.773 264.543 210.096 264.801L211.042 265.606C211.743 266.052 212.414 266.546 213.134 266.954C213.854 267.363 214.61 267.723 215.385 268.022C216.16 268.321 216.946 268.632 217.746 268.839C220.973 269.696 224.308 270.082 227.646 269.986L230.147 269.888C230.976 269.809 231.806 269.681 232.63 269.577C233.452 269.464 234.267 269.299 235.07 269.083C235.472 268.986 235.887 268.906 236.29 268.784L237.467 268.37C240.64 267.314 243.467 265.416 245.647 262.88C245.915 262.562 246.129 262.202 246.373 261.867C246.628 261.537 246.855 261.186 247.05 260.818L247.66 259.714C247.846 259.34 248.007 258.955 248.142 258.561C248.75 256.999 249.112 255.353 249.215 253.681C249.327 252.011 249.208 250.334 248.862 248.697C248.464 247.058 247.787 245.5 246.861 244.092ZM246.861 244.092C247.8 245.485 248.495 247.028 248.917 248.654C249.279 250.295 249.414 251.978 249.319 253.656C249.226 255.337 248.874 256.993 248.276 258.567C248.147 258.967 247.988 259.356 247.8 259.732L247.19 260.854C246.995 261.225 246.77 261.58 246.519 261.916C246.275 262.257 246.062 262.623 245.787 262.947C243.616 265.546 240.768 267.494 237.558 268.577L236.369 268.998C235.966 269.12 235.551 269.199 235.149 269.303C234.346 269.519 233.531 269.688 232.709 269.809C231.873 269.913 231.044 270.047 230.208 270.126L227.689 270.236C224.321 270.34 220.956 269.96 217.697 269.108C216.892 268.87 216.105 268.559 215.306 268.284C214.506 268.01 213.781 267.564 213.018 267.204C212.256 266.845 211.597 266.296 210.883 265.844L209.919 265.021C209.587 264.76 209.275 264.475 208.986 264.167C208.393 263.561 207.85 262.909 207.363 262.215C207.125 261.867 206.875 261.525 206.65 261.172L206.04 260.043L205.747 259.482L205.521 258.872L205.076 257.688L204.759 256.468C204.71 256.261 204.649 256.06 204.606 255.858L204.521 255.248C204.249 253.575 204.225 251.872 204.448 250.192C204.641 248.498 205.163 246.859 205.985 245.366C206.796 243.884 207.767 242.495 208.882 241.225C209.979 239.943 211.143 238.721 212.371 237.565C213.591 236.406 214.848 235.295 216.099 234.179C217.371 233.114 218.552 231.945 219.63 230.684C219.875 230.392 220.049 230.048 220.137 229.677C220.173 229.293 220.173 228.854 220.186 228.457C220.186 227.622 220.186 226.786 220.186 225.95C220.186 224.279 220.186 222.601 220.118 220.93C220.051 219.258 220.015 217.587 219.899 215.922C219.853 215.103 219.758 214.288 219.612 213.482C219.612 213.378 219.557 213.293 219.533 213.213C219.494 213.147 219.445 213.087 219.386 213.036C219.236 212.909 219.077 212.793 218.911 212.689C218.558 212.477 218.193 212.286 217.819 212.115C217.067 211.762 216.298 211.448 215.513 211.176C214.74 210.876 213.929 210.687 213.103 210.615C212.976 210.597 212.853 210.553 212.742 210.487C212.631 210.421 212.534 210.334 212.457 210.23C212.376 210.123 212.322 209.998 212.298 209.865C212.275 209.733 212.283 209.597 212.323 209.468C212.363 209.342 212.429 209.227 212.518 209.129C212.606 209.031 212.714 208.953 212.835 208.901C213.054 208.814 213.289 208.776 213.524 208.791H216.038H226.09H231.117H235.509C235.746 208.778 235.981 208.828 236.192 208.937C236.306 208.999 236.405 209.086 236.48 209.191C236.555 209.297 236.605 209.419 236.625 209.547C236.645 209.674 236.636 209.804 236.598 209.927C236.56 210.049 236.494 210.162 236.405 210.255C236.234 210.432 236.004 210.542 235.759 210.566C235.552 210.563 235.347 210.592 235.149 210.651C234.786 210.793 234.479 211.05 234.277 211.383C234.054 211.722 233.884 212.092 233.77 212.481C233.561 213.277 233.467 214.099 233.49 214.921L233.398 217.416L233.258 217.276H243.713C244.625 217.271 245.502 217.626 246.153 218.264C246.798 218.87 247.351 219.566 247.794 220.332C248.671 221.848 249.392 223.448 249.947 225.108C250.521 226.761 251.003 228.439 251.424 230.135C251.631 230.977 251.826 231.831 252.034 232.685L252.29 233.966C252.407 234.392 252.442 234.837 252.394 235.277C252.19 236.13 251.848 236.944 251.381 237.687C250.948 238.449 250.466 239.175 249.972 239.889C249.008 241.347 247.947 242.725 246.861 244.092Z" fill="#263238"/>
<path d="M233.416 229.628C233.331 228.933 233.313 228.238 233.282 227.536L233.234 225.438V221.247V221.204H233.276L243.762 221.076H243.829L243.866 221.113L244.214 221.46C244.311 221.589 244.396 221.723 244.488 221.851C244.66 222.109 244.819 222.375 244.964 222.65C245.244 223.199 245.488 223.76 245.726 224.321C246.184 225.456 246.586 226.609 246.946 227.768C247.306 228.927 247.672 230.092 247.977 231.269C248.282 232.447 248.587 233.636 248.77 234.85V234.905V234.954C248.508 235.521 248.2 236.066 247.849 236.582C247.514 237.095 247.16 237.595 246.8 238.095C246.084 239.083 245.348 240.059 244.592 241.023L244.488 241.151L244.378 241.029C242.636 239.037 240.772 237.155 238.797 235.393C237.815 234.502 236.82 233.624 235.856 232.715C235.375 232.257 234.899 231.8 234.46 231.3C233.976 230.84 233.618 230.265 233.416 229.628ZM233.416 229.628C233.62 230.26 233.978 230.831 234.46 231.288C234.905 231.782 235.387 232.239 235.869 232.691C236.845 233.587 237.845 234.46 238.833 235.332C240.855 237.045 242.772 238.879 244.573 240.822H244.36C245.092 239.846 245.804 238.858 246.495 237.857C246.836 237.351 247.178 236.845 247.501 236.338C247.836 235.842 248.129 235.32 248.38 234.777V234.88C248.172 233.703 247.873 232.526 247.556 231.355C247.239 230.183 246.904 229.024 246.544 227.865C246.184 226.706 245.787 225.566 245.324 224.443C245.104 223.882 244.86 223.333 244.598 222.79C244.358 222.26 244.033 221.774 243.634 221.351L243.738 221.387L233.252 221.259L233.295 221.216C233.27 222.615 233.27 224.012 233.295 225.407V227.506C233.325 228.231 233.337 228.933 233.416 229.628Z" fill="#263238"/>
<path d="M226.426 267.18C210.224 267.18 206.296 256.651 207.9 249.27C209.505 241.889 223.15 233.618 222.864 231.221C222.815 230.751 222.778 221.351 222.76 220.369H230.83C230.83 221.393 230.891 230.8 230.946 231.221C231.269 233.612 243.335 241.871 244.976 249.27C246.617 256.67 242.628 267.18 226.426 267.18Z" fill="#E29A4F"/>
<path d="M209.675 52.698C209.333 56.0825 208.053 59.3045 205.981 62.0023C203.909 64.7002 201.126 66.7669 197.944 67.9707C194.762 69.1745 191.308 69.4675 187.969 68.817C184.63 68.1665 181.538 66.5981 179.041 64.288L169.891 65.6361L174.478 57.7061C173.33 54.9148 172.898 51.8804 173.222 48.8794C173.78 44.0863 176.206 39.7066 179.972 36.6899C183.738 33.6733 188.542 32.2629 193.341 32.7646C198.141 33.2663 202.549 35.6396 205.61 39.3699C208.671 43.1003 210.138 47.8869 209.694 52.6919L209.675 52.698Z" fill="white"/>
<path d="M209.675 52.698C209.321 56.0777 208.042 59.2943 205.979 61.9944C205.462 62.665 204.906 63.3046 204.313 63.9098C203.703 64.4938 203.057 65.0398 202.38 65.5446C201.027 66.5609 199.538 67.3823 197.957 67.9846C196.375 68.6042 194.714 69.0005 193.022 69.1619C192.174 69.236 191.323 69.2523 190.473 69.2107C189.621 69.1907 188.772 69.103 187.935 68.9484C184.554 68.3242 181.413 66.7718 178.864 64.4649L179.084 64.532L169.934 65.9411L169.269 66.0448L169.604 65.4348L174.167 57.5048V57.8159C173.088 55.1908 172.625 52.3531 172.814 49.521C173.003 46.689 173.84 43.9381 175.259 41.4801C176.689 39.0404 178.651 36.9552 180.999 35.3801C183.348 33.8266 186.018 32.8244 188.809 32.4483C191.599 32.0722 194.439 32.3321 197.115 33.2085C199.767 34.1103 202.184 35.5919 204.191 37.5456C206.192 39.4917 207.726 41.8666 208.675 44.4913C209.625 47.1159 209.967 49.922 209.675 52.698ZM209.675 52.698C209.967 49.9374 209.621 47.1468 208.664 44.5409C207.708 41.935 206.166 39.5833 204.158 37.6666C202.15 35.75 199.729 34.3195 197.082 33.4853C194.434 32.6511 191.631 32.4353 188.887 32.8547C186.166 33.2649 183.576 34.2892 181.31 35.8498C179.067 37.4219 177.194 39.4639 175.82 41.8339C174.468 44.2111 173.671 46.8639 173.49 49.5931C173.32 52.3178 173.762 55.0461 174.783 57.578L174.85 57.7427L174.759 57.8891L170.147 65.8191L169.818 65.3372L179.005 64.0501H179.133L179.224 64.1355C181.673 66.4292 184.713 67.9946 188.002 68.6556C188.823 68.8213 189.655 68.9232 190.491 68.9606C193.009 69.1344 195.534 68.764 197.896 67.8748C199.48 67.3048 200.97 66.5031 202.319 65.4958C203.692 64.5147 204.908 63.3299 205.924 61.9822C208.009 59.2943 209.308 56.0803 209.675 52.698Z" fill="#263238"/>
<path d="M199.214 54.2473C197.159 57.0126 194.531 59.3015 191.509 60.9573C188.491 59.3003 185.865 57.0116 183.811 54.2473C181.103 50.6605 181.237 45.0424 185.111 43.8285C189.381 42.4865 191.509 48.9403 191.509 48.9403C191.509 48.9403 193.651 42.4438 197.914 43.8285C201.776 45.0851 201.91 50.6605 199.214 54.2473Z" fill="#E29A4F"/>
</svg>
