<svg width="21" height="21" viewBox="0 0 21 21" fill="none" xmlns="http://www.w3.org/2000/svg">
<g id="Group">
<path id="Vector" d="M1.24512 10.3008C1.24512 7.78122 2.24601 5.36486 4.0276 3.58327C5.8092 1.80167 8.22556 0.800781 10.7451 0.800781C13.2647 0.800781 15.681 1.80167 17.4626 3.58327C19.2442 5.36486 20.2451 7.78122 20.2451 10.3008V16.3452C20.2451 17.3522 20.2451 17.8533 20.0955 18.2558C19.9765 18.5748 19.7903 18.8645 19.5496 19.1053C19.3089 19.346 19.0192 19.5322 18.7002 19.6512C18.2976 19.8008 17.7953 19.8008 16.7895 19.8008H10.7451C8.22556 19.8008 5.8092 18.7999 4.0276 17.0183C2.24601 15.2367 1.24512 12.8203 1.24512 10.3008Z" fill="#E29A4F" stroke="white"/>
<g id="Vector_2">
<path d="M7.18262 9.11328H14.3076H7.18262ZM10.7451 13.8633H14.3076H10.7451Z" fill="#E29A4F"/>
<path d="M7.18262 9.11328H14.3076M10.7451 13.8633H14.3076" stroke="white" stroke-linecap="round" stroke-linejoin="round"/>
</g>
</g>
</svg>
