<svg width="21" height="21" viewBox="0 0 21 21" fill="none" xmlns="http://www.w3.org/2000/svg">
<g id="Group">
<path id="Vector" d="M0.980225 10.7029C0.980225 8.18339 1.98111 5.76702 3.76271 3.98543C5.54431 2.20383 7.96067 1.20294 10.4802 1.20294C12.9998 1.20294 15.4161 2.20383 17.1977 3.98543C18.9793 5.76702 19.9802 8.18339 19.9802 10.7029V16.7473C19.9802 17.7543 19.9802 18.2554 19.8306 18.658C19.7116 18.977 19.5255 19.2667 19.2847 19.5074C19.044 19.7482 18.7543 19.9343 18.4353 20.0533C18.0327 20.2029 17.5304 20.2029 16.5246 20.2029H10.4802C7.96067 20.2029 5.54431 19.2021 3.76271 17.4205C1.98111 15.6389 0.980225 13.2225 0.980225 10.7029Z" stroke="#7C7C7C"/>
<path id="Vector_2" d="M6.91772 9.51544H14.0427M10.4802 14.2654H14.0427" stroke="#7C7C7C" stroke-linecap="round" stroke-linejoin="round"/>
</g>
</svg>
