<svg width="21" height="21" viewBox="0 0 21 21" fill="none" xmlns="http://www.w3.org/2000/svg">
<g id="solar:wallet-outline">
<path id="Vector" d="M16.625 10.5C16.625 10.7321 16.5328 10.9546 16.3687 11.1187C16.2046 11.2828 15.9821 11.375 15.75 11.375C15.5179 11.375 15.2954 11.2828 15.1313 11.1187C14.9672 10.9546 14.875 10.7321 14.875 10.5C14.875 10.2679 14.9672 10.0454 15.1313 9.88128C15.2954 9.71719 15.5179 9.625 15.75 9.625C15.9821 9.625 16.2046 9.71719 16.3687 9.88128C16.5328 10.0454 16.625 10.2679 16.625 10.5Z" fill="#E29A4F"/>
<path id="Vector_2" fill-rule="evenodd" clip-rule="evenodd" d="M8.701 2.84375H11.424C13.0323 2.84375 14.3063 2.84375 15.3029 2.97763C16.3284 3.11588 17.1588 3.40637 17.8141 4.06087C18.6226 4.87025 18.8808 5.9535 18.9744 7.35962C19.4792 7.581 19.8608 8.05087 19.9019 8.64587C19.9063 8.69925 19.9063 8.75612 19.9063 8.80862V12.1914C19.9063 12.2439 19.9063 12.3007 19.9028 12.3532C19.8608 12.9482 19.4792 13.419 18.9744 13.6412C18.8808 15.0465 18.6226 16.1297 17.8141 16.9391C17.1588 17.5936 16.3284 17.8841 15.3029 18.0224C14.3054 18.1562 13.0323 18.1562 11.424 18.1562H8.701C7.09275 18.1562 5.81875 18.1562 4.82213 18.0224C3.79663 17.8841 2.96625 17.5936 2.31088 16.9391C1.65638 16.2837 1.36588 15.4534 1.22763 14.4279C1.09375 13.4304 1.09375 12.1572 1.09375 10.549V10.451C1.09375 8.84275 1.09375 7.56875 1.22763 6.57212C1.36588 5.54662 1.65638 4.71625 2.31088 4.06087C2.96625 3.40637 3.79663 3.11588 4.82213 2.97763C5.81963 2.84375 7.09275 2.84375 8.701 2.84375ZM17.647 13.7812H15.9513C14.0744 13.7812 12.4679 12.3567 12.4679 10.5C12.4679 8.64325 14.0744 7.21875 15.9504 7.21875H17.6461C17.5464 6.04537 17.3215 5.425 16.8849 4.98925C16.5148 4.61913 16.0073 4.39687 15.127 4.27875C14.2284 4.158 13.0428 4.15625 11.3741 4.15625H8.74913C7.0805 4.15625 5.89575 4.158 4.99538 4.27875C4.116 4.39687 3.6085 4.61913 3.23838 4.98925C2.86825 5.35938 2.646 5.86687 2.52788 6.74712C2.40712 7.64662 2.40538 8.83137 2.40538 10.5C2.40538 12.1686 2.40712 13.3542 2.52788 14.2537C2.646 15.1331 2.86825 15.6406 3.23838 16.0107C3.6085 16.3809 4.116 16.6031 4.99625 16.7212C5.89575 16.842 7.0805 16.8437 8.74913 16.8437H11.3741C13.0428 16.8437 14.2284 16.842 15.1279 16.7212C16.0073 16.6031 16.5148 16.3809 16.8849 16.0107C17.3215 15.575 17.5473 14.9555 17.647 13.7812ZM4.59375 7C4.59375 6.82595 4.66289 6.65903 4.78596 6.53596C4.90903 6.41289 5.07595 6.34375 5.25 6.34375H8.75C8.92405 6.34375 9.09097 6.41289 9.21404 6.53596C9.33711 6.65903 9.40625 6.82595 9.40625 7C9.40625 7.17405 9.33711 7.34097 9.21404 7.46404C9.09097 7.58711 8.92405 7.65625 8.75 7.65625H5.25C5.07595 7.65625 4.90903 7.58711 4.78596 7.46404C4.66289 7.34097 4.59375 7.17405 4.59375 7ZM18.3085 8.53125H15.9513C14.7053 8.53125 13.7804 9.45787 13.7804 10.5C13.7804 11.5421 14.7053 12.4687 15.9504 12.4687H18.3286C18.5089 12.4574 18.5868 12.3357 18.5929 12.2622V8.73775C18.5868 8.66425 18.5089 8.54262 18.3286 8.53212H18.3076L18.3085 8.53125Z" fill="#E29A4F"/>
</g>
</svg>
