<svg width="21" height="21" viewBox="0 0 21 21" fill="none" xmlns="http://www.w3.org/2000/svg">
<g id="material-symbols-light:language">
<path id="Vector" d="M10.5 18.375C9.41617 18.375 8.39533 18.1679 7.4375 17.7538C6.47967 17.3396 5.6455 16.7767 4.935 16.065C4.22333 15.3551 3.66042 14.5209 3.24625 13.5625C2.83208 12.6047 2.625 11.5838 2.625 10.5C2.625 9.41325 2.83208 8.39154 3.24625 7.43487C3.661 6.47821 4.22392 5.64462 4.935 4.93412C5.64492 4.22362 6.47908 3.66129 7.4375 3.24712C8.39533 2.83237 9.41617 2.625 10.5 2.625C11.5868 2.625 12.6085 2.83208 13.5651 3.24625C14.5218 3.661 15.3554 4.22392 16.0659 4.935C16.7764 5.6455 17.3387 6.47879 17.7529 7.43487C18.1676 8.39154 18.375 9.41325 18.375 10.5C18.375 11.5838 18.1679 12.6047 17.7538 13.5625C17.3396 14.5203 16.7767 15.3545 16.065 16.065C15.3545 16.7761 14.5212 17.339 13.5651 17.7538C12.6085 18.1679 11.5868 18.375 10.5 18.375ZM10.5 17.507C11.0133 16.8472 11.4368 16.1995 11.7705 15.5636C12.1036 14.9278 12.3745 14.2161 12.5834 13.4286H8.41663C8.64763 14.2605 8.92413 14.9943 9.24613 15.6301C9.56813 16.266 9.98608 16.8916 10.5 17.507ZM9.38613 17.3757C8.97779 16.8945 8.60504 16.2995 8.26788 15.5908C7.93071 14.8826 7.67987 14.1616 7.51537 13.4277H4.15887C4.66054 14.5162 5.37133 15.4088 6.29125 16.1053C7.21175 16.8018 8.24308 17.2253 9.38525 17.3757H9.38613ZM11.6139 17.3757C12.756 17.2253 13.7874 16.8018 14.7079 16.1053C15.6284 15.4088 16.3392 14.5162 16.8403 13.4277H13.4855C13.2638 14.1727 12.9847 14.8995 12.6481 15.6082C12.311 16.3164 11.9662 16.9056 11.6139 17.3757ZM3.80275 12.5527H7.33337C7.26687 12.194 7.22021 11.8443 7.19337 11.5036C7.16537 11.163 7.15138 10.8284 7.15138 10.5C7.15138 10.1716 7.16508 9.83704 7.1925 9.49637C7.21992 9.15571 7.26658 8.80571 7.3325 8.44637H3.80363C3.70854 8.74971 3.63417 9.08017 3.5805 9.43775C3.52683 9.79533 3.5 10.1494 3.5 10.5C3.5 10.8512 3.52654 11.2052 3.57963 11.5623C3.63329 11.9198 3.70767 12.25 3.80275 12.5527ZM8.20837 12.5527H12.7916C12.8581 12.194 12.9048 11.8498 12.9316 11.5203C12.9596 11.1913 12.9736 10.8512 12.9736 10.5C12.9736 10.1488 12.9599 9.80875 12.9325 9.47975C12.9051 9.15017 12.8584 8.806 12.7925 8.44725H8.2075C8.14158 8.806 8.09492 9.15017 8.0675 9.47975C8.04008 9.80875 8.02638 10.1488 8.02638 10.5C8.02638 10.8512 8.04008 11.1913 8.0675 11.5203C8.09492 11.8498 8.14246 12.194 8.20837 12.5527ZM13.6666 12.5527H17.1972C17.2923 12.2494 17.3667 11.9192 17.4204 11.5623C17.474 11.2052 17.5006 10.8512 17.5 10.5C17.5 10.1488 17.4735 9.79475 17.4204 9.43775C17.3667 9.08017 17.2923 8.75 17.1972 8.44725H13.6666C13.7331 8.806 13.7798 9.15571 13.8066 9.49637C13.8346 9.83704 13.8486 10.1716 13.8486 10.5C13.8486 10.8284 13.8349 11.163 13.8075 11.5036C13.7801 11.8443 13.7334 12.1943 13.6675 12.5536L13.6666 12.5527ZM13.4855 7.57225H16.8403C16.3275 6.46158 15.6252 5.56908 14.7332 4.89475C13.8407 4.22042 12.801 3.79167 11.6139 3.6085C12.0222 4.14517 12.3894 4.75942 12.7155 5.45125C13.041 6.1425 13.2977 6.8495 13.4855 7.57225ZM8.41663 7.57225H12.5834C12.3524 6.75092 12.0674 6.00833 11.7285 5.3445C11.3902 4.68008 10.9807 4.06292 10.5 3.493C10.0199 4.06292 9.61042 4.68008 9.2715 5.3445C8.93317 6.00833 8.64821 6.75092 8.41663 7.57225ZM4.15975 7.57225H7.5145C7.70233 6.8495 7.959 6.1425 8.2845 5.45125C8.61058 4.75942 8.97779 4.14488 9.38613 3.60763C8.18796 3.79138 7.14554 4.22304 6.25887 4.90263C5.37221 5.58279 4.67221 6.47237 4.15887 7.57137L4.15975 7.57225Z" fill="#D0C800"/>
</g>
</svg>
