<svg width="19" height="19" viewBox="0 0 19 19" fill="none" xmlns="http://www.w3.org/2000/svg">
<g id="Heart">
<path id="Vector" d="M9.17159 4.18999L9.50154 4.47976L9.83148 4.18998C10.696 3.43075 11.8219 3.03758 12.971 3.09365C14.1202 3.14971 15.2025 3.65062 15.989 4.4904C16.7754 5.33018 17.2043 6.44296 17.185 7.59334C17.1657 8.74372 16.6996 9.84146 15.8854 10.6543L15.8851 10.6546L11.7487 14.791L11.7486 14.7911L9.50003 17.0383L4.09046 11.6295L4.09015 11.6291L3.11671 10.6541L3.11621 10.6536C2.30223 9.84062 1.8364 8.74288 1.81726 7.59259C1.79813 6.4423 2.22718 5.32967 3.01367 4.49004C3.80016 3.65042 4.88241 3.14964 6.0315 3.09364C7.18066 3.03764 8.30724 3.43086 9.17159 4.18999Z" stroke="#F44336"/>
</g>
</svg>
