<svg width="21" height="21" viewBox="0 0 21 21" fill="none" xmlns="http://www.w3.org/2000/svg">
<g id="material-symbols-light:help-outline">
<path id="Vector" d="M10.5245 15.0763C10.7182 15.0763 10.8815 15.0098 11.0145 14.8768C11.1469 14.7426 11.2131 14.5792 11.2131 14.3867C11.2131 14.1931 11.1463 14.0297 11.0128 13.8967C10.8792 13.7638 10.7158 13.6973 10.5227 13.6973C10.3291 13.6973 10.1657 13.764 10.0327 13.8976C9.89975 14.0312 9.83325 14.1945 9.83325 14.3876C9.83325 14.5813 9.90033 14.7446 10.0345 14.8776C10.1675 15.0106 10.3308 15.0771 10.5245 15.0771V15.0763ZM10.073 12.18H10.9174C10.9395 11.7991 11.011 11.4899 11.1318 11.2525C11.2525 11.0145 11.5007 10.7112 11.8764 10.3425C12.2672 9.95167 12.5577 9.60167 12.7479 9.2925C12.9386 8.98333 13.034 8.62575 13.034 8.21975C13.034 7.53025 12.7919 6.98075 12.3077 6.57125C11.823 6.16175 11.2496 5.957 10.5875 5.957C9.95808 5.957 9.42375 6.12792 8.9845 6.46975C8.54525 6.81217 8.22354 7.20533 8.01937 7.64925L8.82438 7.98263C8.96438 7.66412 9.16475 7.38267 9.4255 7.13825C9.68625 6.89325 10.0625 6.77075 10.5543 6.77075C11.1218 6.77075 11.536 6.9265 11.7968 7.238C12.0587 7.5495 12.1896 7.89192 12.1896 8.26525C12.1896 8.56858 12.1077 8.83925 11.9437 9.07725C11.7804 9.31583 11.5675 9.55558 11.305 9.7965C10.7975 10.2643 10.465 10.661 10.3075 10.9865C10.1512 11.3114 10.073 11.709 10.073 12.1791V12.18ZM10.5026 18.375C9.41413 18.375 8.39038 18.1685 7.43138 17.7555C6.47296 17.3419 5.63908 16.7808 4.92975 16.072C4.22042 15.3638 3.65896 14.5308 3.24538 13.573C2.83179 12.6152 2.625 11.5917 2.625 10.5026C2.625 9.41413 2.8315 8.39038 3.2445 7.43138C3.65808 6.47296 4.21925 5.63908 4.928 4.92975C5.63617 4.22042 6.46917 3.65896 7.427 3.24538C8.38483 2.83179 9.40829 2.625 10.4974 2.625C11.5859 2.625 12.6096 2.8315 13.5686 3.2445C14.527 3.65808 15.3609 4.21925 16.0702 4.928C16.7796 5.63617 17.341 6.46917 17.7546 7.427C18.1682 8.38483 18.375 9.40829 18.375 10.4974C18.375 11.5859 18.1685 12.6096 17.7555 13.5686C17.3419 14.527 16.7808 15.3609 16.072 16.0702C15.3638 16.7796 14.5308 17.341 13.573 17.7546C12.6152 18.1682 11.5917 18.375 10.5026 18.375ZM10.5 17.5C12.4542 17.5 14.1094 16.8219 15.4656 15.4656C16.8219 14.1094 17.5 12.4542 17.5 10.5C17.5 8.54583 16.8219 6.89062 15.4656 5.53437C14.1094 4.17812 12.4542 3.5 10.5 3.5C8.54583 3.5 6.89062 4.17812 5.53437 5.53437C4.17812 6.89062 3.5 8.54583 3.5 10.5C3.5 12.4542 4.17812 14.1094 5.53437 15.4656C6.89062 16.8219 8.54583 17.5 10.5 17.5Z" fill="#FA00FF"/>
</g>
</svg>
