<svg width="21" height="21" viewBox="0 0 21 21" fill="none" xmlns="http://www.w3.org/2000/svg">
<path id="Vector" d="M20.0119 18.9967L20.122 8.7433C20.124 8.55603 20.0831 8.37088 20.0025 8.20249C19.9218 8.03411 19.8037 7.88712 19.6574 7.77318L11.4134 1.35093C11.2096 1.19213 10.9605 1.10479 10.7036 1.10203C10.4466 1.09927 10.1957 1.18124 9.9885 1.33563L1.60847 7.57933C1.45978 7.6901 1.33852 7.83452 1.25428 8.00113C1.17004 8.16774 1.12514 8.35198 1.12313 8.53925L1.013 18.7926C1.00957 19.1126 1.13138 19.4207 1.35163 19.6493C1.57189 19.8779 1.87255 20.0083 2.18748 20.0117L6.9372 20.0627C7.25213 20.0661 7.55552 19.9422 7.78064 19.7184C8.00576 19.4945 8.13416 19.1891 8.13759 18.8691L8.17646 15.2503C8.1799 14.9304 8.3083 14.6249 8.53341 14.4011C8.75853 14.1772 9.06192 14.0534 9.37685 14.0568L11.7517 14.0823C12.0666 14.0857 12.3673 14.216 12.5876 14.4446C12.8078 14.6732 12.9296 14.9814 12.9262 15.3013L12.8873 18.9202C12.8839 19.2401 13.0057 19.5482 13.2259 19.7769C13.4462 20.0055 13.7469 20.1358 14.0618 20.1392L18.8115 20.1902C19.1264 20.1936 19.4298 20.0697 19.655 19.8459C19.8801 19.6221 20.0085 19.3166 20.0119 18.9967Z" fill="#E29A4F" stroke="#E29A4F" stroke-linecap="round" stroke-linejoin="round"/>
</svg>
