<svg width="15" height="18" viewBox="0 0 15 18" fill="none" xmlns="http://www.w3.org/2000/svg">
<path id="Vector" d="M7.5 0.5C9.3519 0.5 11.1309 1.25655 12.4448 2.608C13.7592 3.95993 14.5 5.79646 14.5 7.71429C14.5 10.6584 12.3074 13.8743 7.6946 17.4327L8 17.8286L7.6946 17.4327C7.63687 17.4772 7.56856 17.5 7.5 17.5C7.43144 17.5 7.36313 17.4772 7.3054 17.4327L7 17.8286L7.3054 17.4327C2.69263 13.8743 0.5 10.6584 0.5 7.71429C0.5 5.79646 1.24082 3.95993 2.5552 2.608C3.86911 1.25655 5.6481 0.5 7.5 0.5ZM7.5 4.64286C6.69973 4.64286 5.93519 4.96998 5.37373 5.54747C4.81275 6.12449 4.5 6.90417 4.5 7.71429C4.5 8.52441 4.81275 9.30408 5.37373 9.8811C5.93519 10.4586 6.69973 10.7857 7.5 10.7857C8.30027 10.7857 9.06481 10.4586 9.62626 9.8811C10.1873 9.30408 10.5 8.52441 10.5 7.71429C10.5 6.90417 10.1873 6.12449 9.62626 5.54747C9.06481 4.96998 8.30027 4.64286 7.5 4.64286Z" stroke="#1BAC4B"/>
</svg>
