<svg width="41" height="32" viewBox="0 0 41 32" fill="none" xmlns="http://www.w3.org/2000/svg">
<g id="logos:mastercard" clip-path="url(#clip0_71_12440)">
<path id="Vector" d="M7.45605 31.841V29.723C7.45605 28.9109 6.96381 28.3816 6.12011 28.3816C5.69833 28.3816 5.24133 28.5228 4.92492 28.9817C4.67896 28.5934 4.32748 28.3816 3.80018 28.3816C3.44855 28.3816 3.09723 28.4874 2.81588 28.8757V28.4522H2.0777V31.841H2.81588V29.97C2.81588 29.37 3.13229 29.0875 3.62453 29.0875C4.11644 29.0875 4.36271 29.4053 4.36271 29.97V31.841H5.1009V29.97C5.1009 29.37 5.45222 29.0875 5.90922 29.0875C6.40145 29.0875 6.6474 29.4053 6.6474 29.97V31.841H7.45605ZM18.3881 28.4522H17.1931V27.4285H16.4549V28.4522H15.787V29.1227H16.4547V30.6761C16.4547 31.4528 16.7711 31.9116 17.6148 31.9116C17.9312 31.9116 18.2826 31.8057 18.5288 31.6646L18.3178 31.0291C18.1069 31.1702 17.8609 31.2056 17.6851 31.2056C17.3336 31.2056 17.1931 30.9938 17.1931 30.6407V29.1227H18.3881V28.4522ZM24.6452 28.3814C24.2234 28.3814 23.9422 28.5934 23.7664 28.8757V28.4522H23.0282V31.841H23.7664V29.9348C23.7664 29.37 24.0124 29.0523 24.4694 29.0523C24.61 29.0523 24.7858 29.0877 24.9264 29.1229L25.1373 28.417C24.9967 28.3816 24.7858 28.3816 24.6452 28.3816V28.3814ZM15.1894 28.7345C14.8377 28.4874 14.3457 28.3816 13.8184 28.3816C12.9748 28.3816 12.4125 28.8051 12.4125 29.4759C12.4125 30.0408 12.8342 30.3583 13.5724 30.4643L13.9239 30.4997C14.3106 30.5701 14.5215 30.6761 14.5215 30.8527C14.5215 31.0997 14.2403 31.2762 13.7481 31.2762C13.256 31.2762 12.8693 31.0997 12.6232 30.9233L12.2717 31.488C12.6584 31.7704 13.1857 31.9116 13.7129 31.9116C14.6972 31.9116 15.2597 31.4528 15.2597 30.8173C15.2597 30.2172 14.8027 29.8994 14.0996 29.7936L13.7481 29.7582C13.4317 29.7228 13.1857 29.6524 13.1857 29.4406C13.1857 29.1935 13.4317 29.0523 13.8184 29.0523C14.2403 29.0523 14.6621 29.2287 14.873 29.3347L15.1894 28.7345ZM34.8041 28.3816C34.3822 28.3816 34.101 28.5934 33.9252 28.8757V28.4522H33.187V31.841H33.9252V29.9348C33.9252 29.37 34.1713 29.0523 34.6282 29.0523C34.7689 29.0523 34.9447 29.0877 35.0853 29.1229L35.2962 28.417C35.1556 28.3816 34.9447 28.3816 34.8041 28.3816ZM25.3834 30.1466C25.3834 31.1702 26.0863 31.9116 27.1762 31.9116C27.6682 31.9116 28.0197 31.8057 28.3712 31.5234L28.0197 30.9233C27.7385 31.135 27.4574 31.2408 27.1409 31.2408C26.5434 31.2408 26.1216 30.8173 26.1216 30.1466C26.1216 29.5112 26.5434 29.0875 27.1409 29.0523C27.4574 29.0523 27.7385 29.1581 28.0197 29.37L28.3712 28.7699C28.0197 28.4874 27.6682 28.3816 27.1762 28.3816C26.0863 28.3816 25.3834 29.1229 25.3834 30.1466ZM32.2029 30.1466V28.4522H31.4647V28.8757C31.2186 28.5581 30.8671 28.3816 30.4101 28.3816C29.461 28.3816 28.7228 29.1229 28.7228 30.1466C28.7228 31.1702 29.461 31.9116 30.4101 31.9116C30.9022 31.9116 31.2538 31.7351 31.4647 31.4174V31.841H32.2029V30.1466ZM29.4961 30.1466C29.4961 29.5464 29.8828 29.0523 30.5155 29.0523C31.1131 29.0523 31.535 29.5112 31.535 30.1466C31.535 30.7467 31.1131 31.2408 30.5155 31.2408C29.8828 31.2055 29.4961 30.7467 29.4961 30.1466ZM20.6731 28.3816C19.6888 28.3816 18.9857 29.0875 18.9857 30.1466C18.9857 31.2056 19.6886 31.9116 20.7082 31.9116C21.2002 31.9116 21.6925 31.7704 22.0792 31.4528L21.7275 30.9233C21.4463 31.135 21.0949 31.2762 20.7434 31.2762C20.2864 31.2762 19.8294 31.0644 19.7239 30.4642H22.2198V30.1819C22.255 29.0875 21.6223 28.3816 20.6731 28.3816ZM20.6731 29.0169C21.1299 29.0169 21.4465 29.2995 21.5166 29.829H19.7591C19.8294 29.37 20.1458 29.0169 20.6731 29.0169ZM38.9871 30.1466V27.1107H38.249V28.8757C38.0028 28.5581 37.6514 28.3816 37.1944 28.3816C36.2453 28.3816 35.5071 29.1229 35.5071 30.1466C35.5071 31.1702 36.2453 31.9116 37.1944 31.9116C37.6866 31.9116 38.0381 31.7351 38.249 31.4174V31.841H38.9871V30.1466ZM36.2805 30.1466C36.2805 29.5464 36.6671 29.0523 37.2999 29.0523C37.8975 29.0523 38.3193 29.5112 38.3193 30.1466C38.3193 30.7467 37.8975 31.2408 37.2999 31.2408C36.6671 31.2055 36.2805 30.7467 36.2805 30.1466ZM11.6038 30.1466V28.4522H10.8656V28.8757C10.6195 28.5581 10.268 28.3816 9.81103 28.3816C8.86196 28.3816 8.12378 29.1229 8.12378 30.1466C8.12378 31.1702 8.86196 31.9116 9.81103 31.9116C10.3033 31.9116 10.6547 31.7351 10.8656 31.4174V31.841H11.6038V30.1466ZM8.86196 30.1466C8.86196 29.5464 9.24867 29.0523 9.88133 29.0523C10.4789 29.0523 10.9009 29.5112 10.9009 30.1466C10.9009 30.7467 10.4789 31.2408 9.88133 31.2408C9.24867 31.2055 8.86196 30.7467 8.86196 30.1466Z" fill="black"/>
<path id="Vector_2" d="M14.9433 2.71808H26.0161V22.6981H14.9433V2.71808Z" fill="#FF5F00"/>
<path id="Vector_3" d="M15.6463 12.7082C15.6463 8.64868 17.5444 5.04796 20.4619 2.71807C18.3178 1.02368 15.6112 0 12.6585 0C5.663 0 0.00363159 5.6833 0.00363159 12.7082C0.00363159 19.7329 5.663 25.4164 12.6583 25.4164C15.6111 25.4164 18.3177 24.3927 20.4619 22.6981C17.5444 20.4036 15.6463 16.7677 15.6463 12.7082Z" fill="#EB001B"/>
<path id="Vector_4" d="M40.9556 12.7082C40.9556 19.7329 35.2962 25.4164 28.3009 25.4164C25.3482 25.4164 22.6415 24.3927 20.4973 22.6981C23.45 20.3684 25.3131 16.7677 25.3131 12.7082C25.3131 8.64868 23.4148 5.04796 20.4973 2.71807C22.6414 1.02368 25.3482 0 28.3009 0C35.2962 0 40.9556 5.71867 40.9556 12.7082Z" fill="#F79E1B"/>
</g>
<defs>
<clipPath id="clip0_71_12440">
<rect width="41" height="32" fill="white"/>
</clipPath>
</defs>
</svg>
