<svg width="19" height="19" viewBox="0 0 19 19" fill="none" xmlns="http://www.w3.org/2000/svg">
<g id="mynaui:users">
<g id="Group">
<path id="Vector" d="M16.625 15.6357C16.625 13.9812 15.3029 11.6236 13.4583 11.1019M11.875 15.6357C11.875 13.537 9.74858 10.8857 7.125 10.8857C4.50142 10.8857 2.375 13.537 2.375 15.6357" stroke="#455A64" stroke-width="0.9375" stroke-linecap="round" stroke-linejoin="round"/>
<path id="Vector_2" d="M7.125 8.11475C8.43668 8.11475 9.5 7.05142 9.5 5.73975C9.5 4.42807 8.43668 3.36475 7.125 3.36475C5.81332 3.36475 4.75 4.42807 4.75 5.73975C4.75 7.05142 5.81332 8.11475 7.125 8.11475Z" stroke="#455A64" stroke-width="0.9375" stroke-linecap="round" stroke-linejoin="round"/>
<path id="Vector_3" d="M11.875 8.11475C12.5049 8.11475 13.109 7.86452 13.5544 7.41913C13.9998 6.97373 14.25 6.36964 14.25 5.73975C14.25 5.10986 13.9998 4.50577 13.5544 4.06037C13.109 3.61497 12.5049 3.36475 11.875 3.36475" stroke="#455A64" stroke-width="0.9375" stroke-linecap="round" stroke-linejoin="round"/>
</g>
</g>
</svg>
