<svg width="19" height="19" viewBox="0 0 19 19" fill="none" xmlns="http://www.w3.org/2000/svg">
<g id="mi:notification">
<path id="Vector" d="M8.07185 2.71619L8.14345 2.69659L8.1713 2.62778C8.27838 2.36312 8.46205 2.13647 8.69878 1.97688C8.9355 1.81729 9.2145 1.73203 9.5 1.73203C9.78549 1.73203 10.0645 1.81729 10.3012 1.97688C10.5379 2.13647 10.7216 2.36312 10.8287 2.62778L10.8565 2.69649L10.928 2.71615C12.067 3.02939 13.0717 3.70788 13.7877 4.64742C14.5038 5.58695 14.8916 6.73556 14.8917 7.91686V11.6353V11.6807L14.9169 11.7185L16.3672 13.894L16.3672 13.8941C16.4317 13.9907 16.4687 14.103 16.4744 14.2191C16.48 14.3351 16.454 14.4505 16.3992 14.5529C16.3444 14.6553 16.2628 14.741 16.1632 14.8007C16.0635 14.8603 15.9495 14.8919 15.8334 14.8919H15.8333H12.2431H12.1132L12.0947 15.0204C12.0045 15.6442 11.6926 16.2147 11.2161 16.6273C10.7396 17.0399 10.1303 17.267 9.5 17.267C8.86967 17.267 8.26044 17.0399 7.78392 16.6273C7.3074 16.2147 6.99549 15.6442 6.90533 15.0204L6.88675 14.8919H6.75687H3.16666H3.16664C3.05047 14.8919 2.93648 14.8603 2.83682 14.8007C2.73716 14.741 2.65558 14.6553 2.60077 14.5529C2.54597 14.4505 2.52 14.3351 2.52563 14.2191C2.53127 14.103 2.5683 13.9907 2.63277 13.8941L2.6328 13.894L4.08314 11.7185L4.10833 11.6807V11.6353V7.91685C4.10833 5.4338 5.78732 3.34163 8.07185 2.71619ZM8.37979 15.0419V15.0421L8.23913 15.0918C8.33122 15.3527 8.50198 15.5787 8.72787 15.7385C8.95377 15.8983 9.22367 15.9842 9.50039 15.9842C9.77711 15.9842 10.047 15.8983 10.2729 15.7385C10.4988 15.5787 10.6696 15.3527 10.7617 15.0918L10.8322 14.8919H10.6202H8.48671H8.38058H8.37979V15.0419ZM5.39166 11.8752V11.8752C5.39169 12.002 5.35418 12.1259 5.28386 12.2313L5.28384 12.2314L4.52147 13.3753L4.36606 13.6085H4.64629H14.3529H14.6331L14.4777 13.3753L13.7155 12.2316C13.7155 12.2315 13.7154 12.2315 13.7154 12.2315C13.6454 12.126 13.6081 12.0021 13.6083 11.8754V11.8752V7.91685C13.6083 6.82725 13.1755 5.78228 12.405 5.01182C11.6346 4.24136 10.5896 3.80852 9.5 3.80852C8.4104 3.80852 7.36543 4.24136 6.59497 5.01182C5.8245 5.78228 5.39166 6.82725 5.39166 7.91685V11.8752Z" fill="#0063F7" stroke="#D6E3F6" stroke-width="0.3"/>
</g>
</svg>
