<svg width="19" height="19" viewBox="0 0 19 19" fill="none" xmlns="http://www.w3.org/2000/svg">
<g id="fluent:payment-28-regular">
<path id="Vector" d="M12.3839 11.1966C12.249 11.1966 12.1195 11.2503 12.0241 11.3457C11.9286 11.4411 11.875 11.5706 11.875 11.7056C11.875 11.8405 11.9286 11.97 12.0241 12.0654C12.1195 12.1609 12.249 12.2145 12.3839 12.2145H14.7589C14.8939 12.2145 15.0234 12.1609 15.1188 12.0654C15.2142 11.97 15.2679 11.8405 15.2679 11.7056C15.2679 11.5706 15.2142 11.4411 15.1188 11.3457C15.0234 11.2503 14.8939 11.1966 14.7589 11.1966H12.3839ZM1.35986 5.93771C1.35986 5.26283 1.62796 4.61559 2.10517 4.13838C2.58238 3.66116 3.22962 3.39307 3.90451 3.39307H15.0982C15.7731 3.39307 16.4203 3.66116 16.8976 4.13838C17.3748 4.61559 17.6429 5.26283 17.6429 5.93771V13.0627C17.6429 13.7376 17.3748 14.3848 16.8976 14.862C16.4203 15.3393 15.7731 15.6074 15.0982 15.6074H3.90518C3.2303 15.6074 2.58306 15.3393 2.10585 14.862C1.62864 14.3848 1.36054 13.7376 1.36054 13.0627V5.93771H1.35986ZM3.90451 4.41092C3.49958 4.41092 3.11123 4.57178 2.82491 4.85811C2.53858 5.14444 2.37772 5.53278 2.37772 5.93771V6.44664H16.625V5.93771C16.625 5.53278 16.4641 5.14444 16.1778 4.85811C15.8915 4.57178 15.5031 4.41092 15.0982 4.41092H3.90451ZM2.37772 13.0627C2.37772 13.4676 2.53858 13.856 2.82491 14.1423C3.11123 14.4286 3.49958 14.5895 3.90451 14.5895H15.0982C15.5031 14.5895 15.8915 14.4286 16.1778 14.1423C16.4641 13.856 16.625 13.4676 16.625 13.0627V7.46449H2.3784V13.0627H2.37772Z" fill="#00D2C5"/>
</g>
</svg>
