<svg width="29" height="34" viewBox="0 0 29 34" fill="none" xmlns="http://www.w3.org/2000/svg">
<g id="logos:paypal" clip-path="url(#clip0_67_12435)">
<path id="Vector" d="M24.5973 2.64647C23.0194 0.858434 20.1672 0.0918579 16.5183 0.0918579H5.92817C5.56715 0.0918712 5.21797 0.219925 4.94342 0.452998C4.66886 0.68607 4.48694 1.00887 4.43036 1.36337L0.0208422 29.1676C-0.0668046 29.7159 0.360219 30.2124 0.919165 30.2124H7.45712L9.09908 19.858L9.04813 20.1823C9.1651 19.4504 9.79471 18.9105 10.5403 18.9105H13.6471C19.7504 18.9105 24.5295 16.4459 25.9255 9.3161C25.9669 9.10524 26.0028 8.9 26.0338 8.69949C25.8576 8.60672 25.8576 8.60672 26.0338 8.69949C26.4495 6.06426 26.031 4.27048 24.5973 2.64647Z" fill="#27346A"/>
<path id="Vector_2" d="M11.6008 7.75019C11.7795 7.66557 11.975 7.62173 12.1729 7.62184H20.4754C21.4585 7.62184 22.3755 7.68545 23.2135 7.81954C23.448 7.85671 23.6813 7.90109 23.913 7.95261C24.2414 8.02467 24.566 8.11285 24.8857 8.21684C25.2977 8.35363 25.6813 8.51294 26.0339 8.69949C26.4495 6.06325 26.031 4.27048 24.5973 2.64647C23.0185 0.858434 20.1672 0.0918579 16.5183 0.0918579H5.92726C5.18159 0.0918579 4.54722 0.63158 4.43036 1.36337L0.0208428 29.1666C-0.066804 29.7158 0.360219 30.2116 0.91826 30.2116H7.45712L10.8637 8.73416C10.8972 8.52306 10.9818 8.3232 11.1102 8.1518C11.2386 7.98039 11.4069 7.84257 11.6008 7.75019Z" fill="#27346A"/>
<path id="Vector_3" d="M25.9254 9.31611C24.5294 16.4449 19.7505 18.9105 13.6471 18.9105H10.5394C9.79379 18.9105 9.16407 19.4504 9.04822 20.1823L7.00551 33.0567C6.92919 33.5365 7.30242 33.9713 7.79071 33.9713H13.302C13.6177 33.9712 13.9231 33.8591 14.1631 33.6552C14.4031 33.4513 14.5621 33.169 14.6114 32.859L14.6651 32.5798L15.7038 26.0347L15.7708 25.6729C15.8201 25.3629 15.979 25.0806 16.219 24.8767C16.459 24.6728 16.7643 24.5607 17.08 24.5606H17.9049C23.2437 24.5606 27.4242 22.4042 28.6458 16.1676C29.1557 13.5613 28.8918 11.3853 27.5429 9.85684C27.1338 9.3939 26.6257 9.01157 26.0338 8.69949C26.0018 8.90102 25.967 9.10524 25.9254 9.31611Z" fill="#2790C3"/>
<path id="Vector_4" d="M24.5728 8.12037C24.3551 8.05717 24.1354 8.00123 23.914 7.95262C23.6821 7.90194 23.4489 7.85786 23.2145 7.82045C22.3756 7.68546 21.4593 7.62174 20.4753 7.62174H12.1738C11.9757 7.62129 11.7801 7.66552 11.6016 7.7511C11.4076 7.8432 11.239 7.98094 11.1106 8.15239C10.9821 8.32384 10.8976 8.52384 10.8645 8.73507L9.09997 19.858L9.04901 20.1823C9.16508 19.4504 9.79469 18.9105 10.5404 18.9105H13.6481C19.7514 18.9105 24.5303 16.4459 25.9263 9.31611C25.9679 9.10524 26.0028 8.9009 26.0348 8.69949C25.6813 8.51396 25.2987 8.35364 24.8866 8.21775C24.7826 8.18348 24.678 8.15101 24.5729 8.12037" fill="#1F264F"/>
</g>
<defs>
<clipPath id="clip0_67_12435">
<rect width="29" height="34" fill="white"/>
</clipPath>
</defs>
</svg>
