<svg width="28" height="28" viewBox="0 0 28 28" fill="none" xmlns="http://www.w3.org/2000/svg">
<g id="basil:edit-solid">
<path id="Vector" d="M19.2233 3.50457C19.4181 3.52207 19.5033 3.76007 19.3633 3.89891L9.65662 13.6056C9.54696 13.7153 9.46845 13.8522 9.42912 14.0022L8.26245 18.4706C8.22394 18.6182 8.22471 18.7734 8.2647 18.9207C8.30469 19.068 8.3825 19.2022 8.49041 19.3101C8.59832 19.418 8.73257 19.4958 8.87984 19.5358C9.02712 19.5758 9.18229 19.5766 9.32995 19.5381L13.7971 18.3714C13.9473 18.3317 14.0842 18.2528 14.1938 18.1427L24.0381 8.29841C24.0689 8.26679 24.1081 8.24466 24.1511 8.23463C24.1941 8.2246 24.2391 8.2271 24.2807 8.24183C24.3223 8.25656 24.3588 8.2829 24.3859 8.31774C24.413 8.35258 24.4296 8.39445 24.4336 8.43841C24.8432 12.3463 24.8197 16.2875 24.3636 20.1902C24.1035 22.4127 22.3173 24.1569 20.103 24.4054C16.0472 24.855 11.9542 24.855 7.89845 24.4054C5.68295 24.1569 3.89678 22.4127 3.63662 20.1902C3.15563 16.0778 3.15563 11.9232 3.63662 7.81074C3.89678 5.58707 5.68295 3.84291 7.89845 3.59557C11.6604 3.17867 15.4551 3.14818 19.2233 3.50457Z" fill="#E29A4F"/>
<path id="Vector_2" d="M20.7935 4.94311C20.8206 4.91595 20.8528 4.8944 20.8882 4.87969C20.9236 4.86499 20.9616 4.85742 21 4.85742C21.0383 4.85742 21.0763 4.86499 21.1118 4.87969C21.1472 4.8944 21.1794 4.91595 21.2065 4.94311L22.8561 6.59394C22.9106 6.64861 22.9413 6.72266 22.9413 6.79986C22.9413 6.87706 22.9106 6.9511 22.8561 7.00578L13.181 16.6833C13.1441 16.7198 13.0982 16.746 13.048 16.7591L10.815 17.3424C10.7658 17.3553 10.714 17.355 10.6649 17.3417C10.6159 17.3284 10.5711 17.3024 10.5351 17.2665C10.4992 17.2305 10.4732 17.1857 10.4599 17.1366C10.4466 17.0876 10.4463 17.0358 10.4591 16.9866L11.0425 14.7536C11.0555 14.7033 11.0816 14.6574 11.1183 14.6206L20.7935 4.94311Z" fill="#E29A4F"/>
</g>
</svg>
