<svg width="52" height="17" viewBox="0 0 52 17" fill="none" xmlns="http://www.w3.org/2000/svg">
<g id="logos:visa" clip-path="url(#clip0_71_12445)">
<path id="Vector" d="M26.893 5.41297C26.8634 7.77167 28.9775 9.08784 30.57 9.87045C32.2062 10.6733 32.7558 11.1883 32.7493 11.9064C32.7371 13.0052 31.4442 13.4902 30.2343 13.5091C28.1234 13.542 26.8961 12.9343 25.9204 12.4747L25.16 16.063C26.1389 16.5179 27.9516 16.9146 29.8313 16.932C34.2438 16.932 37.1305 14.7355 37.1461 11.33C37.1634 7.0079 31.2179 6.76867 31.2586 4.83681C31.2726 4.25103 31.8268 3.62592 33.0414 3.46698C33.6426 3.38669 35.3021 3.32525 37.1837 4.19901L37.9222 0.727322C36.9103 0.35578 35.6098 7.62939e-06 33.9907 7.62939e-06C29.8376 7.62939e-06 26.9166 2.22639 26.893 5.41297ZM45.0182 0.299044C44.2125 0.299044 43.5335 0.772995 43.2305 1.50031L36.9276 16.677H41.3367L42.2141 14.2317H47.6021L48.111 16.677H51.9972L48.606 0.299044H45.0182ZM45.635 4.72335L46.9075 10.8735H43.4226L45.635 4.72335ZM21.5472 0.29925L18.0717 16.6768H22.2733L25.7471 0.29884H21.5472M15.3316 0.29884L10.9584 11.4465L9.18934 1.96812C8.98177 0.910021 8.16205 0.299044 7.25174 0.299044H0.102907L0.0027771 0.774633C1.4704 1.09579 3.13788 1.61378 4.14812 2.16802C4.76636 2.50659 4.94266 2.80255 5.14576 3.60708L8.49636 16.677H12.9364L19.7436 0.299044L15.3316 0.29884Z" fill="url(#paint0_linear_71_12445)"/>
</g>
<defs>
<linearGradient id="paint0_linear_71_12445" x1="2390.4" y1="50.8976" x2="2439.82" y2="-1688.02" gradientUnits="userSpaceOnUse">
<stop stop-color="#222357"/>
<stop offset="1" stop-color="#254AA5"/>
</linearGradient>
<clipPath id="clip0_71_12445">
<rect width="52" height="17" fill="white"/>
</clipPath>
</defs>
</svg>
